<?xml version="1.0" standalone="no"?>
<!DOCTYPE svg PUBLIC "-//W3C//DTD SVG 1.1//EN" "http://www.w3.org/Graphics/SVG/1.1/DTD/svg11.dtd" >
<svg xmlns="http://www.w3.org/2000/svg" xmlns:xlink="http://www.w3.org/1999/xlink" version="1.1">
<metadata>
Created by FontForge 20161116 at Fri Jul  3 01:26:13 2015
 By Jimmy Wärting
Copyright (c) 2009 by Santiago Uribe. All rights reserved.
</metadata>
<defs>
<font id="Aniifont-Bold" horiz-adv-x="521" >
  <font-face 
    font-family="Anii font"
    font-weight="700"
    font-stretch="normal"
    units-per-em="1000"
    panose-1="2 0 8 6 5 0 0 2 0 4"
    ascent="750"
    descent="-250"
    x-height="479"
    cap-height="680"
    bbox="-40 -271 896 957"
    underline-thickness="50"
    underline-position="-100"
    unicode-range="U+0020-2022"
  />
<missing-glyph horiz-adv-x="240" 
 />
    <glyph glyph-name=".notdef" horiz-adv-x="240" 
 />
    <glyph glyph-name=".null" horiz-adv-x="0" 
 />
    <glyph glyph-name="nonmarkingreturn" horiz-adv-x="240" 
 />
    <glyph glyph-name="space" unicode=" " horiz-adv-x="240" 
 />
    <glyph glyph-name="space" unicode="&#xa0;" horiz-adv-x="240" 
 />
    <glyph glyph-name="parenright" unicode=")" horiz-adv-x="320" 
d="M50 -28q38 77 60 167.5t22 178.5t-21.5 178t-60.5 168q-11 21 -2 34t32 13h31q12 0 19.5 -5t15.5 -16q56 -85 83.5 -181.5t27.5 -190.5q0 -95 -27.5 -191t-83.5 -181q-8 -11 -15 -16t-20 -5h-31q-23 0 -32 13t2 34z" />
    <glyph glyph-name="asterisk" unicode="*" horiz-adv-x="342" 
d="M156 352q-16 0 -25.5 9.5t-9.5 25.5v33q-8 -4 -14.5 -8t-13.5 -9q-13 -6 -27 -2.5t-22 15.5l-13 25q-6 13 -3 28t18 22q7 4 9 4.5t2.5 1t3 2t10.5 6.5l-27 15q-14 8 -17.5 21.5t4.5 27.5q3 6 6.5 12.5t6.5 12.5q8 12 21.5 17t27.5 -5q6 -3 8 -4.5t4 -2t5 -2.5t11 -7v32
q0 16 9.5 26t25.5 10h27q16 0 25.5 -10t9.5 -26v-33q8 5 14 8.5t14 8.5q13 7 27 3t22 -15q3 -6 6.5 -12.5t6.5 -12.5q6 -13 3 -28t-18 -22q-8 -4 -9.5 -5t-2.5 -2t-3 -2l-10 -5l13.5 -7.5l13.5 -7.5q14 -8 17.5 -21.5t-4.5 -27.5q-3 -6 -6.5 -12.5t-6.5 -12.5
q-8 -13 -21.5 -18t-27.5 5q-6 3 -8 4.5t-4 2.5l-5 2.5t-11 6.5v-32q0 -16 -9.5 -25.5t-25.5 -9.5h-27v0z" />
    <glyph glyph-name="less" unicode="&#x3c;" horiz-adv-x="542" 
d="M62 181q-31 10 -31 41v47q0 31 28 42l402 164q22 9 36 0.5t14 -34.5v-62q0 -17 -6.5 -25.5t-22.5 -15.5q-33 -14 -60 -24.5t-53 -21t-54 -22t-64 -25.5q58 -23 115.5 -45.5t115.5 -45.5q16 -7 22.5 -15.5t6.5 -25.5v-62q0 -26 -14 -34.5t-36 0.5l-401 164h2z" />
    <glyph glyph-name="equal" unicode="=" horiz-adv-x="542" 
d="M71 322q-18 0 -29 11t-11 29v54q0 18 11 29t29 11h400q18 0 29 -11t11 -29v-54q0 -18 -11 -29t-29 -11h-400zM71 90q-18 0 -29 11t-11 29v54q0 18 11 29t29 11h400q18 0 29 -11t11 -29v-54q0 -18 -11 -29t-29 -11h-400z" />
    <glyph glyph-name="greater" unicode="&#x3e;" horiz-adv-x="542" 
d="M31 112q0 17 6.5 25.5t22.5 15.5l230 93l-230 91q-16 7 -22.5 15.5t-6.5 25.5v62q0 26 14 34.5t36 -0.5l401 -164q29 -11 29 -42v-47q0 -31 -31 -41h2l-401 -164q-23 -9 -36.5 -0.5t-13.5 34.5v62z" />
    <glyph glyph-name="bracketleft" unicode="[" horiz-adv-x="341" 
d="M120 -114q-18 0 -29 11t-11 29v804q0 18 11 29t29 11h144q18 0 29 -11t11 -29v-48q0 -18 -11 -29t-29 -11h-45v-628h45q18 0 29 -11t11 -29v-48q0 -18 -11 -29t-29 -11h-144z" />
    <glyph glyph-name="backslash" unicode="\" horiz-adv-x="479" 
d="M326 -41q-32 0 -42 31l-221 682q-8 23 2.5 36t33.5 13h53q31 0 41 -31l223 -682q8 -23 -2.5 -36t-33.5 -13h-54z" />
    <glyph glyph-name="bracketright" unicode="]" horiz-adv-x="341" 
d="M77 -114q-18 0 -29 11t-11 29v48q0 18 11 29t29 11h45v628h-45q-18 0 -29 11t-11 29v48q0 18 11 29t29 11h144q18 0 29 -11t11 -29v-804q0 -18 -11 -29t-29 -11h-144z" />
    <glyph glyph-name="grave" unicode="`" horiz-adv-x="421" 
d="M229 557q-20 0 -32.5 8t-21.5 20l-66 88q-20 29 -7.5 46.5t37.5 17.5h46q19 0 31.5 -8t21.5 -22l55 -90q13 -21 8 -40.5t-39 -19.5h-33z" />
    <glyph glyph-name="a" unicode="a" 
d="M247 99q54 0 72 54q5 14 7 34t2 53t-2 53t-7 34q-18 53 -72 53q-53 0 -71 -53q-4 -17 -6 -37.5t-2 -49.5t2 -50t6 -37q19 -54 71 -54zM342 44q-16 -29 -45 -41.5t-68 -12.5q-68 0 -114 29.5t-65 89.5q-9 30 -13 59.5t-4 71.5q0 41 4 70.5t13 59.5q19 60 65 89.5t114 29.5
q35 0 61 -13t37 -39q0 18 15 30t37 12h30q22 0 37 -12t15 -30v-264l13 -129q2 -17 -14 -30.5t-37 -13.5h-25q-8 0 -18 2.5t-18.5 7.5t-14 13.5t-5.5 20.5z" />
    <glyph glyph-name="b" unicode="b" horiz-adv-x="522" 
d="M275 99q52 0 71 54q5 16 6.5 37t1.5 50t-1.5 49.5t-6.5 37.5q-18 53 -71 53q-54 0 -72 -53q-5 -14 -6.5 -34t-1.5 -53t2 -53t6 -34q9 -27 27.5 -40.5t44.5 -13.5zM195 42q0 -18 -14.5 -30t-37.5 -12h-29q-23 0 -37.5 12t-14.5 30v595q0 19 14.5 31t37.5 12h29
q23 0 37.5 -12t14.5 -31l1 -193q16 23 45.5 34t60.5 11q61 0 106.5 -29.5t64.5 -89.5q9 -30 12.5 -59.5t3.5 -70.5q0 -42 -3.5 -71.5t-12.5 -59.5q-19 -60 -63.5 -89.5t-107.5 -29.5q-34 0 -64.5 14.5t-42.5 37.5z" />
    <glyph glyph-name="c" unicode="c" horiz-adv-x="459" 
d="M315 130q16 17 36 17.5t37 -13.5l25 -20q11 -9 11.5 -25t-11.5 -31q-27 -32 -68.5 -50t-95.5 -18q-75 0 -127.5 34t-73.5 98q-7 21 -11 50.5t-4 67.5t4 67t11 50q21 64 73.5 98t127.5 34q54 0 95 -18.5t68 -49.5q11 -15 11 -31t-11 -25l-25 -20q-17 -14 -37 -12.5
t-36 16.5q-14 15 -29.5 23t-35.5 8q-25 0 -44 -13.5t-28 -42.5q-5 -16 -7 -36t-2 -48q0 -29 2 -49t7 -36q9 -29 28 -42.5t44 -13.5q21 0 36 7.5t30 23.5z" />
    <glyph glyph-name="d" unicode="d" horiz-adv-x="522" 
d="M247 99q54 0 72 54q5 14 7 34t2 53t-2 53t-7 34q-18 53 -72 53q-53 0 -71 -53q-4 -17 -6 -37.5t-2 -49.5t2 -50t6 -37q19 -54 71 -54zM328 637q0 19 14.5 31t36.5 12h30q22 0 37 -12t15 -31v-464l14 -129q2 -17 -14 -30.5t-37 -13.5h-25q-8 0 -18 2.5t-18.5 7.5t-14 13.5
t-5.5 20.5q-16 -29 -45 -41.5t-68 -12.5h-1q-68 0 -114 29.5t-65 89.5q-9 30 -13 59.5t-4 71.5q0 41 3.5 70.5t12.5 59.5q19 60 64.5 89.5t106.5 29.5q31 0 61.5 -11t46.5 -34v193z" />
    <glyph glyph-name="e" unicode="e" horiz-adv-x="496" 
d="M172 328q-2 -7 -3 -14.5t-1 -17.5h160q0 20 -4 32q-9 26 -29.5 41t-46.5 15t-46.5 -15t-29.5 -41zM463 240q0 -19 -14.5 -30.5t-37.5 -11.5h-243q0 -20 5 -35q11 -32 33.5 -48t52.5 -16q27 0 48 10t37 24q37 34 71 3l17 -16q14 -13 14.5 -29.5t-11.5 -30.5
q-29 -31 -74.5 -50.5t-107.5 -19.5q-78 0 -131 35t-73 98q-8 23 -12 50.5t-4 66.5t4 67t12 51l-1 -1q21 64 73.5 98t126.5 34t126.5 -34.5t72.5 -97.5q8 -23 11.5 -49t4.5 -68z" />
    <glyph glyph-name="f" unicode="f" horiz-adv-x="314" 
d="M255 665q23 0 37.5 -12t14.5 -31v-24q0 -19 -14.5 -30.5t-37.5 -11.5h-9q-25 0 -32.5 -9.5t-7.5 -38.5v-29h49q23 0 37.5 -12t14.5 -30v-24q0 -19 -14.5 -31t-37.5 -12h-49v-328q0 -18 -14.5 -30t-37.5 -12h-29q-23 0 -37.5 12t-14.5 30v328h-1q-22 0 -36.5 12t-14.5 31
v24q0 18 14.5 30t36.5 12h1v25q0 89 39 125t124 36h19v0z" />
    <glyph glyph-name="g" unicode="g" horiz-adv-x="514" 
d="M452 38q0 -104 -57 -159t-164 -55q-48 0 -90.5 15.5t-69.5 41.5l2 -1q-15 13 -16.5 29.5t10.5 30.5l19 19q14 17 33.5 18t37.5 -12q19 -14 37.5 -23t40.5 -9q40 0 62 25t22 88q-17 -21 -41.5 -30.5t-54.5 -9.5q-68 0 -112 30.5t-63 89.5h1q-10 27 -13.5 55t-3.5 66
t3.5 65.5t13.5 56.5h-1q19 59 63 89.5t112 30.5q35 0 61 -13t37 -39q0 18 15 30t37 12h27q22 0 37 -12t15 -30v-399zM242 114q50 0 69 54v-1q5 14 6.5 33t1.5 47q0 27 -2 45.5t-7 35.5l1 -1q-19 53 -69 53q-49 0 -67 -53l1 1q-10 -30 -10 -81q0 -27 2 -46.5t7 -33.5
q9 -25 26 -39t41 -14z" />
    <glyph glyph-name="h" unicode="h" horiz-adv-x="529" 
d="M339 286q0 45 -17.5 69.5t-53.5 24.5q-32 0 -53 -24t-21 -65v-249q0 -18 -14.5 -30t-36.5 -12h-30q-22 0 -36.5 12t-14.5 30v595q0 19 14.5 31t36.5 12h30q22 0 36.5 -12t14.5 -31l1 -190q19 21 47.5 31.5t57.5 10.5q86 0 129 -50t43 -134v-263q0 -18 -14.5 -30
t-36.5 -12h-30q-22 0 -37 12t-15 30v244z" />
    <glyph glyph-name="i" unicode="i" horiz-adv-x="269" 
d="M72 642q0 19 14.5 31t37.5 12h33q23 0 37.5 -12t14.5 -31v-58q0 -19 -14.5 -30.5t-37.5 -11.5h-33q-23 0 -37.5 11.5t-14.5 30.5v58zM207 42q0 -18 -14.5 -30t-37.5 -12h-29q-23 0 -37.5 12t-14.5 30v328h-1q-22 0 -37 12t-15 31v24q0 18 15 30t37 12h82q23 0 37.5 -12
t14.5 -30v-395z" />
    <glyph glyph-name="j" unicode="j" horiz-adv-x="250" 
d="M25 -166q-23 0 -37.5 11.5t-14.5 30.5v24q0 19 14.5 31t37.5 12q17 0 23.5 8t6.5 32v454q0 18 14.5 30t37.5 12h29q23 0 37.5 -12t14.5 -30v-452q0 -81 -39.5 -116t-120.5 -35h-3zM53 642q0 19 14.5 31t37.5 12h33q23 0 37.5 -12t14.5 -31v-58q0 -19 -14.5 -30.5
t-37.5 -11.5h-33q-23 0 -37.5 11.5t-14.5 30.5v58z" />
    <glyph glyph-name="k" unicode="k" horiz-adv-x="493" 
d="M307 449q8 10 24 20t36 10h37q29 0 39 -18t-5 -36l-113 -133l147 -240q9 -17 -2.5 -34.5t-37.5 -17.5h-37q-20 0 -35.5 10.5t-23.5 22.5l-96 158q-11 -13 -22.5 -25t-22.5 -26v-98q0 -18 -15 -30t-37 -12h-30q-22 0 -36.5 12t-14.5 30v595q0 19 14.5 31t36.5 12h30
q22 0 37 -12t15 -31v-321z" />
    <glyph glyph-name="l" unicode="l" horiz-adv-x="280" 
d="M196 -5q-74 0 -105 33t-31 102v507q0 19 14.5 31t37.5 12h30q22 0 36.5 -12t14.5 -31v-502q0 -17 4.5 -24t15.5 -7q22 0 36.5 -11.5t14.5 -30.5v-24q0 -19 -14.5 -31t-36.5 -12h-17z" />
    <glyph glyph-name="m" unicode="m" horiz-adv-x="807" 
d="M297 489q38 0 71 -12t56 -37q25 23 60 36t81 13q91 0 138 -50t47 -134v-263q0 -18 -14.5 -30t-36.5 -12h-30q-22 0 -36.5 12t-14.5 30v244q0 45 -18 69.5t-54 24.5q-32 0 -52.5 -24t-20.5 -65v-249q0 -18 -15 -30t-37 -12h-30q-22 0 -36.5 12t-14.5 30v244
q0 45 -17.5 69.5t-53.5 24.5q-33 0 -53.5 -24t-20.5 -65v-249q0 -18 -14.5 -30t-37.5 -12h-29q-23 0 -37.5 12t-14.5 30v264l-20 129q-2 17 9.5 30.5t32.5 13.5h39q17 0 31 -8t25 -36q42 54 118 54z" />
    <glyph glyph-name="n" unicode="n" horiz-adv-x="530" 
d="M62 306l-20 129q-2 17 9.5 30.5t32.5 13.5h39q17 0 31 -8t25 -36q42 54 118 54q85 0 130.5 -50t45.5 -134v-263q0 -18 -14.5 -30t-37.5 -12h-29q-23 0 -37.5 12t-14.5 30v244q0 45 -17.5 69.5t-53.5 24.5q-32 0 -53 -24t-21 -65v-249q0 -18 -14.5 -30t-37.5 -12h-29
q-23 0 -37.5 12t-14.5 30v264z" />
    <glyph glyph-name="o" unicode="o" horiz-adv-x="500" 
d="M250 -10q-75 0 -128 34.5t-73 97.5q-8 26 -12 52.5t-4 65.5q0 38 4 64.5t12 52.5q20 63 72.5 97.5t128.5 34.5t128.5 -34.5t72.5 -97.5q8 -26 12 -52.5t4 -64.5q0 -39 -4 -65.5t-12 -52.5q-20 -63 -73 -97.5t-128 -34.5zM250 99q26 0 46 14.5t28 41.5q5 16 6.5 34.5
t1.5 50.5q0 31 -1.5 49t-6.5 35q-8 28 -28 42t-46 14t-46 -14.5t-28 -41.5q-5 -16 -6.5 -34.5t-1.5 -49.5q0 -32 1.5 -50.5t6.5 -34.5q8 -27 28 -41.5t46 -14.5z" />
    <glyph glyph-name="p" unicode="p" horiz-adv-x="522" 
d="M275 99q26 0 44.5 13.5t26.5 40.5q5 16 6.5 37t1.5 50t-1.5 49.5t-6.5 37.5q-8 27 -26.5 40t-44.5 13q-53 0 -72 -53q-5 -14 -7 -34t-2 -53t2 -53t7 -34q9 -27 27.5 -40.5t44.5 -13.5zM299 -10q-29 0 -57.5 10.5t-47.5 31.5v-156q0 -19 -14.5 -30.5t-36.5 -11.5h-30
q-22 0 -36.5 11.5t-14.5 30.5v430l-20 129q-2 17 9.5 30.5t32.5 13.5h39q17 0 31 -8t25 -36q42 54 118 54q63 0 110 -29.5t65 -89.5q9 -30 13 -59.5t4 -70.5q0 -42 -4 -71.5t-13 -59.5q-18 -60 -65 -89.5t-108 -29.5z" />
    <glyph glyph-name="q" unicode="q" horiz-adv-x="522" 
d="M247 99q26 0 44.5 13.5t27.5 40.5q5 14 6.5 34t1.5 53t-1.5 53t-6.5 34q-18 53 -72 53q-26 0 -44.5 -13t-26.5 -40q-5 -17 -6.5 -37.5t-1.5 -49.5t1.5 -50t6.5 -37q8 -27 26.5 -40.5t44.5 -13.5zM222 -10q-63 0 -108.5 29.5t-63.5 89.5q-9 30 -13 59.5t-4 71.5
q0 41 4 70.5t13 59.5q18 60 64 89.5t115 29.5q35 0 61 -13t37 -39q0 18 15 30t37 12h29q22 0 37 -12t15 -30v-561q0 -19 -14.5 -30.5t-36.5 -11.5h-30q-22 0 -37 11.5t-15 30.5v156q-19 -21 -47.5 -31.5t-57.5 -10.5z" />
    <glyph glyph-name="r" unicode="r" horiz-adv-x="400" 
d="M285 489q28 0 53.5 -7.5t43.5 -20.5q17 -12 17.5 -29.5t-9.5 -30.5l-13 -17q-17 -22 -35 -24t-38 9q-18 11 -42 11q-18 0 -30.5 -10t-21 -27t-12 -39.5t-3.5 -47.5v-214q0 -18 -15 -30t-37 -12h-30q-22 0 -36.5 12t-14.5 30v264l-20 129q-2 17 9.5 30.5t32.5 13.5h39
q17 0 31 -8t25 -36q21 27 49 40.5t57 13.5z" />
    <glyph glyph-name="s" unicode="s" horiz-adv-x="471" 
d="M49 50q-16 12 -17 29.5t11 31.5l16 18q13 15 33 16.5t38 -10.5q23 -17 52 -28t58 -11q35 0 52 13.5t17 35.5q0 19 -12 29t-49 14q-11 1 -23.5 2.5t-23.5 2.5q-78 8 -117.5 44.5t-39.5 98.5q0 72 50.5 112.5t141.5 40.5q49 0 89.5 -12t71.5 -32q17 -11 18 -29t-10 -32
l-14 -18q-13 -17 -31 -16.5t-36 9.5q-20 11 -44.5 18.5t-47.5 7.5q-28 0 -42 -12t-14 -31q0 -18 13 -28t48 -13q11 -1 23 -2.5t23 -2.5q81 -8 119.5 -45t38.5 -98q0 -74 -52.5 -118.5t-152.5 -44.5q-65 0 -111 18.5t-76 41.5z" />
    <glyph glyph-name="t" unicode="t" horiz-adv-x="314" 
d="M215 -5q-80 0 -113.5 34.5t-33.5 109.5v231q-22 0 -37 12t-15 31v24q0 18 15 30t37 12v97q0 19 14.5 30.5t37.5 11.5h29q23 0 37.5 -11.5t14.5 -30.5v-97h33q23 0 37.5 -12t14.5 -30v-24q0 -19 -14.5 -31t-37.5 -12h-33v-228q0 -22 6.5 -30t22.5 -8h4q23 0 37.5 -11.5
t14.5 -30.5v-24q0 -19 -14.5 -31t-37.5 -12h-19z" />
    <glyph glyph-name="u" unicode="u" horiz-adv-x="523" 
d="M463 173l13 -129q2 -17 -14 -30.5t-37 -13.5h-25q-8 0 -18 2.5t-18.5 7.5t-14 13.5t-5.5 20.5q-16 -29 -44.5 -41.5t-63.5 -12.5q-86 0 -133.5 50.5t-47.5 134.5v262q0 18 14.5 30t37.5 12h29q23 0 37.5 -12t14.5 -30v-243q0 -45 17.5 -70t52.5 -25q32 0 52 24t20 66v248
q0 18 14.5 30t37.5 12h29q23 0 37.5 -12t14.5 -30v-264z" />
    <glyph glyph-name="v" unicode="v" horiz-adv-x="459" 
d="M13 430q-7 20 4 34.5t37 14.5h37q20 0 36 -11t21 -25l84 -231l81 231q5 14 20.5 25t35.5 11h35q26 0 37.5 -14.5t4.5 -34.5l-147 -394q-5 -14 -18 -25t-35 -11h-33q-21 0 -34 11t-18 25z" />
    <glyph glyph-name="w" unicode="w" horiz-adv-x="707" 
d="M559 36q-5 -14 -17.5 -25t-34.5 -11h-31q-21 0 -34.5 11.5t-18.5 26.5l-70 217l-70 -219q-5 -14 -18 -25t-35 -11h-31q-23 0 -36 11t-18 25l-128 394q-7 20 4 34.5t37 14.5h35q20 0 36.5 -11.5t21.5 -26.5q12 -38 19.5 -62t14 -46t14.5 -46.5t20 -62.5q17 55 34 109
l34 108q5 15 18.5 26.5t35.5 11.5h26q22 0 35.5 -11.5t18.5 -26.5l70 -216l65 216q5 15 21 26.5t36 11.5h35q26 0 37.5 -14t4.5 -34z" />
    <glyph glyph-name="x" unicode="x" horiz-adv-x="462" 
d="M157 32q-8 -11 -23 -21.5t-35 -10.5h-40q-26 0 -37 17.5t2 35.5l134 196q-30 43 -60.5 88.5t-60.5 88.5q-13 18 -2 35.5t37 17.5h40q20 0 35 -10.5t23 -21.5q10 -15 17 -25t13 -19t13 -19t18 -25q15 23 30 44t31 44q8 11 23 21.5t35 10.5h39q27 0 37.5 -17.5t-1.5 -35.5
l-122 -177q33 -48 67 -98t67 -98q12 -18 1.5 -35.5t-37.5 -17.5h-39q-19 0 -34.5 10.5t-23.5 21.5q-12 17 -20.5 29.5t-16 24t-16 24t-20.5 29.5z" />
    <glyph glyph-name="y" unicode="y" horiz-adv-x="459" 
d="M103 -166q-22 0 -36.5 11.5t-14.5 30.5v24q0 19 14.5 31t38.5 12q15 0 25.5 11.5t23.5 42.5q4 10 6.5 17t6.5 17l-155 399q-8 20 3.5 34.5t37.5 14.5h37q20 0 36 -11t21 -25l86 -231l81 231q5 14 20.5 25t35.5 11h35q26 0 38 -14.5t4 -34.5l-169 -452q-16 -41 -32 -69
t-35.5 -44.5t-43.5 -23.5t-54 -7h-10z" />
    <glyph glyph-name="z" unicode="z" horiz-adv-x="464" 
d="M429 410q0 -8 -2 -16t-8 -17l-216 -270h175q22 0 36.5 -11.5t14.5 -30.5v-23q0 -18 -14.5 -30t-36.5 -12h-291q-23 0 -37.5 12t-14.5 30v25q0 11 2.5 18t7.5 13q30 37 57 70.5t53 66t53 66t57 71.5h-166q-23 0 -37.5 11.5t-14.5 30.5v23q0 18 14.5 30t37.5 12h279
q22 0 36.5 -12t14.5 -30v-27z" />
    <glyph glyph-name="braceleft" unicode="{" horiz-adv-x="393" 
d="M270 -114q-137 0 -137 143v182q0 27 -8 38.5t-25 12.5q-18 0 -28.5 11t-10.5 29v57q0 18 11 29t29 11q16 1 24 12.5t8 37.5v178q0 143 137 143h46q18 0 29 -11t11 -29v-48q0 -18 -11 -29t-29 -11h-29q-15 0 -15 -19v-173q0 -45 -8.5 -73.5t-25.5 -46.5q18 -17 26 -45.5
t8 -73.5v-178q0 -19 15 -19h29q18 0 29 -11t11 -29v-48q0 -18 -11 -29t-29 -11h-46z" />
    <glyph glyph-name="bar" unicode="|" horiz-adv-x="350" 
d="M149 -114q-18 0 -29 11t-11 29v804q0 18 11 29t29 11h52q18 0 29 -11t11 -29v-804q0 -18 -11 -29t-29 -11h-52z" />
    <glyph glyph-name="braceright" unicode="}" horiz-adv-x="393" 
d="M77 -114q-18 0 -29 11t-11 29v48q0 18 11 29t29 11h29q15 0 15 19v178q0 45 8.5 73.5t25.5 46.5q-18 17 -26 45.5t-8 73.5v173q0 19 -15 19h-29q-18 0 -29 11t-11 29v48q0 18 11 29t29 11h46q137 0 137 -143v-178q0 -26 7.5 -37.5t24.5 -12.5q18 0 29 -11t11 -29v-57
q0 -18 -11 -29t-29 -11q-17 -2 -24.5 -13.5t-7.5 -37.5v-182q0 -143 -137 -143h-46z" />
    <glyph glyph-name="Agrave" unicode="&#xc0;" horiz-adv-x="578" 
d="M381 276q-16 69 -43.5 128.5t-49.5 99.5q-23 -40 -50 -99.5t-42 -128.5h185zM358 643q26 -40 55 -92t53.5 -112t40.5 -125.5t16 -132.5v-130q0 -22 -14.5 -36.5t-36.5 -14.5h-29q-22 0 -36.5 14.5t-14.5 36.5v94h-207v-94q0 -22 -14.5 -36.5t-37.5 -14.5h-28
q-22 0 -36.5 14.5t-14.5 36.5v130q0 67 16 132.5t41 125.5t53.5 112t54.5 92q10 15 21.5 26t32.5 11h30q21 0 33 -11t22 -26zM262 762q-20 0 -32.5 8t-21.5 20l-66 88q-20 29 -7.5 46.5t37.5 17.5h46q19 0 31.5 -8t21.5 -22l55 -90q13 -21 8 -40.5t-39 -19.5h-33z" />
    <glyph glyph-name="Aacute" unicode="&#xc1;" horiz-adv-x="578" 
d="M381 276q-16 69 -43.5 128.5t-49.5 99.5q-23 -40 -50 -99.5t-42 -128.5h185zM358 643q26 -40 55 -92t53.5 -112t40.5 -125.5t16 -132.5v-130q0 -22 -14.5 -36.5t-36.5 -14.5h-29q-22 0 -36.5 14.5t-14.5 36.5v94h-207v-94q0 -22 -14.5 -36.5t-37.5 -14.5h-28
q-22 0 -36.5 14.5t-14.5 36.5v130q0 67 16 132.5t41 125.5t53.5 112t54.5 92q10 15 21.5 26t32.5 11h30q21 0 33 -11t22 -26zM283 762q-17 0 -26.5 5.5t-12.5 14t-0.5 19t8.5 21.5l55 90q9 14 21.5 22t31.5 8h46q25 0 37.5 -17.5t-7.5 -46.5l-66 -88q-9 -12 -21.5 -20
t-32.5 -8h-33z" />
    <glyph glyph-name="Acircumflex" unicode="&#xc2;" horiz-adv-x="578" 
d="M381 276q-16 69 -43.5 128.5t-49.5 99.5q-23 -40 -50 -99.5t-42 -128.5h185zM358 643q26 -40 55 -92t53.5 -112t40.5 -125.5t16 -132.5v-130q0 -22 -14.5 -36.5t-36.5 -14.5h-29q-22 0 -36.5 14.5t-14.5 36.5v94h-207v-94q0 -22 -14.5 -36.5t-37.5 -14.5h-28
q-22 0 -36.5 14.5t-14.5 36.5v130q0 67 16 132.5t41 125.5t53.5 112t54.5 92q10 15 21.5 26t32.5 11h30q21 0 33 -11t22 -26zM182 754q-18 0 -27.5 5.5t-12.5 14.5t-0.5 19.5t9.5 20.5l64 91q11 14 23.5 21.5t29.5 7.5h41q30 0 51 -29l66 -91q7 -10 9.5 -20.5t-0.5 -19.5
t-13 -14.5t-27 -5.5h-33q-20 0 -32.5 8t-21.5 20l-20 27l-19 -27q-9 -13 -22 -20.5t-33 -7.5h-32z" />
    <glyph glyph-name="Atilde" unicode="&#xc3;" horiz-adv-x="578" 
d="M381 276q-16 69 -43.5 128.5t-49.5 99.5q-23 -40 -50 -99.5t-42 -128.5h185zM358 643q26 -40 55 -92t53.5 -112t40.5 -125.5t16 -132.5v-130q0 -22 -14.5 -36.5t-36.5 -14.5h-29q-22 0 -36.5 14.5t-14.5 36.5v94h-207v-94q0 -22 -14.5 -36.5t-37.5 -14.5h-28
q-22 0 -36.5 14.5t-14.5 36.5v130q0 67 16 132.5t41 125.5t53.5 112t54.5 92q10 15 21.5 26t32.5 11h30q21 0 33 -11t22 -26zM235 802q-9 0 -17.5 -4.5t-15.5 -11.5q-9 -8 -19 -11t-18.5 -0.5t-14 11t-5.5 23.5v35q0 10 2.5 16.5t11.5 17.5q16 16 36 26.5t44 10.5
q19 0 37 -7t32 -15q8 -5 17 -8.5t17 -3.5t16.5 4.5t16.5 12.5t18 11t18.5 0t14 -11.5t5.5 -23.5v-36q0 -10 -2 -17t-11 -18q-15 -15 -35 -25.5t-45 -10.5q-19 0 -36.5 7t-32.5 15q-9 5 -17.5 9t-16.5 4z" />
    <glyph glyph-name="Adieresis" unicode="&#xc4;" horiz-adv-x="578" 
d="M381 276q-16 69 -43.5 128.5t-49.5 99.5q-23 -40 -50 -99.5t-42 -128.5h185zM358 643q26 -40 55 -92t53.5 -112t40.5 -125.5t16 -132.5v-130q0 -22 -14.5 -36.5t-36.5 -14.5h-29q-22 0 -36.5 14.5t-14.5 36.5v94h-207v-94q0 -22 -14.5 -36.5t-37.5 -14.5h-28
q-22 0 -36.5 14.5t-14.5 36.5v130q0 67 16 132.5t41 125.5t53.5 112t54.5 92q10 15 21.5 26t32.5 11h30q21 0 33 -11t22 -26zM242 826q0 -21 -14 -35t-35 -14h-24q-22 0 -36 14t-14 35v37q0 21 14 35.5t36 14.5h24q21 0 35 -14.5t14 -35.5v-37zM458 826q0 -21 -14.5 -35
t-35.5 -14h-24q-22 0 -36 14t-14 35v37q0 21 14 35.5t36 14.5h24q21 0 35.5 -14.5t14.5 -35.5v-37z" />
    <glyph glyph-name="Aring" unicode="&#xc5;" horiz-adv-x="578" 
d="M287 729q-24 0 -45 8.5t-36.5 24t-24.5 36.5t-9 45t9 45t24.5 36.5t36.5 24t45 8.5t45 -8.5t36.5 -24t24.5 -36.5t9 -45t-9 -45t-24.5 -36.5t-36.5 -24t-45 -8.5zM287 810q14 0 22.5 9.5t8.5 23.5t-8.5 23.5t-22.5 9.5t-22.5 -9.5t-8.5 -23.5t8.5 -23.5t22.5 -9.5z
M381 276q-16 69 -43.5 128.5t-49.5 99.5q-23 -40 -50 -99.5t-42 -128.5h185zM358 643q26 -40 55 -92t53.5 -112t40.5 -125.5t16 -132.5v-130q0 -22 -14.5 -36.5t-36.5 -14.5h-29q-22 0 -36.5 14.5t-14.5 36.5v94h-207v-94q0 -22 -14.5 -36.5t-37.5 -14.5h-28
q-22 0 -36.5 14.5t-14.5 36.5v130q0 67 16 132.5t41 125.5t53.5 112t54.5 92q10 15 21.5 26t32.5 11h30q21 0 33 -11t22 -26z" />
    <glyph glyph-name="Egrave" unicode="&#xc8;" horiz-adv-x="543" 
d="M115 0q-22 0 -36.5 14.5t-14.5 36.5v578q0 22 14.5 36.5t36.5 14.5h347q22 0 36.5 -14.5t14.5 -36.5v-29q0 -22 -14.5 -36.5t-36.5 -14.5h-261v-140h216q22 0 36.5 -14.5t14.5 -37.5v-28q0 -22 -14.5 -36.5t-36.5 -14.5h-216v-147h261q22 0 36.5 -14.5t14.5 -36.5v-29
q0 -22 -14.5 -36.5t-36.5 -14.5h-347zM285 762q-20 0 -32.5 8t-21.5 20l-66 88q-20 29 -7.5 46.5t37.5 17.5h46q19 0 31.5 -8t21.5 -22l55 -90q13 -21 8 -40.5t-39 -19.5h-33z" />
    <glyph glyph-name="Eacute" unicode="&#xc9;" horiz-adv-x="543" 
d="M115 0q-22 0 -36.5 14.5t-14.5 36.5v578q0 22 14.5 36.5t36.5 14.5h347q22 0 36.5 -14.5t14.5 -36.5v-29q0 -22 -14.5 -36.5t-36.5 -14.5h-261v-140h216q22 0 36.5 -14.5t14.5 -37.5v-28q0 -22 -14.5 -36.5t-36.5 -14.5h-216v-147h261q22 0 36.5 -14.5t14.5 -36.5v-29
q0 -22 -14.5 -36.5t-36.5 -14.5h-347zM260 762q-17 0 -26.5 5.5t-12.5 14t-0.5 19t8.5 21.5l55 90q9 14 21.5 22t31.5 8h46q25 0 37.5 -17.5t-7.5 -46.5l-66 -88q-9 -12 -21.5 -20t-32.5 -8h-33z" />
    <glyph glyph-name="Ecircumflex" unicode="&#xca;" horiz-adv-x="543" 
d="M181 754q-18 0 -27.5 5.5t-12.5 14.5t-0.5 19.5t9.5 20.5l64 91q11 14 23.5 21.5t29.5 7.5h41q30 0 51 -29l66 -91q7 -10 9.5 -20.5t-0.5 -19.5t-13 -14.5t-27 -5.5h-33q-20 0 -32.5 8t-21.5 20l-20 27l-19 -27q-9 -13 -22 -20.5t-33 -7.5h-32zM115 0q-22 0 -36.5 14.5
t-14.5 36.5v578q0 22 14.5 36.5t36.5 14.5h347q22 0 36.5 -14.5t14.5 -36.5v-29q0 -22 -14.5 -36.5t-36.5 -14.5h-261v-140h216q22 0 36.5 -14.5t14.5 -37.5v-28q0 -22 -14.5 -36.5t-36.5 -14.5h-216v-147h261q22 0 36.5 -14.5t14.5 -36.5v-29q0 -22 -14.5 -36.5
t-36.5 -14.5h-347z" />
    <glyph glyph-name="Edieresis" unicode="&#xcb;" horiz-adv-x="543" 
d="M115 0q-22 0 -36.5 14.5t-14.5 36.5v578q0 22 14.5 36.5t36.5 14.5h347q22 0 36.5 -14.5t14.5 -36.5v-29q0 -22 -14.5 -36.5t-36.5 -14.5h-261v-140h216q22 0 36.5 -14.5t14.5 -37.5v-28q0 -22 -14.5 -36.5t-36.5 -14.5h-216v-147h261q22 0 36.5 -14.5t14.5 -36.5v-29
q0 -22 -14.5 -36.5t-36.5 -14.5h-347zM248 826q0 -21 -14 -35t-35 -14h-24q-22 0 -36 14t-14 35v37q0 21 14 35.5t36 14.5h24q21 0 35 -14.5t14 -35.5v-37zM464 826q0 -21 -14.5 -35t-35.5 -14h-24q-22 0 -36 14t-14 35v37q0 21 14 35.5t36 14.5h24q21 0 35.5 -14.5
t14.5 -35.5v-37z" />
    <glyph glyph-name="Igrave" unicode="&#xcc;" horiz-adv-x="265" 
d="M242 680q22 0 36.5 -14.5t14.5 -36.5v-29q0 -22 -14.5 -36.5t-36.5 -14.5h-19v-418h19q22 0 36.5 -14.5t14.5 -36.5v-29q0 -22 -14.5 -36.5t-36.5 -14.5h-174q-22 0 -36.5 14.5t-14.5 36.5v29q0 22 14.5 36.5t36.5 14.5h19v418h-19q-22 0 -36.5 14.5t-14.5 36.5v29
q0 22 14.5 36.5t36.5 14.5h174zM117 762q-20 0 -32.5 8t-21.5 20l-66 88q-20 29 -7.5 46.5t37.5 17.5h46q19 0 31.5 -8t21.5 -22l55 -90q13 -21 8 -40.5t-39 -19.5h-33z" />
    <glyph glyph-name="Iacute" unicode="&#xcd;" horiz-adv-x="265" 
d="M242 680q22 0 36.5 -14.5t14.5 -36.5v-29q0 -22 -14.5 -36.5t-36.5 -14.5h-19v-418h19q22 0 36.5 -14.5t14.5 -36.5v-29q0 -22 -14.5 -36.5t-36.5 -14.5h-174q-22 0 -36.5 14.5t-14.5 36.5v29q0 22 14.5 36.5t36.5 14.5h19v418h-19q-22 0 -36.5 14.5t-14.5 36.5v29
q0 22 14.5 36.5t36.5 14.5h174zM123 762q-17 0 -26.5 5.5t-12.5 14t-0.5 19t8.5 21.5l55 90q9 14 21.5 22t31.5 8h46q25 0 37.5 -17.5t-7.5 -46.5l-66 -88q-9 -12 -21.5 -20t-32.5 -8h-33z" />
    <glyph glyph-name="Icircumflex" unicode="&#xce;" horiz-adv-x="265" 
d="M242 680q22 0 36.5 -14.5t14.5 -36.5v-29q0 -22 -14.5 -36.5t-36.5 -14.5h-19v-418h19q22 0 36.5 -14.5t14.5 -36.5v-29q0 -22 -14.5 -36.5t-36.5 -14.5h-174q-22 0 -36.5 14.5t-14.5 36.5v29q0 22 14.5 36.5t36.5 14.5h19v418h-19q-22 0 -36.5 14.5t-14.5 36.5v29
q0 22 14.5 36.5t36.5 14.5h174zM27 754q-18 0 -27.5 5.5t-12.5 14.5t-0.5 19.5t9.5 20.5l64 91q11 14 23.5 21.5t29.5 7.5h41q30 0 51 -29l66 -91q7 -10 9.5 -20.5t-0.5 -19.5t-13 -14.5t-27 -5.5h-33q-20 0 -32.5 8t-21.5 20l-20 27l-19 -27q-9 -13 -22 -20.5t-33 -7.5h-32
z" />
    <glyph glyph-name="Idieresis" unicode="&#xcf;" horiz-adv-x="265" 
d="M242 680q22 0 36.5 -14.5t14.5 -36.5v-29q0 -22 -14.5 -36.5t-36.5 -14.5h-19v-418h19q22 0 36.5 -14.5t14.5 -36.5v-29q0 -22 -14.5 -36.5t-36.5 -14.5h-174q-22 0 -36.5 14.5t-14.5 36.5v29q0 22 14.5 36.5t36.5 14.5h19v418h-19q-22 0 -36.5 14.5t-14.5 36.5v29
q0 22 14.5 36.5t36.5 14.5h174zM87 826q0 -21 -14 -35t-35 -14h-24q-22 0 -36 14t-14 35v37q0 21 14 35.5t36 14.5h24q21 0 35 -14.5t14 -35.5v-37zM303 826q0 -21 -14.5 -35t-35.5 -14h-24q-22 0 -36 14t-14 35v37q0 21 14 35.5t36 14.5h24q21 0 35.5 -14.5t14.5 -35.5v-37
z" />
    <glyph glyph-name="Ntilde" unicode="&#xd1;" horiz-adv-x="629" 
d="M434 629q0 22 14.5 36.5t37.5 14.5h28q22 0 36.5 -14.5t14.5 -36.5v-578q0 -22 -14.5 -36.5t-36.5 -14.5h-28q-23 0 -37.5 14.5t-14.5 36.5v110l-239 217v-327q0 -22 -14.5 -36.5t-36.5 -14.5h-29q-22 0 -36.5 14.5t-14.5 36.5v578q0 22 14.5 36.5t36.5 14.5h29
q22 0 36.5 -14.5t14.5 -36.5v-67l239 -219v286zM261 802q-9 0 -17.5 -4.5t-15.5 -11.5q-9 -8 -19 -11t-18.5 -0.5t-14 11t-5.5 23.5v35q0 10 2.5 16.5t11.5 17.5q16 16 36 26.5t44 10.5q19 0 37 -7t32 -15q8 -5 17 -8.5t17 -3.5t16.5 4.5t16.5 12.5t18 11t18.5 0t14 -11.5
t5.5 -23.5v-36q0 -10 -2 -17t-11 -18q-15 -15 -35 -25.5t-45 -10.5q-19 0 -36.5 7t-32.5 15q-9 5 -17.5 9t-16.5 4z" />
    <glyph glyph-name="Ograve" unicode="&#xd2;" horiz-adv-x="594" 
d="M296 -10q-88 0 -149 41.5t-89 123.5q-5 15 -8 31t-5.5 37t-3.5 49.5t-1 67.5t1 67.5t3.5 49.5t5.5 37t8 31q28 82 89 123.5t149 41.5q89 0 150.5 -41.5t88.5 -123.5q5 -15 8.5 -31t6 -37t3.5 -49.5t1 -67.5t-1 -67.5t-3.5 -49.5t-6 -37t-8.5 -31q-27 -82 -88.5 -123.5
t-150.5 -41.5zM296 121q42 0 68.5 19.5t38.5 54.5q5 16 9 48.5t4 96.5t-4 96.5t-9 48.5q-12 35 -38.5 54.5t-68.5 19.5q-41 0 -67.5 -19.5t-37.5 -54.5q-5 -16 -9 -48.5t-4 -96.5t4 -96.5t9 -48.5q11 -35 37.5 -54.5t67.5 -19.5zM274 762q-20 0 -32.5 8t-21.5 20l-66 88
q-20 29 -7.5 46.5t37.5 17.5h46q19 0 31.5 -8t21.5 -22l55 -90q13 -21 8 -40.5t-39 -19.5h-33z" />
    <glyph glyph-name="Oacute" unicode="&#xd3;" horiz-adv-x="594" 
d="M296 -10q-88 0 -149 41.5t-89 123.5q-5 15 -8 31t-5.5 37t-3.5 49.5t-1 67.5t1 67.5t3.5 49.5t5.5 37t8 31q28 82 89 123.5t149 41.5q89 0 150.5 -41.5t88.5 -123.5q5 -15 8.5 -31t6 -37t3.5 -49.5t1 -67.5t-1 -67.5t-3.5 -49.5t-6 -37t-8.5 -31q-27 -82 -88.5 -123.5
t-150.5 -41.5zM296 121q42 0 68.5 19.5t38.5 54.5q5 16 9 48.5t4 96.5t-4 96.5t-9 48.5q-12 35 -38.5 54.5t-68.5 19.5q-41 0 -67.5 -19.5t-37.5 -54.5q-5 -16 -9 -48.5t-4 -96.5t4 -96.5t9 -48.5q11 -35 37.5 -54.5t67.5 -19.5zM281 762q-17 0 -26.5 5.5t-12.5 14t-0.5 19
t8.5 21.5l55 90q9 14 21.5 22t31.5 8h46q25 0 37.5 -17.5t-7.5 -46.5l-66 -88q-9 -12 -21.5 -20t-32.5 -8h-33z" />
    <glyph glyph-name="Ocircumflex" unicode="&#xd4;" horiz-adv-x="594" 
d="M296 -10q-88 0 -149 41.5t-89 123.5q-5 15 -8 31t-5.5 37t-3.5 49.5t-1 67.5t1 67.5t3.5 49.5t5.5 37t8 31q28 82 89 123.5t149 41.5q89 0 150.5 -41.5t88.5 -123.5q5 -15 8.5 -31t6 -37t3.5 -49.5t1 -67.5t-1 -67.5t-3.5 -49.5t-6 -37t-8.5 -31q-27 -82 -88.5 -123.5
t-150.5 -41.5zM296 121q42 0 68.5 19.5t38.5 54.5q5 16 9 48.5t4 96.5t-4 96.5t-9 48.5q-12 35 -38.5 54.5t-68.5 19.5q-41 0 -67.5 -19.5t-37.5 -54.5q-5 -16 -9 -48.5t-4 -96.5t4 -96.5t9 -48.5q11 -35 37.5 -54.5t67.5 -19.5zM191 754q-18 0 -27.5 5.5t-12.5 14.5
t-0.5 19.5t9.5 20.5l64 91q11 14 23.5 21.5t29.5 7.5h41q30 0 51 -29l66 -91q7 -10 9.5 -20.5t-0.5 -19.5t-13 -14.5t-27 -5.5h-33q-20 0 -32.5 8t-21.5 20l-20 27l-19 -27q-9 -13 -22 -20.5t-33 -7.5h-32z" />
    <glyph glyph-name="Otilde" unicode="&#xd5;" horiz-adv-x="594" 
d="M296 -10q-88 0 -149 41.5t-89 123.5q-5 15 -8 31t-5.5 37t-3.5 49.5t-1 67.5t1 67.5t3.5 49.5t5.5 37t8 31q28 82 89 123.5t149 41.5q89 0 150.5 -41.5t88.5 -123.5q5 -15 8.5 -31t6 -37t3.5 -49.5t1 -67.5t-1 -67.5t-3.5 -49.5t-6 -37t-8.5 -31q-27 -82 -88.5 -123.5
t-150.5 -41.5zM296 121q42 0 68.5 19.5t38.5 54.5q5 16 9 48.5t4 96.5t-4 96.5t-9 48.5q-12 35 -38.5 54.5t-68.5 19.5q-41 0 -67.5 -19.5t-37.5 -54.5q-5 -16 -9 -48.5t-4 -96.5t4 -96.5t9 -48.5q11 -35 37.5 -54.5t67.5 -19.5zM244 802q-9 0 -17.5 -4.5t-15.5 -11.5
q-9 -8 -19 -11t-18.5 -0.5t-14 11t-5.5 23.5v35q0 10 2.5 16.5t11.5 17.5q16 16 36 26.5t44 10.5q19 0 37 -7t32 -15q8 -5 17 -8.5t17 -3.5t16.5 4.5t16.5 12.5t18 11t18.5 0t14 -11.5t5.5 -23.5v-36q0 -10 -2 -17t-11 -18q-15 -15 -35 -25.5t-45 -10.5q-19 0 -36.5 7
t-32.5 15q-9 5 -17.5 9t-16.5 4z" />
    <glyph glyph-name="Odieresis" unicode="&#xd6;" horiz-adv-x="594" 
d="M296 -10q-88 0 -149 41.5t-89 123.5q-5 15 -8 31t-5.5 37t-3.5 49.5t-1 67.5t1 67.5t3.5 49.5t5.5 37t8 31q28 82 89 123.5t149 41.5q89 0 150.5 -41.5t88.5 -123.5q5 -15 8.5 -31t6 -37t3.5 -49.5t1 -67.5t-1 -67.5t-3.5 -49.5t-6 -37t-8.5 -31q-27 -82 -88.5 -123.5
t-150.5 -41.5zM296 121q42 0 68.5 19.5t38.5 54.5q5 16 9 48.5t4 96.5t-4 96.5t-9 48.5q-12 35 -38.5 54.5t-68.5 19.5q-41 0 -67.5 -19.5t-37.5 -54.5q-5 -16 -9 -48.5t-4 -96.5t4 -96.5t9 -48.5q11 -35 37.5 -54.5t67.5 -19.5zM251 826q0 -21 -14 -35t-35 -14h-24
q-22 0 -36 14t-14 35v37q0 21 14 35.5t36 14.5h24q21 0 35 -14.5t14 -35.5v-37zM467 826q0 -21 -14.5 -35t-35.5 -14h-24q-22 0 -36 14t-14 35v37q0 21 14 35.5t36 14.5h24q21 0 35.5 -14.5t14.5 -35.5v-37z" />
    <glyph glyph-name="Scaron" unicode="&#x160;" horiz-adv-x="568" 
d="M140 172q28 -20 66 -35.5t81 -15.5q52 0 81 22t29 57q0 28 -23.5 47.5t-83.5 27.5q-7 1 -15.5 2t-15.5 2q-207 29 -207 201q0 48 16.5 86.5t46.5 66t72.5 42.5t95.5 15t102.5 -14t87.5 -37q19 -11 25 -31t-6 -40l-16 -26q-11 -18 -31 -24t-40 5q-31 17 -61.5 26.5
t-63.5 9.5q-44 0 -67.5 -21t-23.5 -53q0 -26 28.5 -44.5t79.5 -27.5q7 -1 14.5 -2.5t14.5 -2.5q105 -14 157 -63.5t52 -138.5q0 -47 -16 -86.5t-48 -68.5t-80 -45t-112 -16q-66 0 -126.5 22t-100.5 53q-17 15 -18.5 35.5t13.5 37.5l22 26q13 16 34.5 17.5t36.5 -9.5z
M219 931q20 0 33 -7.5t22 -20.5l19 -27l20 27q9 12 21.5 20t32.5 8h33q17 0 27 -5.5t13 -14.5t0.5 -19.5t-9.5 -20.5l-66 -91q-21 -29 -51 -29h-41q-17 0 -29.5 7.5t-23.5 21.5l-64 91q-7 10 -9.5 20.5t0.5 19.5t12.5 14.5t27.5 5.5h32z" />
    <glyph glyph-name="Ugrave" unicode="&#xd9;" horiz-adv-x="615" 
d="M556 245q0 -124 -66 -189.5t-182 -65.5q-117 0 -183 65.5t-66 189.5v384q0 22 14.5 36.5t36.5 14.5h34q23 0 37.5 -14.5t14.5 -36.5v-383q0 -62 30.5 -93.5t81.5 -31.5q50 0 80.5 31.5t30.5 93.5v383q0 22 14.5 36.5t37.5 14.5h34q22 0 36.5 -14.5t14.5 -36.5v-384z
M299 762q-20 0 -32.5 8t-21.5 20l-66 88q-20 29 -7.5 46.5t37.5 17.5h46q19 0 31.5 -8t21.5 -22l55 -90q13 -21 8 -40.5t-39 -19.5h-33z" />
    <glyph glyph-name="Uacute" unicode="&#xda;" horiz-adv-x="615" 
d="M556 245q0 -124 -66 -189.5t-182 -65.5q-117 0 -183 65.5t-66 189.5v384q0 22 14.5 36.5t36.5 14.5h34q23 0 37.5 -14.5t14.5 -36.5v-383q0 -62 30.5 -93.5t81.5 -31.5q50 0 80.5 31.5t30.5 93.5v383q0 22 14.5 36.5t37.5 14.5h34q22 0 36.5 -14.5t14.5 -36.5v-384z
M294 762q-17 0 -26.5 5.5t-12.5 14t-0.5 19t8.5 21.5l55 90q9 14 21.5 22t31.5 8h46q25 0 37.5 -17.5t-7.5 -46.5l-66 -88q-9 -12 -21.5 -20t-32.5 -8h-33z" />
    <glyph glyph-name="Ucircumflex" unicode="&#xdb;" horiz-adv-x="615" 
d="M556 245q0 -124 -66 -189.5t-182 -65.5q-117 0 -183 65.5t-66 189.5v384q0 22 14.5 36.5t36.5 14.5h34q23 0 37.5 -14.5t14.5 -36.5v-383q0 -62 30.5 -93.5t81.5 -31.5q50 0 80.5 31.5t30.5 93.5v383q0 22 14.5 36.5t37.5 14.5h34q22 0 36.5 -14.5t14.5 -36.5v-384z
M201 754q-18 0 -27.5 5.5t-12.5 14.5t-0.5 19.5t9.5 20.5l64 91q11 14 23.5 21.5t29.5 7.5h41q30 0 51 -29l66 -91q7 -10 9.5 -20.5t-0.5 -19.5t-13 -14.5t-27 -5.5h-33q-20 0 -32.5 8t-21.5 20l-20 27l-19 -27q-9 -13 -22 -20.5t-33 -7.5h-32z" />
    <glyph glyph-name="Udieresis" unicode="&#xdc;" horiz-adv-x="615" 
d="M556 245q0 -124 -66 -189.5t-182 -65.5q-117 0 -183 65.5t-66 189.5v384q0 22 14.5 36.5t36.5 14.5h34q23 0 37.5 -14.5t14.5 -36.5v-383q0 -62 30.5 -93.5t81.5 -31.5q50 0 80.5 31.5t30.5 93.5v383q0 22 14.5 36.5t37.5 14.5h34q22 0 36.5 -14.5t14.5 -36.5v-384z
M261 826q0 -21 -14 -35t-35 -14h-24q-22 0 -36 14t-14 35v37q0 21 14 35.5t36 14.5h24q21 0 35 -14.5t14 -35.5v-37zM477 826q0 -21 -14.5 -35t-35.5 -14h-24q-22 0 -36 14t-14 35v37q0 21 14 35.5t36 14.5h24q21 0 35.5 -14.5t14.5 -35.5v-37z" />
    <glyph glyph-name="Yacute" unicode="&#xdd;" horiz-adv-x="503" 
d="M148 636q13 -45 40 -103.5t63 -121.5q37 63 63.5 121.5t39.5 103.5q7 21 22 32.5t34 11.5h44q28 0 37.5 -17.5t4.5 -40.5q-9 -32 -26 -73.5t-40 -87.5t-51 -93.5t-60 -92.5v-224q0 -22 -14.5 -36.5t-36.5 -14.5h-33q-23 0 -37.5 14.5t-14.5 36.5v224q-32 45 -60 92.5
t-51 93.5t-39.5 87.5t-25.5 73.5q-5 23 4 40.5t37 17.5h44q20 0 35 -11.5t21 -32.5zM235 762q-17 0 -26.5 5.5t-12.5 14t-0.5 19t8.5 21.5l55 90q9 14 21.5 22t31.5 8h46q25 0 37.5 -17.5t-7.5 -46.5l-66 -88q-9 -12 -21.5 -20t-32.5 -8h-33z" />
    <glyph glyph-name="Ydieresis" unicode="&#x178;" horiz-adv-x="503" 
d="M148 636q13 -45 40 -103.5t63 -121.5q37 63 63.5 121.5t39.5 103.5q7 21 22 32.5t34 11.5h44q28 0 37.5 -17.5t4.5 -40.5q-9 -32 -26 -73.5t-40 -87.5t-51 -93.5t-60 -92.5v-224q0 -22 -14.5 -36.5t-36.5 -14.5h-33q-23 0 -37.5 14.5t-14.5 36.5v224q-32 45 -60 92.5
t-51 93.5t-39.5 87.5t-25.5 73.5q-5 23 4 40.5t37 17.5h44q20 0 35 -11.5t21 -32.5zM205 826q0 -21 -14 -35t-35 -14h-24q-22 0 -36 14t-14 35v37q0 21 14 35.5t36 14.5h24q21 0 35 -14.5t14 -35.5v-37zM421 826q0 -21 -14.5 -35t-35.5 -14h-24q-22 0 -36 14t-14 35v37
q0 21 14 35.5t36 14.5h24q21 0 35.5 -14.5t14.5 -35.5v-37z" />
    <glyph glyph-name="agrave" unicode="&#xe0;" 
d="M247 99q54 0 72 54q5 14 7 34t2 53t-2 53t-7 34q-18 53 -72 53q-53 0 -71 -53q-4 -17 -6 -37.5t-2 -49.5t2 -50t6 -37q19 -54 71 -54zM342 44q-16 -29 -45 -41.5t-68 -12.5q-68 0 -114 29.5t-65 89.5q-9 30 -13 59.5t-4 71.5q0 41 4 70.5t13 59.5q19 60 65 89.5t114 29.5
q35 0 61 -13t37 -39q0 18 15 30t37 12h30q22 0 37 -12t15 -30v-264l13 -129q2 -17 -14 -30.5t-37 -13.5h-25q-8 0 -18 2.5t-18.5 7.5t-14 13.5t-5.5 20.5zM229 557q-20 0 -32.5 8t-21.5 20l-66 88q-20 29 -7.5 46.5t37.5 17.5h46q19 0 31.5 -8t21.5 -22l55 -90
q13 -21 8 -40.5t-39 -19.5h-33z" />
    <glyph glyph-name="aacute" unicode="&#xe1;" 
d="M247 99q54 0 72 54q5 14 7 34t2 53t-2 53t-7 34q-18 53 -72 53q-53 0 -71 -53q-4 -17 -6 -37.5t-2 -49.5t2 -50t6 -37q19 -54 71 -54zM342 44q-16 -29 -45 -41.5t-68 -12.5q-68 0 -114 29.5t-65 89.5q-9 30 -13 59.5t-4 71.5q0 41 4 70.5t13 59.5q19 60 65 89.5t114 29.5
q35 0 61 -13t37 -39q0 18 15 30t37 12h30q22 0 37 -12t15 -30v-264l13 -129q2 -17 -14 -30.5t-37 -13.5h-25q-8 0 -18 2.5t-18.5 7.5t-14 13.5t-5.5 20.5zM235 557q-17 0 -26.5 5.5t-12.5 14t-0.5 19t8.5 21.5l55 90q9 14 21.5 22t31.5 8h46q25 0 37.5 -17.5t-7.5 -46.5
l-66 -88q-9 -12 -21.5 -20t-32.5 -8h-33z" />
    <glyph glyph-name="acircumflex" unicode="&#xe2;" 
d="M247 99q54 0 72 54q5 14 7 34t2 53t-2 53t-7 34q-18 53 -72 53q-53 0 -71 -53q-4 -17 -6 -37.5t-2 -49.5t2 -50t6 -37q19 -54 71 -54zM342 44q-16 -29 -45 -41.5t-68 -12.5q-68 0 -114 29.5t-65 89.5q-9 30 -13 59.5t-4 71.5q0 41 4 70.5t13 59.5q19 60 65 89.5t114 29.5
q35 0 61 -13t37 -39q0 18 15 30t37 12h30q22 0 37 -12t15 -30v-264l13 -129q2 -17 -14 -30.5t-37 -13.5h-25q-8 0 -18 2.5t-18.5 7.5t-14 13.5t-5.5 20.5zM169 557q-18 0 -27.5 5.5t-12.5 14.5t-0.5 19.5t9.5 20.5l64 91q11 14 23.5 21.5t29.5 7.5h41q30 0 51 -29l66 -91
q7 -10 9.5 -20.5t-0.5 -19.5t-13 -14.5t-27 -5.5h-33q-20 0 -32.5 8t-21.5 20l-20 27l-19 -27q-9 -13 -22 -20.5t-33 -7.5h-32z" />
    <glyph glyph-name="atilde" unicode="&#xe3;" 
d="M247 99q54 0 72 54q5 14 7 34t2 53t-2 53t-7 34q-18 53 -72 53q-53 0 -71 -53q-4 -17 -6 -37.5t-2 -49.5t2 -50t6 -37q19 -54 71 -54zM342 44q-16 -29 -45 -41.5t-68 -12.5q-68 0 -114 29.5t-65 89.5q-9 30 -13 59.5t-4 71.5q0 41 4 70.5t13 59.5q19 60 65 89.5t114 29.5
q35 0 61 -13t37 -39q0 18 15 30t37 12h30q22 0 37 -12t15 -30v-264l13 -129q2 -17 -14 -30.5t-37 -13.5h-25q-8 0 -18 2.5t-18.5 7.5t-14 13.5t-5.5 20.5zM216 611q-9 0 -17.5 -4.5t-15.5 -11.5q-9 -8 -19 -11t-18.5 -0.5t-14 11t-5.5 23.5v35q0 10 2.5 16.5t11.5 17.5
q16 16 36 26.5t44 10.5q19 0 37 -7t32 -15q8 -5 17 -8.5t17 -3.5t16.5 4.5t16.5 12.5t18 11t18.5 0t14 -11.5t5.5 -23.5v-36q0 -10 -2 -17t-11 -18q-15 -15 -35 -25.5t-45 -10.5q-19 0 -36.5 7t-32.5 15q-9 5 -17.5 9t-16.5 4z" />
    <glyph glyph-name="adieresis" unicode="&#xe4;" 
d="M247 99q54 0 72 54q5 14 7 34t2 53t-2 53t-7 34q-18 53 -72 53q-53 0 -71 -53q-4 -17 -6 -37.5t-2 -49.5t2 -50t6 -37q19 -54 71 -54zM342 44q-16 -29 -45 -41.5t-68 -12.5q-68 0 -114 29.5t-65 89.5q-9 30 -13 59.5t-4 71.5q0 41 4 70.5t13 59.5q19 60 65 89.5t114 29.5
q35 0 61 -13t37 -39q0 18 15 30t37 12h30q22 0 37 -12t15 -30v-264l13 -129q2 -17 -14 -30.5t-37 -13.5h-25q-8 0 -18 2.5t-18.5 7.5t-14 13.5t-5.5 20.5zM228 636q0 -21 -14 -35t-35 -14h-24q-22 0 -36 14t-14 35v37q0 21 14 35.5t36 14.5h24q21 0 35 -14.5t14 -35.5v-37z
M444 636q0 -21 -14.5 -35t-35.5 -14h-24q-22 0 -36 14t-14 35v37q0 21 14 35.5t36 14.5h24q21 0 35.5 -14.5t14.5 -35.5v-37z" />
    <glyph glyph-name="aring" unicode="&#xe5;" 
d="M264 535q-24 0 -45 8.5t-36.5 24t-24.5 36.5t-9 45t9 45t24.5 36.5t36.5 24t45 8.5t45 -8.5t36.5 -24t24.5 -36.5t9 -45t-9 -45t-24.5 -36.5t-36.5 -24t-45 -8.5zM264 616q14 0 22.5 9.5t8.5 23.5t-8.5 23.5t-22.5 9.5t-22.5 -9.5t-8.5 -23.5t8.5 -23.5t22.5 -9.5z
M247 99q54 0 72 54q5 14 7 34t2 53t-2 53t-7 34q-18 53 -72 53q-53 0 -71 -53q-4 -17 -6 -37.5t-2 -49.5t2 -50t6 -37q19 -54 71 -54zM342 44q-16 -29 -45 -41.5t-68 -12.5q-68 0 -114 29.5t-65 89.5q-9 30 -13 59.5t-4 71.5q0 41 4 70.5t13 59.5q19 60 65 89.5t114 29.5
q35 0 61 -13t37 -39q0 18 15 30t37 12h30q22 0 37 -12t15 -30v-264l13 -129q2 -17 -14 -30.5t-37 -13.5h-25q-8 0 -18 2.5t-18.5 7.5t-14 13.5t-5.5 20.5z" />
    <glyph glyph-name="egrave" unicode="&#xe8;" horiz-adv-x="496" 
d="M172 328q-2 -7 -3 -14.5t-1 -17.5h160q0 20 -4 32q-9 26 -29.5 41t-46.5 15t-46.5 -15t-29.5 -41zM463 240q0 -19 -14.5 -30.5t-37.5 -11.5h-243q0 -20 5 -35q11 -32 33.5 -48t52.5 -16q27 0 48 10t37 24q37 34 71 3l17 -16q14 -13 14.5 -29.5t-11.5 -30.5
q-29 -31 -74.5 -50.5t-107.5 -19.5q-78 0 -131 35t-73 98q-8 23 -12 50.5t-4 66.5t4 67t12 51l-1 -1q21 64 73.5 98t126.5 34t126.5 -34.5t72.5 -97.5q8 -23 11.5 -49t4.5 -68zM229 557q-20 0 -32.5 8t-21.5 20l-66 88q-20 29 -7.5 46.5t37.5 17.5h46q19 0 31.5 -8t21.5 -22
l55 -90q13 -21 8 -40.5t-39 -19.5h-33z" />
    <glyph glyph-name="eacute" unicode="&#xe9;" horiz-adv-x="496" 
d="M172 328q-2 -7 -3 -14.5t-1 -17.5h160q0 20 -4 32q-9 26 -29.5 41t-46.5 15t-46.5 -15t-29.5 -41zM463 240q0 -19 -14.5 -30.5t-37.5 -11.5h-243q0 -20 5 -35q11 -32 33.5 -48t52.5 -16q27 0 48 10t37 24q37 34 71 3l17 -16q14 -13 14.5 -29.5t-11.5 -30.5
q-29 -31 -74.5 -50.5t-107.5 -19.5q-78 0 -131 35t-73 98q-8 23 -12 50.5t-4 66.5t4 67t12 51l-1 -1q21 64 73.5 98t126.5 34t126.5 -34.5t72.5 -97.5q8 -23 11.5 -49t4.5 -68zM237 557q-17 0 -26.5 5.5t-12.5 14t-0.5 19t8.5 21.5l55 90q9 14 21.5 22t31.5 8h46
q25 0 37.5 -17.5t-7.5 -46.5l-66 -88q-9 -12 -21.5 -20t-32.5 -8h-33z" />
    <glyph glyph-name="ecircumflex" unicode="&#xea;" horiz-adv-x="496" 
d="M172 328q-2 -7 -3 -14.5t-1 -17.5h160q0 20 -4 32q-9 26 -29.5 41t-46.5 15t-46.5 -15t-29.5 -41zM463 240q0 -19 -14.5 -30.5t-37.5 -11.5h-243q0 -20 5 -35q11 -32 33.5 -48t52.5 -16q27 0 48 10t37 24q37 34 71 3l17 -16q14 -13 14.5 -29.5t-11.5 -30.5
q-29 -31 -74.5 -50.5t-107.5 -19.5q-78 0 -131 35t-73 98q-8 23 -12 50.5t-4 66.5t4 67t12 51l-1 -1q21 64 73.5 98t126.5 34t126.5 -34.5t72.5 -97.5q8 -23 11.5 -49t4.5 -68zM145 557q-18 0 -27.5 5.5t-12.5 14.5t-0.5 19.5t9.5 20.5l64 91q11 14 23.5 21.5t29.5 7.5h41
q30 0 51 -29l66 -91q7 -10 9.5 -20.5t-0.5 -19.5t-13 -14.5t-27 -5.5h-33q-20 0 -32.5 8t-21.5 20l-20 27l-19 -27q-9 -13 -22 -20.5t-33 -7.5h-32z" />
    <glyph glyph-name="edieresis" unicode="&#xeb;" horiz-adv-x="496" 
d="M172 328q-2 -7 -3 -14.5t-1 -17.5h160q0 20 -4 32q-9 26 -29.5 41t-46.5 15t-46.5 -15t-29.5 -41zM463 240q0 -19 -14.5 -30.5t-37.5 -11.5h-243q0 -20 5 -35q11 -32 33.5 -48t52.5 -16q27 0 48 10t37 24q37 34 71 3l17 -16q14 -13 14.5 -29.5t-11.5 -30.5
q-29 -31 -74.5 -50.5t-107.5 -19.5q-78 0 -131 35t-73 98q-8 23 -12 50.5t-4 66.5t4 67t12 51l-1 -1q21 64 73.5 98t126.5 34t126.5 -34.5t72.5 -97.5q8 -23 11.5 -49t4.5 -68zM204 636q0 -21 -14 -35t-35 -14h-24q-22 0 -36 14t-14 35v37q0 21 14 35.5t36 14.5h24
q21 0 35 -14.5t14 -35.5v-37zM420 636q0 -21 -14.5 -35t-35.5 -14h-24q-22 0 -36 14t-14 35v37q0 21 14 35.5t36 14.5h24q21 0 35.5 -14.5t14.5 -35.5v-37z" />
    <glyph glyph-name="igrave" unicode="&#xec;" horiz-adv-x="269" 
d="M207 42q0 -18 -14.5 -30t-37.5 -12h-29q-23 0 -37.5 12t-14.5 30v328h-1q-22 0 -37 12t-15 31v24q0 18 15 30t37 12h82q23 0 37.5 -12t14.5 -30v-395zM110 557q-20 0 -32.5 8t-21.5 20l-66 88q-20 29 -7.5 46.5t37.5 17.5h46q19 0 31.5 -8t21.5 -22l55 -90
q13 -21 8 -40.5t-39 -19.5h-33z" />
    <glyph glyph-name="iacute" unicode="&#xed;" horiz-adv-x="269" 
d="M207 42q0 -18 -14.5 -30t-37.5 -12h-29q-23 0 -37.5 12t-14.5 30v328h-1q-22 0 -37 12t-15 31v24q0 18 15 30t37 12h82q23 0 37.5 -12t14.5 -30v-395zM127 557q-17 0 -26.5 5.5t-12.5 14t-0.5 19t8.5 21.5l55 90q9 14 21.5 22t31.5 8h46q25 0 37.5 -17.5t-7.5 -46.5
l-66 -88q-9 -12 -21.5 -20t-32.5 -8h-33z" />
    <glyph glyph-name="icircumflex" unicode="&#xee;" horiz-adv-x="269" 
d="M207 42q0 -18 -14.5 -30t-37.5 -12h-29q-23 0 -37.5 12t-14.5 30v328h-1q-22 0 -37 12t-15 31v24q0 18 15 30t37 12h82q23 0 37.5 -12t14.5 -30v-395zM24 557q-18 0 -27.5 5.5t-12.5 14.5t-0.5 19.5t9.5 20.5l64 91q11 14 23.5 21.5t29.5 7.5h41q30 0 51 -29l66 -91
q7 -10 9.5 -20.5t-0.5 -19.5t-13 -14.5t-27 -5.5h-33q-20 0 -32.5 8t-21.5 20l-20 27l-19 -27q-9 -13 -22 -20.5t-33 -7.5h-32z" />
    <glyph glyph-name="idieresis" unicode="&#xef;" horiz-adv-x="269" 
d="M207 42q0 -18 -14.5 -30t-37.5 -12h-29q-23 0 -37.5 12t-14.5 30v328h-1q-22 0 -37 12t-15 31v24q0 18 15 30t37 12h82q23 0 37.5 -12t14.5 -30v-395zM83 636q0 -21 -14 -35t-35 -14h-24q-22 0 -36 14t-14 35v37q0 21 14 35.5t36 14.5h24q21 0 35 -14.5t14 -35.5v-37z
M299 636q0 -21 -14.5 -35t-35.5 -14h-24q-22 0 -36 14t-14 35v37q0 21 14 35.5t36 14.5h24q21 0 35.5 -14.5t14.5 -35.5v-37z" />
    <glyph glyph-name="ntilde" unicode="&#xf1;" horiz-adv-x="530" 
d="M62 306l-20 129q-2 17 9.5 30.5t32.5 13.5h39q17 0 31 -8t25 -36q42 54 118 54q85 0 130.5 -50t45.5 -134v-263q0 -18 -14.5 -30t-37.5 -12h-29q-23 0 -37.5 12t-14.5 30v244q0 45 -17.5 69.5t-53.5 24.5q-32 0 -53 -24t-21 -65v-249q0 -18 -14.5 -30t-37.5 -12h-29
q-23 0 -37.5 12t-14.5 30v264zM203 611q-9 0 -17.5 -4.5t-15.5 -11.5q-9 -8 -19 -11t-18.5 -0.5t-14 11t-5.5 23.5v35q0 10 2.5 16.5t11.5 17.5q16 16 36 26.5t44 10.5q19 0 37 -7t32 -15q8 -5 17 -8.5t17 -3.5t16.5 4.5t16.5 12.5t18 11t18.5 0t14 -11.5t5.5 -23.5v-36
q0 -10 -2 -17t-11 -18q-15 -15 -35 -25.5t-45 -10.5q-19 0 -36.5 7t-32.5 15q-9 5 -17.5 9t-16.5 4z" />
    <glyph glyph-name="ograve" unicode="&#xf2;" horiz-adv-x="500" 
d="M250 -10q-75 0 -128 34.5t-73 97.5q-8 26 -12 52.5t-4 65.5q0 38 4 64.5t12 52.5q20 63 72.5 97.5t128.5 34.5t128.5 -34.5t72.5 -97.5q8 -26 12 -52.5t4 -64.5q0 -39 -4 -65.5t-12 -52.5q-20 -63 -73 -97.5t-128 -34.5zM250 99q26 0 46 14.5t28 41.5q5 16 6.5 34.5
t1.5 50.5q0 31 -1.5 49t-6.5 35q-8 28 -28 42t-46 14t-46 -14.5t-28 -41.5q-5 -16 -6.5 -34.5t-1.5 -49.5q0 -32 1.5 -50.5t6.5 -34.5q8 -27 28 -41.5t46 -14.5zM229 557q-20 0 -32.5 8t-21.5 20l-66 88q-20 29 -7.5 46.5t37.5 17.5h46q19 0 31.5 -8t21.5 -22l55 -90
q13 -21 8 -40.5t-39 -19.5h-33z" />
    <glyph glyph-name="oacute" unicode="&#xf3;" horiz-adv-x="500" 
d="M250 -10q-75 0 -128 34.5t-73 97.5q-8 26 -12 52.5t-4 65.5q0 38 4 64.5t12 52.5q20 63 72.5 97.5t128.5 34.5t128.5 -34.5t72.5 -97.5q8 -26 12 -52.5t4 -64.5q0 -39 -4 -65.5t-12 -52.5q-20 -63 -73 -97.5t-128 -34.5zM250 99q26 0 46 14.5t28 41.5q5 16 6.5 34.5
t1.5 50.5q0 31 -1.5 49t-6.5 35q-8 28 -28 42t-46 14t-46 -14.5t-28 -41.5q-5 -16 -6.5 -34.5t-1.5 -49.5q0 -32 1.5 -50.5t6.5 -34.5q8 -27 28 -41.5t46 -14.5zM236 557q-17 0 -26.5 5.5t-12.5 14t-0.5 19t8.5 21.5l55 90q9 14 21.5 22t31.5 8h46q25 0 37.5 -17.5
t-7.5 -46.5l-66 -88q-9 -12 -21.5 -20t-32.5 -8h-33z" />
    <glyph glyph-name="ocircumflex" unicode="&#xf4;" horiz-adv-x="500" 
d="M250 -10q-75 0 -128 34.5t-73 97.5q-8 26 -12 52.5t-4 65.5q0 38 4 64.5t12 52.5q20 63 72.5 97.5t128.5 34.5t128.5 -34.5t72.5 -97.5q8 -26 12 -52.5t4 -64.5q0 -39 -4 -65.5t-12 -52.5q-20 -63 -73 -97.5t-128 -34.5zM250 99q26 0 46 14.5t28 41.5q5 16 6.5 34.5
t1.5 50.5q0 31 -1.5 49t-6.5 35q-8 28 -28 42t-46 14t-46 -14.5t-28 -41.5q-5 -16 -6.5 -34.5t-1.5 -49.5q0 -32 1.5 -50.5t6.5 -34.5q8 -27 28 -41.5t46 -14.5zM144 557q-18 0 -27.5 5.5t-12.5 14.5t-0.5 19.5t9.5 20.5l64 91q11 14 23.5 21.5t29.5 7.5h41q30 0 51 -29
l66 -91q7 -10 9.5 -20.5t-0.5 -19.5t-13 -14.5t-27 -5.5h-33q-20 0 -32.5 8t-21.5 20l-20 27l-19 -27q-9 -13 -22 -20.5t-33 -7.5h-32z" />
    <glyph glyph-name="otilde" unicode="&#xf5;" horiz-adv-x="500" 
d="M250 -10q-75 0 -128 34.5t-73 97.5q-8 26 -12 52.5t-4 65.5q0 38 4 64.5t12 52.5q20 63 72.5 97.5t128.5 34.5t128.5 -34.5t72.5 -97.5q8 -26 12 -52.5t4 -64.5q0 -39 -4 -65.5t-12 -52.5q-20 -63 -73 -97.5t-128 -34.5zM250 99q26 0 46 14.5t28 41.5q5 16 6.5 34.5
t1.5 50.5q0 31 -1.5 49t-6.5 35q-8 28 -28 42t-46 14t-46 -14.5t-28 -41.5q-5 -16 -6.5 -34.5t-1.5 -49.5q0 -32 1.5 -50.5t6.5 -34.5q8 -27 28 -41.5t46 -14.5zM198 611q-9 0 -17.5 -4.5t-15.5 -11.5q-9 -8 -19 -11t-18.5 -0.5t-14 11t-5.5 23.5v35q0 10 2.5 16.5
t11.5 17.5q16 16 36 26.5t44 10.5q19 0 37 -7t32 -15q8 -5 17 -8.5t17 -3.5t16.5 4.5t16.5 12.5t18 11t18.5 0t14 -11.5t5.5 -23.5v-36q0 -10 -2 -17t-11 -18q-15 -15 -35 -25.5t-45 -10.5q-19 0 -36.5 7t-32.5 15q-9 5 -17.5 9t-16.5 4z" />
    <glyph glyph-name="odieresis" unicode="&#xf6;" horiz-adv-x="500" 
d="M250 -10q-75 0 -128 34.5t-73 97.5q-8 26 -12 52.5t-4 65.5q0 38 4 64.5t12 52.5q20 63 72.5 97.5t128.5 34.5t128.5 -34.5t72.5 -97.5q8 -26 12 -52.5t4 -64.5q0 -39 -4 -65.5t-12 -52.5q-20 -63 -73 -97.5t-128 -34.5zM250 99q26 0 46 14.5t28 41.5q5 16 6.5 34.5
t1.5 50.5q0 31 -1.5 49t-6.5 35q-8 28 -28 42t-46 14t-46 -14.5t-28 -41.5q-5 -16 -6.5 -34.5t-1.5 -49.5q0 -32 1.5 -50.5t6.5 -34.5q8 -27 28 -41.5t46 -14.5zM204 636q0 -21 -14 -35t-35 -14h-24q-22 0 -36 14t-14 35v37q0 21 14 35.5t36 14.5h24q21 0 35 -14.5t14 -35.5
v-37zM420 636q0 -21 -14.5 -35t-35.5 -14h-24q-22 0 -36 14t-14 35v37q0 21 14 35.5t36 14.5h24q21 0 35.5 -14.5t14.5 -35.5v-37z" />
    <glyph glyph-name="scaron" unicode="&#x161;" horiz-adv-x="471" 
d="M49 50q-16 12 -17 29.5t11 31.5l16 18q13 15 33 16.5t38 -10.5q23 -17 52 -28t58 -11q35 0 52 13.5t17 35.5q0 19 -12 29t-49 14q-11 1 -23.5 2.5t-23.5 2.5q-78 8 -117.5 44.5t-39.5 98.5q0 72 50.5 112.5t141.5 40.5q49 0 89.5 -12t71.5 -32q17 -11 18 -29t-10 -32
l-14 -18q-13 -17 -31 -16.5t-36 9.5q-20 11 -44.5 18.5t-47.5 7.5q-28 0 -42 -12t-14 -31q0 -18 13 -28t48 -13q11 -1 23 -2.5t23 -2.5q81 -8 119.5 -45t38.5 -98q0 -74 -52.5 -118.5t-152.5 -44.5q-65 0 -111 18.5t-76 41.5zM163 735q20 0 33 -7.5t22 -20.5l19 -27l20 27
q9 12 21.5 20t32.5 8h33q17 0 27 -5.5t13 -14.5t0.5 -19.5t-9.5 -20.5l-66 -91q-21 -29 -51 -29h-41q-17 0 -29.5 7.5t-23.5 21.5l-64 91q-7 10 -9.5 20.5t0.5 19.5t12.5 14.5t27.5 5.5h32z" />
    <glyph glyph-name="ugrave" unicode="&#xf9;" horiz-adv-x="523" 
d="M463 173l13 -129q2 -17 -14 -30.5t-37 -13.5h-25q-8 0 -18 2.5t-18.5 7.5t-14 13.5t-5.5 20.5q-16 -29 -44.5 -41.5t-63.5 -12.5q-86 0 -133.5 50.5t-47.5 134.5v262q0 18 14.5 30t37.5 12h29q23 0 37.5 -12t14.5 -30v-243q0 -45 17.5 -70t52.5 -25q32 0 52 24t20 66v248
q0 18 14.5 30t37.5 12h29q23 0 37.5 -12t14.5 -30v-264zM259 557q-20 0 -32.5 8t-21.5 20l-66 88q-20 29 -7.5 46.5t37.5 17.5h46q19 0 31.5 -8t21.5 -22l55 -90q13 -21 8 -40.5t-39 -19.5h-33z" />
    <glyph glyph-name="uacute" unicode="&#xfa;" horiz-adv-x="523" 
d="M463 173l13 -129q2 -17 -14 -30.5t-37 -13.5h-25q-8 0 -18 2.5t-18.5 7.5t-14 13.5t-5.5 20.5q-16 -29 -44.5 -41.5t-63.5 -12.5q-86 0 -133.5 50.5t-47.5 134.5v262q0 18 14.5 30t37.5 12h29q23 0 37.5 -12t14.5 -30v-243q0 -45 17.5 -70t52.5 -25q32 0 52 24t20 66v248
q0 18 14.5 30t37.5 12h29q23 0 37.5 -12t14.5 -30v-264zM239 557q-17 0 -26.5 5.5t-12.5 14t-0.5 19t8.5 21.5l55 90q9 14 21.5 22t31.5 8h46q25 0 37.5 -17.5t-7.5 -46.5l-66 -88q-9 -12 -21.5 -20t-32.5 -8h-33z" />
    <glyph glyph-name="ucircumflex" unicode="&#xfb;" horiz-adv-x="523" 
d="M463 173l13 -129q2 -17 -14 -30.5t-37 -13.5h-25q-8 0 -18 2.5t-18.5 7.5t-14 13.5t-5.5 20.5q-16 -29 -44.5 -41.5t-63.5 -12.5q-86 0 -133.5 50.5t-47.5 134.5v262q0 18 14.5 30t37.5 12h29q23 0 37.5 -12t14.5 -30v-243q0 -45 17.5 -70t52.5 -25q32 0 52 24t20 66v248
q0 18 14.5 30t37.5 12h29q23 0 37.5 -12t14.5 -30v-264zM155 557q-18 0 -27.5 5.5t-12.5 14.5t-0.5 19.5t9.5 20.5l64 91q11 14 23.5 21.5t29.5 7.5h41q30 0 51 -29l66 -91q7 -10 9.5 -20.5t-0.5 -19.5t-13 -14.5t-27 -5.5h-33q-20 0 -32.5 8t-21.5 20l-20 27l-19 -27
q-9 -13 -22 -20.5t-33 -7.5h-32z" />
    <glyph glyph-name="udieresis" unicode="&#xfc;" horiz-adv-x="523" 
d="M463 173l13 -129q2 -17 -14 -30.5t-37 -13.5h-25q-8 0 -18 2.5t-18.5 7.5t-14 13.5t-5.5 20.5q-16 -29 -44.5 -41.5t-63.5 -12.5q-86 0 -133.5 50.5t-47.5 134.5v262q0 18 14.5 30t37.5 12h29q23 0 37.5 -12t14.5 -30v-243q0 -45 17.5 -70t52.5 -25q32 0 52 24t20 66v248
q0 18 14.5 30t37.5 12h29q23 0 37.5 -12t14.5 -30v-264zM217 636q0 -21 -14 -35t-35 -14h-24q-22 0 -36 14t-14 35v37q0 21 14 35.5t36 14.5h24q21 0 35 -14.5t14 -35.5v-37zM433 636q0 -21 -14.5 -35t-35.5 -14h-24q-22 0 -36 14t-14 35v37q0 21 14 35.5t36 14.5h24
q21 0 35.5 -14.5t14.5 -35.5v-37z" />
    <glyph glyph-name="yacute" unicode="&#xfd;" horiz-adv-x="459" 
d="M103 -166q-22 0 -36.5 11.5t-14.5 30.5v24q0 19 14.5 31t38.5 12q15 0 25.5 11.5t23.5 42.5q4 10 6.5 17t6.5 17l-155 399q-8 20 3.5 34.5t37.5 14.5h37q20 0 36 -11t21 -25l86 -231l81 231q5 14 20.5 25t35.5 11h35q26 0 38 -14.5t4 -34.5l-169 -452q-16 -41 -32 -69
t-35.5 -44.5t-43.5 -23.5t-54 -7h-10zM211 557q-17 0 -26.5 5.5t-12.5 14t-0.5 19t8.5 21.5l55 90q9 14 21.5 22t31.5 8h46q25 0 37.5 -17.5t-7.5 -46.5l-66 -88q-9 -12 -21.5 -20t-32.5 -8h-33z" />
    <glyph glyph-name="ydieresis" unicode="&#xff;" horiz-adv-x="459" 
d="M103 -166q-22 0 -36.5 11.5t-14.5 30.5v24q0 19 14.5 31t38.5 12q15 0 25.5 11.5t23.5 42.5q4 10 6.5 17t6.5 17l-155 399q-8 20 3.5 34.5t37.5 14.5h37q20 0 36 -11t21 -25l86 -231l81 231q5 14 20.5 25t35.5 11h35q26 0 38 -14.5t4 -34.5l-169 -452q-16 -41 -32 -69
t-35.5 -44.5t-43.5 -23.5t-54 -7h-10zM187 636q0 -21 -14 -35t-35 -14h-24q-22 0 -36 14t-14 35v37q0 21 14 35.5t36 14.5h24q21 0 35 -14.5t14 -35.5v-37zM403 636q0 -21 -14.5 -35t-35.5 -14h-24q-22 0 -36 14t-14 35v37q0 21 14 35.5t36 14.5h24q21 0 35.5 -14.5
t14.5 -35.5v-37z" />
    <glyph glyph-name="caron" unicode="&#x2c7;" horiz-adv-x="421" 
d="M137 735q20 0 33 -7.5t22 -20.5l19 -27l20 27q9 12 21.5 20t32.5 8h33q17 0 27 -5.5t13 -14.5t0.5 -19.5t-9.5 -20.5l-66 -91q-21 -29 -51 -29h-41q-17 0 -29.5 7.5t-23.5 21.5l-64 91q-7 10 -9.5 20.5t0.5 19.5t12.5 14.5t27.5 5.5h32z" />
    <glyph glyph-name="quoteleft" unicode="&#x2018;" horiz-adv-x="215" 
d="M77 473q-18 0 -29 11t-11 29v83q0 14 4 22t12 20l51 56q15 18 35 18t29.5 -11t9.5 -29v-159q0 -18 -11 -29t-29 -11h-61z" />
    <glyph glyph-name="quoteright" unicode="&#x2019;" horiz-adv-x="215" 
d="M76 471q-17 0 -28 11t-11 29v159q0 18 11 29t29 11h61q18 0 29 -11t11 -29v-83q0 -12 -2.5 -20t-12.5 -22l-50 -55q-16 -19 -37 -19z" />
    <glyph glyph-name="quotedblleft" unicode="&#x201c;" horiz-adv-x="472" 
d="M304 473q-18 0 -29 11t-11 29v83q0 12 2.5 20t12.5 22l50 55q16 19 37 19q17 0 28 -11t11 -29v-159q0 -18 -11 -29t-29 -11h-61zM107 473q-18 0 -29 11t-11 29v83q0 14 4 22t12 20l50 55q16 19 36 19t29.5 -11t9.5 -29v-159q0 -18 -11 -29t-29 -11h-61z" />
    <glyph glyph-name="quotedblright" unicode="&#x201d;" horiz-adv-x="472" 
d="M303 471q-20 0 -29.5 11t-9.5 29v159q0 18 11 29t29 11h61q18 0 29 -11t11 -29v-83q0 -14 -4 -22t-12 -20l-50 -55q-16 -19 -36 -19zM106 471q-17 0 -28 11t-11 29v159q0 18 11 29t29 11h61q18 0 29 -11t11 -29v-83q0 -13 -2.5 -21.5t-11.5 -19.5l-49 -54
q-8 -12 -18 -16.5t-21 -4.5z" />
    <glyph glyph-name="bullet" unicode="&#x2022;" horiz-adv-x="442" 
d="M221 150q-34 0 -63 11.5t-50 32.5t-32.5 50t-11.5 64t11.5 64t32.5 50t50 32.5t63 11.5t62.5 -11.5t49.5 -32.5t33 -50t12 -64t-12 -64t-33 -50t-49.5 -32.5t-62.5 -11.5z" />
    <glyph glyph-name="multiply" unicode="&#xd7;" horiz-adv-x="555" 
d="M421 94q-10 -10 -24.5 -9.5t-25.5 9.5q-21 21 -46 45.5t-48 47.5l-93 -93q-12 -11 -26 -11t-25 11l-34 36q-9 11 -9 24.5t10 24.5l93 93l-93 93q-10 11 -10 24.5t9 24.5q8 8 17 17.5t17 17.5q11 11 25.5 11.5t25.5 -10.5l93 -94l94 94q10 10 24.5 10t25.5 -11l34 -35
q9 -11 9 -24.5t-10 -24.5l-94 -93l94 -93q11 -11 11 -25t-11 -25h1z" />
    <glyph glyph-name="divide" unicode="&#xf7;" horiz-adv-x="548" 
d="M197 436q0 32 22.5 54t54.5 22t54 -22t22 -54t-22 -54.5t-54 -22.5t-54.5 22.5t-22.5 54.5zM96 212q-16 0 -25.5 10t-9.5 26v48q0 16 9.5 25.5t25.5 9.5h356q16 0 25.5 -9.5t9.5 -25.5v-48q0 -16 -9.5 -26t-25.5 -10h-356zM197 108q0 32 22.5 54t54.5 22t54 -22t22 -54
t-22 -54t-54 -22t-54.5 22t-22.5 54z" />
    <glyph glyph-name="degree" unicode="&#xb0;" horiz-adv-x="456" 
d="M228 367q-38 0 -70 13.5t-55.5 37t-37 55.5t-13.5 70q0 37 13.5 69.5t37 56t55.5 37t70 13.5t70 -13.5t55.5 -37t37 -56t13.5 -69.5q0 -38 -13.5 -70t-37 -55.5t-55.5 -37t-70 -13.5zM228 479q27 0 44 18t17 46t-17 46t-44 18t-44 -18t-17 -46t17 -46t44 -18z" />
    <glyph glyph-name="A" unicode="A" horiz-adv-x="578" 
d="M381 276q-16 69 -43.5 128.5t-49.5 99.5q-23 -40 -50 -99.5t-42 -128.5h185zM358 643q26 -40 55 -92t53.5 -112t40.5 -125.5t16 -132.5v-130q0 -22 -14.5 -36.5t-36.5 -14.5h-29q-22 0 -36.5 14.5t-14.5 36.5v94h-207v-94q0 -22 -14.5 -36.5t-37.5 -14.5h-28
q-22 0 -36.5 14.5t-14.5 36.5v130q0 67 16 132.5t41 125.5t53.5 112t54.5 92q10 15 21.5 26t32.5 11h30q21 0 33 -11t22 -26z" />
    <glyph glyph-name="B" unicode="B" horiz-adv-x="581" 
d="M200 550v-140h120q38 0 60 19t22 51t-22 51t-60 19h-120zM200 280v-150h124q43 0 65.5 20t22.5 55q0 34 -22.5 54.5t-65.5 20.5h-124zM115 0q-22 0 -36.5 14.5t-14.5 36.5v578q0 22 14.5 36.5t36.5 14.5h207q109 0 162.5 -52t53.5 -140q0 -44 -16 -79t-39 -57
q26 -22 46 -58.5t20 -87.5q0 -102 -60 -154t-172 -52h-202z" />
    <glyph glyph-name="C" unicode="C" horiz-adv-x="544" 
d="M510 117q-32 -61 -88 -94t-130 -33q-87 0 -147.5 41t-86.5 125q-5 15 -8 30.5t-5.5 36.5t-3.5 49t-1 68t1 68t3.5 49t5.5 36.5t8 30.5q26 84 86.5 125t147.5 41q74 0 130 -33t88 -94q10 -19 3.5 -40t-26.5 -30l-29 -13q-19 -8 -38.5 -3t-30.5 26q-13 25 -37 40.5
t-60 15.5q-41 0 -66.5 -19t-36.5 -54q-3 -9 -5 -19.5t-3.5 -27t-2 -40.5t-0.5 -59t0.5 -59t2 -40.5t3.5 -27t5 -19.5q11 -35 36.5 -54t66.5 -19q35 0 59 16.5t39 41.5q11 20 30 25t38 -4l29 -14q20 -10 26.5 -30t-3.5 -39z" />
    <glyph glyph-name="D" unicode="D" horiz-adv-x="599" 
d="M115 0q-22 0 -36.5 14.5t-14.5 36.5v578q0 22 14.5 36.5t36.5 14.5h196q86 0 145.5 -41t85.5 -112q4 -13 7 -28.5t5 -37.5t3.5 -51.5t1.5 -69.5q0 -41 -1.5 -70.5t-3.5 -51t-5 -37t-7 -28.5q-26 -71 -85.5 -112t-145.5 -41h-196zM201 549v-418h92q48 0 77 16t40 51
q3 7 5 17t3.5 25.5t2 39.5t0.5 60t-0.5 59.5t-2 39.5t-3.5 25.5t-5 17.5q-11 35 -40 51t-77 16h-92z" />
    <glyph glyph-name="E" unicode="E" horiz-adv-x="543" 
d="M115 0q-22 0 -36.5 14.5t-14.5 36.5v578q0 22 14.5 36.5t36.5 14.5h347q22 0 36.5 -14.5t14.5 -36.5v-29q0 -22 -14.5 -36.5t-36.5 -14.5h-261v-140h216q22 0 36.5 -14.5t14.5 -37.5v-28q0 -22 -14.5 -36.5t-36.5 -14.5h-216v-147h261q22 0 36.5 -14.5t14.5 -36.5v-29
q0 -22 -14.5 -36.5t-36.5 -14.5h-347z" />
    <glyph glyph-name="F" unicode="F" horiz-adv-x="536" 
d="M115 0q-22 0 -36.5 14.5t-14.5 36.5v578q0 22 14.5 36.5t36.5 14.5h347q22 0 36.5 -14.5t14.5 -36.5v-29q0 -22 -14.5 -36.5t-36.5 -14.5h-261v-147h216q22 0 36.5 -14.5t14.5 -36.5v-28q0 -23 -14.5 -37.5t-36.5 -14.5h-216v-220q0 -22 -14.5 -36.5t-37.5 -14.5h-34z
" />
    <glyph glyph-name="G" unicode="G" horiz-adv-x="594" 
d="M554 303q0 -45 -4.5 -83.5t-12.5 -62.5q-26 -80 -88 -123.5t-151 -43.5t-151.5 41.5t-88.5 123.5q-5 15 -8 30.5t-5.5 36.5t-3.5 49.5t-1 68.5t1 69t3.5 50t5.5 36.5t8 29.5q26 82 88.5 123.5t151.5 41.5q42 0 77.5 -9.5t63.5 -26.5t49 -40t35 -50q11 -20 4.5 -40.5
t-26.5 -29.5l-28 -13q-20 -9 -38 -5t-30 25q-34 58 -107 58q-44 0 -70 -19.5t-39 -55.5q-3 -7 -5 -17.5t-3.5 -27t-2 -40.5t-0.5 -59t0.5 -59.5t2 -41t3.5 -27t5 -17.5q12 -35 38.5 -54.5t70.5 -19.5q38 0 67 18.5t41 52.5q3 12 6 28.5t4 39.5h-84q-22 0 -36.5 14.5
t-14.5 37.5v23q0 23 14.5 37.5t36.5 14.5h170q23 0 37.5 -14.5t14.5 -37.5v-32z" />
    <glyph glyph-name="H" unicode="H" horiz-adv-x="629" 
d="M64 629q0 22 14.5 36.5t36.5 14.5h34q23 0 37.5 -14.5t14.5 -36.5v-220h227v220q0 22 14.5 36.5t36.5 14.5h34q23 0 37.5 -14.5t14.5 -36.5v-578q0 -22 -14.5 -36.5t-37.5 -14.5h-34q-22 0 -36.5 14.5t-14.5 36.5v227h-227v-227q0 -22 -14.5 -36.5t-37.5 -14.5h-34
q-22 0 -36.5 14.5t-14.5 36.5v578z" />
    <glyph glyph-name="I" unicode="I" horiz-adv-x="376" 
d="M275 680q22 0 36.5 -14.5t14.5 -36.5v-29q0 -22 -14.5 -36.5t-36.5 -14.5h-19v-418h19q22 0 36.5 -14.5t14.5 -36.5v-29q0 -22 -14.5 -36.5t-36.5 -14.5h-174q-22 0 -36.5 14.5t-14.5 36.5v29q0 22 14.5 36.5t36.5 14.5h19v418h-19q-22 0 -36.5 14.5t-14.5 36.5v29
q0 22 14.5 36.5t36.5 14.5h174z" />
    <glyph glyph-name="J" unicode="J" horiz-adv-x="476" 
d="M130 144q11 -9 26.5 -16t35.5 -7q42 0 65 26t23 81v401q0 22 14.5 36.5t37.5 14.5h34q22 0 36.5 -14.5t14.5 -36.5v-401q0 -118 -61.5 -178t-166.5 -60q-47 0 -88 17.5t-69 43.5q-15 16 -14 38.5t19 37.5l24 20q34 28 69 -3z" />
    <glyph glyph-name="K" unicode="K" horiz-adv-x="593" 
d="M201 51q0 -22 -14.5 -36.5t-36.5 -14.5h-34q-23 0 -37.5 14.5t-14.5 36.5v578q0 22 14.5 36.5t37.5 14.5h34q22 0 36.5 -14.5t14.5 -36.5v-270q45 22 83.5 52.5t67.5 66t45.5 74t16.5 77.5q0 22 14.5 36.5t37.5 14.5h34q22 0 36.5 -14.5t14.5 -36.5q0 -75 -32 -142
t-83 -121t-113 -94t-122 -62v-159zM252 346q16 19 29 35q11 14 20 26t9 14l45 12l213 -368q15 -26 6 -45.5t-40 -19.5h-44q-22 0 -38.5 12t-24.5 27v-1z" />
    <glyph glyph-name="L" unicode="L" horiz-adv-x="518" 
d="M64 629q0 22 14.5 36.5t36.5 14.5h34q23 0 37.5 -14.5t14.5 -36.5v-498h261q22 0 36.5 -14.5t14.5 -36.5v-29q0 -22 -14.5 -36.5t-36.5 -14.5h-347q-22 0 -36.5 14.5t-14.5 36.5v578z" />
    <glyph glyph-name="M" unicode="M" horiz-adv-x="722" 
d="M361 411q42 38 83 76t83 76v66q0 22 14.5 36.5t36.5 14.5h29q22 0 36.5 -14.5t14.5 -36.5v-578q0 -22 -14.5 -36.5t-36.5 -14.5h-29q-22 0 -36.5 14.5t-14.5 36.5v327q-33 -30 -65 -59.5t-65 -59.5q-16 -13 -35.5 -13.5t-34.5 13.5q-34 31 -66.5 60t-65.5 59v-327
q0 -22 -14.5 -36.5t-36.5 -14.5h-29q-22 0 -36.5 14.5t-14.5 36.5v578q0 22 14.5 36.5t36.5 14.5h29q22 0 36.5 -14.5t14.5 -36.5v-66z" />
    <glyph glyph-name="N" unicode="N" horiz-adv-x="629" 
d="M434 629q0 22 14.5 36.5t37.5 14.5h28q22 0 36.5 -14.5t14.5 -36.5v-578q0 -22 -14.5 -36.5t-36.5 -14.5h-28q-23 0 -37.5 14.5t-14.5 36.5v110l-239 217v-327q0 -22 -14.5 -36.5t-36.5 -14.5h-29q-22 0 -36.5 14.5t-14.5 36.5v578q0 22 14.5 36.5t36.5 14.5h29
q22 0 36.5 -14.5t14.5 -36.5v-67l239 -219v286z" />
    <glyph glyph-name="O" unicode="O" horiz-adv-x="594" 
d="M296 -10q-88 0 -149 41.5t-89 123.5q-5 15 -8 31t-5.5 37t-3.5 49.5t-1 67.5t1 67.5t3.5 49.5t5.5 37t8 31q28 82 89 123.5t149 41.5q89 0 150.5 -41.5t88.5 -123.5q5 -15 8.5 -31t6 -37t3.5 -49.5t1 -67.5t-1 -67.5t-3.5 -49.5t-6 -37t-8.5 -31q-27 -82 -88.5 -123.5
t-150.5 -41.5zM296 121q42 0 68.5 19.5t38.5 54.5q5 16 9 48.5t4 96.5t-4 96.5t-9 48.5q-12 35 -38.5 54.5t-68.5 19.5q-41 0 -67.5 -19.5t-37.5 -54.5q-5 -16 -9 -48.5t-4 -96.5t4 -96.5t9 -48.5q11 -35 37.5 -54.5t67.5 -19.5z" />
    <glyph glyph-name="P" unicode="P" horiz-adv-x="569" 
d="M318 383q45 0 70 22t25 61q0 38 -25 60.5t-70 22.5h-118v-166h118zM323 680q51 0 93 -15.5t71.5 -43.5t45.5 -67.5t16 -87.5q0 -49 -16 -88.5t-45.5 -67.5t-71.5 -43t-93 -15h-123v-201q0 -22 -14.5 -36.5t-36.5 -14.5h-34q-22 0 -36.5 14.5t-14.5 36.5v578
q0 22 14.5 36.5t36.5 14.5h208z" />
    <glyph glyph-name="Q" unicode="Q" horiz-adv-x="592" 
d="M296 -10q-88 0 -149 41.5t-89 123.5q-5 15 -8.5 31t-5.5 37t-3 49.5t-1 67.5t1 67.5t3 49.5t5.5 37t8.5 31q28 82 89 123.5t149 41.5q89 0 150 -41.5t89 -123.5q5 -15 8.5 -31t5.5 -37t3 -49.5t1 -67.5t-1 -67.5t-3 -49.5t-5.5 -37t-8.5 -31q-7 -22 -16 -38
q13 -13 25.5 -25t25.5 -25q23 -23 1 -50l-41 -45q-11 -10 -25 -11.5t-28 11.5l-49 48q-27 -14 -60.5 -22t-71.5 -8zM296 121q15 0 30 3l-39 39h1q-24 22 -2 49l40 44q31 25 54 2l29 -30q3 18 5 45t2 67q0 64 -4 96.5t-9 48.5q-12 35 -38.5 54.5t-68.5 19.5
q-41 0 -67.5 -19.5t-38.5 -54.5q-5 -16 -8.5 -48.5t-3.5 -96.5t3.5 -96.5t8.5 -48.5q12 -35 38.5 -54.5t67.5 -19.5z" />
    <glyph glyph-name="R" unicode="R" horiz-adv-x="593" 
d="M325 396q42 0 65 20.5t23 55.5q0 36 -23 56.5t-65 20.5h-124v-153h124zM551 64h-1q6 -12 5.5 -23.5t-7 -20.5t-17 -14.5t-23.5 -5.5h-40q-19 0 -35 12t-24 27l-110 226h-98v-214q0 -22 -14.5 -36.5t-37.5 -14.5h-34q-22 0 -36.5 14.5t-14.5 36.5v578q0 22 14.5 36.5
t36.5 14.5h211q50 0 91.5 -15t71 -42t45.5 -65.5t16 -85.5q0 -65 -29.5 -112t-82.5 -72z" />
    <glyph glyph-name="S" unicode="S" horiz-adv-x="568" 
d="M140 172q28 -20 66 -35.5t81 -15.5q52 0 81 22t29 57q0 28 -23.5 47.5t-83.5 27.5q-7 1 -15.5 2t-15.5 2q-207 29 -207 201q0 48 16.5 86.5t46.5 66t72.5 42.5t95.5 15t102.5 -14t87.5 -37q19 -11 25 -31t-6 -40l-16 -26q-11 -18 -31 -24t-40 5q-31 17 -61.5 26.5
t-63.5 9.5q-44 0 -67.5 -21t-23.5 -53q0 -26 28.5 -44.5t79.5 -27.5q7 -1 14.5 -2.5t14.5 -2.5q105 -14 157 -63.5t52 -138.5q0 -47 -16 -86.5t-48 -68.5t-80 -45t-112 -16q-66 0 -126.5 22t-100.5 53q-17 15 -18.5 35.5t13.5 37.5l22 26q13 16 34.5 17.5t36.5 -9.5z" />
    <glyph glyph-name="T" unicode="T" horiz-adv-x="512" 
d="M239 0q-23 0 -37.5 14.5t-14.5 36.5v498h-134q-22 0 -36.5 14.5t-14.5 36.5v29q0 22 14.5 36.5t36.5 14.5h405q23 0 37.5 -14.5t14.5 -36.5v-29q0 -22 -14.5 -36.5t-37.5 -14.5h-134v-498q0 -22 -14.5 -36.5t-36.5 -14.5h-34v0z" />
    <glyph glyph-name="U" unicode="U" horiz-adv-x="615" 
d="M556 245q0 -124 -66 -189.5t-182 -65.5q-117 0 -183 65.5t-66 189.5v384q0 22 14.5 36.5t36.5 14.5h34q23 0 37.5 -14.5t14.5 -36.5v-383q0 -62 30.5 -93.5t81.5 -31.5q50 0 80.5 31.5t30.5 93.5v383q0 22 14.5 36.5t37.5 14.5h34q22 0 36.5 -14.5t14.5 -36.5v-384z" />
    <glyph glyph-name="V" unicode="V" horiz-adv-x="541" 
d="M170 500q0 -50 11 -97.5t26.5 -90t33.5 -77.5t32 -60q14 25 31.5 61t33.5 78.5t27 89.5t11 96v129q0 22 14.5 36.5t37.5 14.5h28q23 0 37.5 -14.5t14.5 -36.5v-130q0 -66 -16.5 -131t-41.5 -125t-54.5 -112.5t-54.5 -93.5q-9 -15 -20.5 -26t-32.5 -11h-30q-22 0 -33.5 11
t-20.5 26q-25 40 -54 92.5t-54 112t-41.5 125t-16.5 132.5v130q0 22 14.5 36.5t37.5 14.5h28q23 0 37.5 -14.5t14.5 -36.5v-129z" />
    <glyph glyph-name="W" unicode="W" horiz-adv-x="781" 
d="M170 500q0 -50 11 -97.5t26.5 -90t33.5 -77.5t32 -60q14 25 31.5 61t33.5 78.5t27 89.5t12 96v129q0 22 14.5 36.5t36.5 14.5h28q23 0 37.5 -14.5t14.5 -36.5v-130q0 -66 -16.5 -131.5t-41 -125.5t-54 -112.5t-54.5 -92.5q-10 -15 -21.5 -26t-32.5 -11h-30
q-21 0 -32.5 11t-21.5 26q-26 40 -55 92t-53.5 112t-41 125.5t-16.5 132.5v130q0 22 14.5 36.5t37.5 14.5h28q23 0 37.5 -14.5t14.5 -36.5v-129zM440 323q16 -47 34.5 -84.5t33.5 -63.5q14 25 32 61t33.5 78.5t26.5 89.5t12 96v129q0 22 14.5 36.5t36.5 14.5h29
q22 0 36.5 -14.5t14.5 -36.5v-130q0 -66 -16.5 -131.5t-41 -125.5t-54 -112.5t-54.5 -92.5q-10 -15 -21.5 -26t-31.5 -11h-31q-21 0 -32.5 11t-21.5 26q-24 38 -52 88t-52 107l2 -3q-7 13 4 32t27 37q6 5 12 8.5t8 -1.5z" />
    <glyph glyph-name="X" unicode="X" horiz-adv-x="536" 
d="M156 37q-8 -14 -23.5 -25.5t-33.5 -11.5h-46q-30 0 -40.5 20.5t4.5 44.5q45 75 86.5 144.5t86.5 144.5q-39 65 -79 130t-78 131q-15 24 -4 44.5t40 20.5h46q19 0 34 -11.5t24 -25.5l95 -156q23 38 47 78t47 78q8 14 23.5 25.5t34.5 11.5h46q30 0 40.5 -20.5t-4.5 -44.5
l-157 -262q43 -72 86.5 -144t86.5 -144q15 -24 4 -44.5t-40 -20.5h-46q-19 0 -34.5 11.5t-23.5 25.5q-17 27 -30 48.5t-25.5 42.5t-26 43.5t-29.5 49.5z" />
    <glyph glyph-name="Y" unicode="Y" horiz-adv-x="503" 
d="M148 636q13 -45 40 -103.5t63 -121.5q37 63 63.5 121.5t39.5 103.5q7 21 22 32.5t34 11.5h44q28 0 37.5 -17.5t4.5 -40.5q-9 -32 -26 -73.5t-40 -87.5t-51 -93.5t-60 -92.5v-224q0 -22 -14.5 -36.5t-36.5 -14.5h-33q-23 0 -37.5 14.5t-14.5 36.5v224q-32 45 -60 92.5
t-51 93.5t-39.5 87.5t-25.5 73.5q-5 23 4 40.5t37 17.5h44q20 0 35 -11.5t21 -32.5z" />
    <glyph glyph-name="Z" unicode="Z" horiz-adv-x="516" 
d="M487 595q0 -8 -2 -18t-7 -18l-278 -428h235q23 0 37.5 -14.5t14.5 -36.5v-29q0 -22 -14.5 -36.5t-37.5 -14.5h-354q-23 0 -37.5 14.5t-14.5 36.5v39q0 17 10 31l277 428h-224q-23 0 -37.5 14.5t-14.5 36.5v29q0 22 14.5 36.5t37.5 14.5h343q23 0 37.5 -14.5t14.5 -36.5
v-34z" />
    <glyph glyph-name="at" unicode="@" horiz-adv-x="947" 
d="M405 193q13 -41 62 -41q48 0 63 42v-1q3 10 4.5 25.5t1.5 44.5t-1.5 44t-4.5 26v-1q-15 42 -63 42q-49 0 -62 -41q-4 -11 -5.5 -26t-1.5 -44t1.5 -44t5.5 -26zM711 -107q-51 -23 -107.5 -35.5t-131.5 -12.5q-94 0 -172 31t-134.5 86.5t-87.5 133.5t-31 172q0 93 31 171
t87.5 133.5t134.5 86.5t172 31t172 -31t134 -87t87 -133.5t31 -170.5q0 -64 -15 -110t-41 -75.5t-60 -43.5t-73 -14q-79 0 -121 49q-23 -23 -57 -35.5t-77 -12.5q-65 0 -108.5 29.5t-63.5 89.5q-7 22 -10.5 48t-3.5 70t3.5 70t10.5 48q20 60 63 89.5t106 29.5
q31 0 56.5 -7.5t44.5 -20.5q16 18 42 18h18q24 0 40 -16t16 -40v-229q0 -29 12.5 -42t28.5 -13q12 0 22.5 6t18.5 19.5t12.5 36t4.5 56.5q0 66 -20.5 120.5t-59 93.5t-92.5 61t-121 22t-121.5 -21.5t-92.5 -60.5t-59 -94t-21 -121q0 -67 21 -122t59 -94t92.5 -60.5
t121.5 -21.5q64 0 108.5 10t82.5 27q23 10 43 4t28 -26l8 -21q7 -23 -1 -43t-30 -29v1z" />
    <glyph glyph-name="quotedbl" unicode="&#x22;" horiz-adv-x="442" 
d="M291 473q-18 0 -29 11t-11 29v157q0 18 11 29t29 11h44q18 0 29 -11t11 -29v-157q0 -18 -11 -29t-29 -11h-44zM107 473q-18 0 -29 11t-11 29v157q0 18 11 29t29 11h44q18 0 29 -11t11 -29v-157q0 -18 -11 -29t-29 -11h-44z" />
    <glyph glyph-name="exclam" unicode="!" horiz-adv-x="348" 
d="M96 110q0 24 16 40t40 16h44q24 0 40 -16t16 -40v-54q0 -24 -16 -40t-40 -16h-44q-24 0 -40 16t-16 40v54zM236 248q-2 -23 -17 -38.5t-39 -15.5h-12q-25 0 -39.5 15.5t-16.5 38.5l-16 445q-2 24 15 40.5t41 16.5h44q23 0 40 -16.5t16 -40.5z" />
    <glyph glyph-name="exclamdown" unicode="&#xa1;" horiz-adv-x="348" 
d="M96 423q0 24 16 40t40 16h44q24 0 40 -16t16 -40v-54q0 -24 -16 -40t-40 -16h-44q-24 0 -40 16t-16 40v54zM252 -214q1 -24 -16 -40.5t-40 -16.5h-44q-24 0 -41 16.5t-15 40.5l16 445q2 23 16.5 38.5t39.5 15.5h12q24 0 39 -15.5t17 -38.5z" />
    <glyph glyph-name="plus" unicode="+" horiz-adv-x="542" 
d="M31 287q0 24 16 40t40 16h116v118q0 24 16 40t40 16h24q24 0 40 -16t16 -40v-118h116q24 0 40 -16t16 -40v-22q0 -24 -16 -40t-40 -16h-116v-118q0 -24 -16 -40t-40 -16h-24q-24 0 -40 16t-16 40v118h-116q-24 0 -40 16t-16 40v22v0z" />
    <glyph glyph-name="comma" unicode="," horiz-adv-x="230" 
d="M40 80q0 24 16 40t40 16h38q24 0 40 -16t16 -40v-67q0 -16 -5 -31t-13 -26q-14 -19 -28.5 -38t-28.5 -38q-14 -18 -36 -18q-17 0 -28 11t-11 28v179z" />
    <glyph glyph-name="hyphen" unicode="-" horiz-adv-x="380" 
d="M73 197q-24 0 -40 16t-16 40v26q0 24 16 40t40 16h234q24 0 40 -16t16 -40v-26q0 -24 -16 -40t-40 -16h-234z" />
    <glyph glyph-name="period" unicode="." horiz-adv-x="236" 
d="M196 56q0 -24 -16 -40t-40 -16h-44q-24 0 -40 16t-16 40v54q0 24 16 40t40 16h44q24 0 40 -16t16 -40v-54z" />
    <glyph glyph-name="slash" unicode="/" horiz-adv-x="417" 
d="M247 650q10 27 38 27h48q20 0 29.5 -11.5t2.5 -31.5l-198 -606q-5 -13 -13.5 -20.5t-23.5 -7.5h-47q-21 0 -30 12t-2 32z" />
    <glyph glyph-name="zero" unicode="0" horiz-adv-x="565" 
d="M84 129q-3 9 -5.5 21.5t-4.5 36t-3 60.5t-1 94t1 93.5t3 60t4.5 36.5t5.5 23q22 67 72.5 102t125.5 35t125.5 -35t73.5 -102q3 -10 5.5 -23t4.5 -36.5t3 -60t1 -93.5t-1 -94t-3 -60.5t-4.5 -36t-5.5 -21.5q-23 -69 -73.5 -104t-125.5 -35t-125.5 35t-72.5 104zM213 161
q8 -22 26 -33t43 -11q26 0 43.5 11t25.5 32q2 6 3.5 15.5t3 29t2 51.5t0.5 85q0 52 -0.5 84.5t-2 52t-3 28.5t-3.5 15q-8 23 -25.5 33.5t-43.5 10.5q-25 0 -43 -10.5t-26 -32.5q-2 -6 -3.5 -15.5t-3 -29t-2 -52t-0.5 -84.5q0 -53 0.5 -85t2 -51.5t3 -28.5t3.5 -15z" />
    <glyph glyph-name="one" unicode="1" horiz-adv-x="408" 
d="M246 680q22 0 37 -15t15 -37v-576q0 -23 -15 -37.5t-37 -14.5h-30q-22 0 -36 14.5t-14 37.5l-2 450l-44 -30q-24 -16 -47 -6t-23 42v29q0 41 33 65l66 48q23 17 39 23.5t36 6.5h22z" />
    <glyph glyph-name="two" unicode="2" horiz-adv-x="566" 
d="M210 507q-6 -23 -24 -33.5t-40 -4.5l-24 7q-21 6 -32.5 22t-7.5 38q6 30 22 58t41 49.5t59.5 34.5t79.5 13q48 0 85.5 -15t63.5 -41.5t40 -63t14 -78.5q0 -48 -18 -87.5t-49 -79.5l-158 -199h173q23 0 37.5 -14.5t14.5 -36.5v-24q0 -23 -14.5 -37.5t-37.5 -14.5h-305
q-22 0 -36.5 14.5t-14.5 37.5v26q0 7 1.5 18t8.5 19q56 72 112.5 143t112.5 143q18 23 28.5 45.5t10.5 46.5q0 31 -19 51.5t-52 20.5q-29 0 -47 -16t-25 -42z" />
    <glyph glyph-name="three" unicode="3" horiz-adv-x="546" 
d="M52 129q-6 23 6 40.5t35 22.5l29 7q22 5 37 -5.5t23 -31.5q6 -19 26 -32t53 -13q38 0 59 24t21 59q0 40 -23 64t-64 24h-12q-23 0 -37.5 14.5t-14.5 37.5v24q0 22 14.5 37t37.5 15h11q35 0 56 20.5t21 55.5q0 32 -19.5 52.5t-53.5 20.5q-26 0 -44 -14.5t-25 -31.5
q-8 -20 -24.5 -29.5t-38.5 -4.5l-32 7q-20 5 -29 23.5t-3 39.5q8 28 25 53t42.5 43.5t58 29t72.5 10.5q48 0 86.5 -15t64.5 -41t40 -62t14 -79q0 -42 -16 -75.5t-42 -57.5q27 -23 48.5 -63.5t21.5 -94.5q0 -47 -16 -86.5t-44.5 -67.5t-68 -43.5t-86.5 -15.5
q-81 0 -136.5 38.5t-72.5 100.5z" />
    <glyph glyph-name="four" unicode="4" horiz-adv-x="560" 
d="M209 235h101v126q0 23 14.5 37.5t36.5 14.5h29q22 0 36.5 -14.5t14.5 -37.5v-126h21q22 0 36.5 -14.5t14.5 -36.5v-23q0 -23 -14.5 -37.5t-36.5 -14.5h-21v-57q0 -23 -14.5 -37.5t-36.5 -14.5h-29q-22 0 -36.5 14.5t-14.5 37.5v57h-206q-22 0 -36.5 14.5t-14.5 37.5v29
q0 11 2 18.5t4 12.5l193 418q6 16 21 28t35 12h33q26 0 39.5 -18.5t2.5 -44.5z" />
    <glyph glyph-name="five" unicode="5" horiz-adv-x="566" 
d="M90 128q-5 21 6.5 38.5t32.5 22.5l29 8q21 5 36.5 -5.5t22.5 -30.5q8 -19 26 -31.5t47 -12.5q49 0 66 43q4 11 5 27t1 42t-2 42t-6 28q-8 22 -24.5 32t-39.5 10q-27 0 -43 -11t-22 -25q-7 -14 -19 -22.5t-29 -8.5h-30q-22 0 -37 14.5t-15 37.5v302q0 22 15 37t37 15h284
q23 0 37.5 -15t14.5 -37v-23q0 -23 -14.5 -37.5t-37.5 -14.5h-209q1 -24 1 -47t2 -54q30 15 75 15q67 0 114.5 -30.5t66.5 -91.5q7 -23 11 -50t4 -66q0 -35 -4 -61.5t-10 -47.5q-20 -62 -72 -96t-120 -34q-78 0 -130.5 38t-69.5 100z" />
    <glyph glyph-name="six" unicode="6" horiz-adv-x="563" 
d="M197 208q0 -41 23 -66t62 -25t62.5 25t23.5 66q0 40 -23.5 65t-62.5 25t-62 -25t-23 -65zM287 425h9q43 0 80 -15t65 -43t44 -67.5t16 -88.5q0 -52 -17 -93t-46 -69.5t-69.5 -43.5t-86.5 -15q-47 0 -87 15t-69.5 43t-46 69t-16.5 92q0 41 13 80t32 75l150 277
q8 14 20.5 26.5t35.5 12.5h35q27 0 38 -20.5t-1 -44.5z" />
    <glyph glyph-name="seven" unicode="7" horiz-adv-x="507" 
d="M265 40q-7 -16 -20.5 -28t-37.5 -12h-34q-29 0 -39.5 18.5t0.5 43.5q25 66 48.5 126t47 119t47 119.5t49.5 126.5h-127v-42q0 -22 -15 -36.5t-37 -14.5h-25q-22 0 -37 14.5t-15 36.5v117q0 22 15 37t37 15h303q23 0 37.5 -15t14.5 -37v-36q0 -8 -1 -14t-3 -11z" />
    <glyph glyph-name="eight" unicode="8" horiz-adv-x="563" 
d="M61 202q0 46 21 88t47 69q-24 23 -39 56t-15 76q0 41 14 77.5t41 63.5t65 43t86 16q49 0 87.5 -16t65 -43t40.5 -63.5t14 -77.5q0 -43 -15.5 -76.5t-38.5 -57.5q26 -26 47 -67.5t21 -87.5q0 -47 -16 -86t-45.5 -67t-70 -43.5t-89.5 -15.5t-89.5 15.5t-69.5 43.5t-45 67
t-16 86zM281 420q34 0 53 21.5t19 50.5q0 30 -19.5 51.5t-52.5 21.5q-32 0 -51.5 -21.5t-19.5 -51.5q0 -29 19 -50.5t52 -21.5zM195 205q0 -38 24 -63t62 -25q40 0 63 25t23 63t-23 63t-63 25q-39 0 -62.5 -25t-23.5 -63z" />
    <glyph glyph-name="nine" unicode="9" horiz-adv-x="563" 
d="M366 472q0 41 -23 66t-62 25t-62.5 -25t-23.5 -66q0 -40 23.5 -65t62.5 -25t62 25t23 65zM276 255h-9q-43 0 -80.5 15t-65 43t-43.5 67.5t-16 88.5q0 52 17 93t46 69.5t69 43.5t87 15t87 -15t69.5 -43t46 -69t16.5 -92q0 -41 -13 -80t-32 -75l-150 -277
q-8 -14 -20.5 -26.5t-35.5 -12.5h-35q-27 0 -38 20.5t1 44.5z" />
    <glyph glyph-name="colon" unicode=":" horiz-adv-x="244" 
d="M200 369q0 -24 -16 -40t-40 -16h-44q-24 0 -40 16t-16 40v54q0 24 16 40t40 16h44q24 0 40 -16t16 -40v-54zM200 56q0 -24 -16 -40t-40 -16h-44q-24 0 -40 16t-16 40v54q0 24 16 40t40 16h44q24 0 40 -16t16 -40v-54z" />
    <glyph glyph-name="semicolon" unicode=";" horiz-adv-x="244" 
d="M47 80q0 24 16 40t40 16h38q24 0 40 -16t16 -40v-67q0 -16 -5 -31t-13 -26q-14 -19 -28.5 -38t-28.5 -38q-14 -18 -36 -18q-17 0 -28 11t-11 28v179zM200 369q0 -24 -16 -40t-40 -16h-44q-24 0 -40 16t-16 40v54q0 24 16 40t40 16h44q24 0 40 -16t16 -40v-54z" />
    <glyph glyph-name="question" unicode="?" horiz-adv-x="483" 
d="M164 102q0 22 15 36.5t37 14.5h41q23 0 37 -14.5t14 -36.5v-50q0 -23 -14 -37.5t-37 -14.5h-41q-22 0 -37 14.5t-15 37.5v50zM45 559q14 70 66.5 111t130.5 41q43 0 79 -13.5t62 -38t40 -58t14 -73.5q0 -39 -13.5 -70t-39.5 -67l-62 -85q-11 -14 -14.5 -24.5t-3.5 -27.5
v-14q0 -23 -15 -37.5t-37 -14.5h-31q-23 0 -37 14.5t-14 37.5v22q0 32 8 54t25 46l61 84q20 27 29 45.5t9 35.5q0 26 -17.5 42t-44.5 16q-24 0 -41.5 -14t-23.5 -38q-4 -22 -20.5 -34t-39.5 -7l-29 6q-22 5 -34 21.5t-7 39.5z" />
    <glyph glyph-name="questiondown" unicode="&#xbf;" horiz-adv-x="483" 
d="M319 377q0 -22 -15 -36.5t-37 -14.5h-41q-23 0 -37 14.5t-14 36.5v50q0 23 14 37.5t37 14.5h41q22 0 37 -14.5t15 -37.5v-50zM438 -80q-14 -70 -66.5 -111t-130.5 -41q-44 0 -79.5 13.5t-61.5 38t-40 58t-14 73.5q0 39 13.5 70t39.5 67l62 85q11 14 14.5 24.5t3.5 27.5
v14q0 23 15 37.5t37 14.5h31q23 0 37 -14.5t14 -37.5v-22q0 -32 -8 -54t-25 -46l-61 -84q-20 -27 -29 -45.5t-9 -35.5q0 -26 17.5 -42t44.5 -16q24 0 41.5 14t23.5 38q4 22 20.5 34t39.5 7l29 -6q22 -5 34 -21.5t7 -39.5z" />
    <glyph glyph-name="tilde" unicode="&#x2dc;" horiz-adv-x="421" 
d="M156 611q-9 0 -17.5 -4.5t-15.5 -11.5q-9 -8 -19 -11t-18.5 -0.5t-14 11t-5.5 23.5v35q0 10 2.5 16.5t11.5 17.5q16 16 36 26.5t44 10.5q19 0 37 -7t32 -15q8 -5 17 -8.5t17 -3.5t16.5 4.5t16.5 12.5t18 11t18.5 0t14 -11.5t5.5 -23.5v-36q0 -10 -2 -17t-11 -18
q-15 -15 -35 -25.5t-45 -10.5q-19 0 -36.5 7t-32.5 15q-9 5 -17.5 9t-16.5 4z" />
    <glyph glyph-name="circumflex" unicode="&#x2c6;" horiz-adv-x="421" 
d="M105 557q-18 0 -27.5 5.5t-12.5 14.5t-0.5 19.5t9.5 20.5l64 91q11 14 23.5 21.5t29.5 7.5h41q30 0 51 -29l66 -91q7 -10 9.5 -20.5t-0.5 -19.5t-13 -14.5t-27 -5.5h-33q-20 0 -32.5 8t-21.5 20l-20 27l-19 -27q-9 -13 -22 -20.5t-33 -7.5h-32z" />
    <glyph glyph-name="dieresis" unicode="&#xa8;" horiz-adv-x="444" 
d="M176 571q0 -21 -14 -35t-35 -14h-24q-22 0 -36 14t-14 35v37q0 21 14 35.5t36 14.5h24q21 0 35 -14.5t14 -35.5v-37zM392 571q0 -21 -14.5 -35t-35.5 -14h-24q-22 0 -36 14t-14 35v37q0 21 14 35.5t36 14.5h24q21 0 35.5 -14.5t14.5 -35.5v-37z" />
    <glyph glyph-name="acute" unicode="&#xb4;" horiz-adv-x="421" 
d="M155 557q-17 0 -26.5 5.5t-12.5 14t-0.5 19t8.5 21.5l55 90q9 14 21.5 22t31.5 8h46q25 0 37.5 -17.5t-7.5 -46.5l-66 -88q-9 -12 -21.5 -20t-32.5 -8h-33z" />
    <glyph glyph-name="underscore" unicode="_" horiz-adv-x="536" 
d="M56 -184q-24 0 -40 16t-16 40v4q0 24 16 40t40 16h424q24 0 40 -16t16 -40v-4q0 -24 -16 -40t-40 -16h-424z" />
    <glyph glyph-name="percent" unicode="%" horiz-adv-x="821" 
d="M532 655q7 11 15 16.5t22 5.5h43q22 0 29 -15.5t-1 -32.5l-351 -607q-7 -11 -15 -16.5t-22 -5.5h-42q-21 0 -29 16t0 33zM211 293q-48 0 -81 23.5t-47 62.5q-3 7 -4.5 13.5t-2 17t-1 27t-0.5 42.5q0 25 0.5 41t1 26.5t2 17t4.5 14.5q13 40 46.5 63.5t81.5 23.5
q47 0 80 -23.5t47 -63.5q3 -8 4.5 -15.5t2.5 -17.5t1.5 -25.5t0.5 -40.5t-0.5 -40.5t-1.5 -26t-2.5 -18t-4.5 -15.5q-14 -39 -47 -62.5t-80 -23.5zM211 398q8 0 14.5 3.5t8.5 9.5q2 5 2 17v51v51t-2 17q-2 6 -8.5 9.5t-14.5 3.5q-20 0 -23 -13q-1 -5 -2 -17t-1 -51t1 -51
t2 -17q3 -13 23 -13zM482 79q-2 7 -3.5 13.5t-2.5 17t-1.5 26.5t-0.5 42q0 25 0.5 41t1.5 26.5t2.5 17t3.5 13.5q14 41 47 64t81 23q47 0 80 -23t47 -64q3 -8 4.5 -15t2.5 -17.5t1.5 -26t0.5 -39.5q0 -25 -0.5 -40.5t-1.5 -26t-2.5 -18t-4.5 -15.5q-14 -39 -47 -62.5
t-80 -23.5t-80 23.5t-47 62.5zM587 110q2 -7 8.5 -10t14.5 -3q20 0 23 13q1 4 2 16.5t1 51.5q0 19 -0.5 31t-1 19.5t-1 11t-0.5 5.5q-3 14 -23 14q-8 0 -14.5 -3.5t-8.5 -10.5q0 -2 -0.5 -5.5t-1 -11t-1 -19.5t-0.5 -31q0 -39 1 -51.5t2 -16.5z" />
    <glyph glyph-name="numbersign" unicode="#" horiz-adv-x="577" 
d="M103 214h-39q-18 0 -29 11t-11 29v43q0 18 11 29t29 11h54q3 21 5.5 37t6.5 43h-41q-18 0 -29 11t-11 29v42q0 18 11 29t29 11h57q5 42 11.5 82.5t11.5 82.5q3 16 12 26t29 10h45q22 0 32 -12.5t7 -32.5v1q-3 -24 -5.5 -42.5t-5.5 -36t-5.5 -36t-5.5 -42.5h72
q5 42 11.5 82.5t11.5 82.5q3 16 12 26t29 10h45q22 0 32 -12.5t7 -32.5v1q-3 -24 -5.5 -42.5t-5.5 -36t-5.5 -36t-5.5 -42.5h43q18 0 29 -11t11 -29v-42q0 -18 -11 -29t-29 -11h-59q-3 -21 -5.5 -37t-6.5 -43h45q18 0 29 -11t11 -29v-43q0 -18 -11 -29t-29 -11h-60
q-6 -42 -13 -89.5t-12 -89.5q-3 -16 -12 -25.5t-29 -9.5h-45q-23 0 -33 12.5t-6 32.5v-1q3 25 6 45.5t6 39.5t6 39t6 46h-72q-6 -42 -13 -89.5t-12 -89.5q-3 -16 -12 -25.5t-29 -9.5h-45q-22 0 -32 12.5t-7 32.5zM316 337q3 21 5.5 37t6.5 43h-72q-3 -21 -5.5 -37t-6.5 -43
h72z" />
    <glyph glyph-name="dollar" unicode="$" horiz-adv-x="560" 
d="M71 59q-11 8 -13 24t6 27l34 45q12 16 26 16t26 -8q16 -12 37 -23t47 -18v165q-83 20 -124 70t-41 124q0 81 46 134.5t119 69.5v22q0 17 10.5 27t26.5 10h27q17 0 26.5 -10t9.5 -27v-21q35 -7 67.5 -20t59.5 -30q14 -11 16 -22t-9 -27l-30 -46q-8 -14 -22.5 -14.5
t-25.5 4.5q-14 8 -28 14t-28 11v-156q85 -18 126 -67.5t41 -124.5q0 -81 -44.5 -136.5t-122.5 -72.5v-26q0 -17 -9.5 -26.5t-26.5 -9.5h-27q-16 0 -26.5 9.5t-10.5 26.5v21q-50 5 -90 22.5t-73 42.5zM234 551q-16 -10 -25 -26t-9 -38q0 -21 7.5 -36t26.5 -26v126zM334 132
q17 11 27 28.5t10 43.5q0 18 -9 33.5t-28 25.5v-131z" />
    <glyph glyph-name="parenleft" unicode="(" horiz-adv-x="320" 
d="M173 -53q-55 85 -82.5 180.5t-27.5 190.5q0 96 27.5 192t82.5 180q8 11 16 16t20 5h32q21 0 30.5 -13t-1.5 -34q-39 -78 -60.5 -168t-21.5 -178t22 -178.5t60 -167.5q11 -21 1.5 -34t-30.5 -13h-32q-12 0 -19.5 5t-15.5 16z" />
    <glyph glyph-name="ampersand" unicode="&#x26;" horiz-adv-x="646" 
d="M70 181q0 53 28.5 101.5t85.5 99.5q-18 24 -31.5 43t-21.5 36t-12 33t-4 34q0 35 13 64.5t35.5 51.5t54 34t68.5 12q39 0 70.5 -13t54 -35t34.5 -51.5t12 -62.5q0 -23 -5 -42.5t-17 -39t-31 -40t-47 -44.5q11 -14 20 -26t18.5 -24t19.5 -25t23 -29l41 51q11 13 24.5 15
t27.5 -9l36 -31q28 -23 6 -51l-58 -75l16 -21q5 -7 10 -9.5t8 -2.5h11q37 0 37 -37v-50q0 -17 -10 -27.5t-27 -10.5h-25q-18 0 -31 2.5t-24.5 9t-22 17t-23.5 25.5l-6 7q-38 -35 -78.5 -53t-88.5 -18q-46 0 -81.5 14.5t-60 40t-37 60.5t-12.5 76zM245 529q0 -11 7.5 -25.5
t30.5 -43.5q30 26 38.5 41t8.5 29q0 17 -12 28.5t-32 11.5t-30.5 -12t-10.5 -29zM197 186q0 -34 18 -53.5t52 -19.5q41 0 86 46q-26 33 -46.5 60.5t-47.5 63.5q-29 -26 -45.5 -50t-16.5 -47z" />
    <glyph glyph-name="quotesingle" unicode="'" horiz-adv-x="198" 
d="M77 473q-18 0 -29 11t-11 29v157q0 18 11 29t29 11h44q18 0 29 -11t11 -29v-157q0 -18 -11 -29t-29 -11h-44v0z" />
    </font>
</defs>
</svg>
