<?xml version="1.0" standalone="no"?>
<!DOCTYPE svg PUBLIC "-//W3C//DTD SVG 1.1//EN" "http://www.w3.org/Graphics/SVG/1.1/DTD/svg11.dtd" >
<svg xmlns="http://www.w3.org/2000/svg" xmlns:xlink="http://www.w3.org/1999/xlink" version="1.1">
<metadata>
Created by FontForge 20161116 at Tue Jun 30 23:15:51 2015
 By Jimmy Wärting
Copyright (c) 2009 by Santiago Uribe. All rights reserved.
</metadata>
<defs>
<font id="Aniifontbloque-Bold" horiz-adv-x="679" >
  <font-face 
    font-family="Anii font bloque"
    font-weight="700"
    font-stretch="normal"
    units-per-em="1000"
    panose-1="2 11 5 3 2 2 3 5 2 3"
    ascent="750"
    descent="-250"
    cap-height="925"
    bbox="-5 -244 4292 957"
    underline-thickness="50"
    underline-position="-100"
    unicode-range="U+0020-2022"
  />
<missing-glyph horiz-adv-x="93" 
 />
    <glyph glyph-name=".notdef" horiz-adv-x="93" 
 />
    <glyph glyph-name=".null" horiz-adv-x="0" 
 />
    <glyph glyph-name="nonmarkingreturn" horiz-adv-x="93" 
 />
    <glyph glyph-name="space" unicode=" " horiz-adv-x="93" 
 />
    <glyph glyph-name="space" unicode="&#xa0;" horiz-adv-x="93" 
 />
    <glyph glyph-name="equal" unicode="=" horiz-adv-x="542" 
d="M71 322q-18 0 -29 11t-11 29v54q0 18 11 29t29 11h400q18 0 29 -11t11 -29v-54q0 -18 -11 -29t-29 -11h-400zM71 90q-18 0 -29 11t-11 29v54q0 18 11 29t29 11h400q18 0 29 -11t11 -29v-54q0 -18 -11 -29t-29 -11h-400z" />
    <glyph glyph-name="greater" unicode="&#x3e;" horiz-adv-x="542" 
d="M31 112q0 17 6.5 25.5t22.5 15.5l230 93l-230 91q-16 7 -22.5 15.5t-6.5 25.5v62q0 26 14 34.5t36 -0.5l401 -164q29 -11 29 -42v-47q0 -31 -31 -41h2l-401 -164q-23 -9 -36.5 -0.5t-13.5 34.5v62z" />
    <glyph glyph-name="bracketleft" unicode="[" horiz-adv-x="341" 
d="M120 -114q-18 0 -29 11t-11 29v804q0 18 11 29t29 11h144q18 0 29 -11t11 -29v-48q0 -18 -11 -29t-29 -11h-45v-628h45q18 0 29 -11t11 -29v-48q0 -18 -11 -29t-29 -11h-144z" />
    <glyph glyph-name="backslash" unicode="\" horiz-adv-x="479" 
d="M326 -41q-32 0 -42 31l-221 682q-8 23 2.5 36t33.5 13h53q31 0 41 -31l223 -682q8 -23 -2.5 -36t-33.5 -13h-54z" />
    <glyph glyph-name="bracketright" unicode="]" horiz-adv-x="341" 
d="M77 -114q-18 0 -29 11t-11 29v48q0 18 11 29t29 11h45v628h-45q-18 0 -29 11t-11 29v48q0 18 11 29t29 11h144q18 0 29 -11t11 -29v-804q0 -18 -11 -29t-29 -11h-144z" />
    <glyph glyph-name="grave" unicode="`" horiz-adv-x="421" 
d="M229 557q-20 0 -32.5 8t-21.5 20l-66 88q-20 29 -7.5 46.5t37.5 17.5h46q19 0 31.5 -8t21.5 -22l55 -90q13 -21 8 -40.5t-39 -19.5h-33z" />
    <glyph glyph-name="braceleft" unicode="{" horiz-adv-x="393" 
d="M270 -114q-137 0 -137 143v182q0 27 -8 38.5t-25 12.5q-18 0 -28.5 11t-10.5 29v57q0 18 11 29t29 11q16 1 24 12.5t8 37.5v178q0 143 137 143h46q18 0 29 -11t11 -29v-48q0 -18 -11 -29t-29 -11h-29q-15 0 -15 -19v-173q0 -45 -8.5 -73.5t-25.5 -46.5q18 -17 26 -45.5
t8 -73.5v-178q0 -19 15 -19h29q18 0 29 -11t11 -29v-48q0 -18 -11 -29t-29 -11h-46z" />
    <glyph glyph-name="bar" unicode="|" horiz-adv-x="350" 
d="M149 -114q-18 0 -29 11t-11 29v804q0 18 11 29t29 11h52q18 0 29 -11t11 -29v-804q0 -18 -11 -29t-29 -11h-52z" />
    <glyph glyph-name="braceright" unicode="}" horiz-adv-x="393" 
d="M77 -114q-18 0 -29 11t-11 29v48q0 18 11 29t29 11h29q15 0 15 19v178q0 45 8.5 73.5t25.5 46.5q-18 17 -26 45.5t-8 73.5v173q0 19 -15 19h-29q-18 0 -29 11t-11 29v48q0 18 11 29t29 11h46q137 0 137 -143v-178q0 -26 7.5 -37.5t24.5 -12.5q18 0 29 -11t11 -29v-57
q0 -18 -11 -29t-29 -11q-17 -2 -24.5 -13.5t-7.5 -37.5v-182q0 -143 -137 -143h-46z" />
    <glyph glyph-name="Agrave" unicode="&#xc0;" horiz-adv-x="611" 
d="M412 276h-238q9 37 24 72t31.5 66.5t33.5 57.5t30 44q13 -18 30 -44t33.5 -57.5t31.5 -66.5t24 -72v0zM283 680q-18 0 -33 -10.5t-24 -23.5q-30 -41 -64.5 -92.5t-63.5 -111t-48 -125.5t-19 -136v-130q0 -22 14.5 -36.5t36.5 -14.5h29q22 0 36.5 14.5t14.5 36.5v94h262
v-94q0 -22 14.5 -36.5t36.5 -14.5h29q22 0 36.5 14.5t14.5 36.5v130q0 70 -18.5 136.5t-47 126.5t-62.5 111t-66 91q-11 13 -25 23.5t-33 10.5h-20zM611 -244h-616v1169h616v-1169zM262 762q-20 0 -32.5 8t-21.5 20l-66 88q-20 29 -7.5 46.5t37.5 17.5h46q19 0 31.5 -8
t21.5 -22l55 -90q13 -21 8 -40.5t-39 -19.5h-33z" />
    <glyph glyph-name="Aacute" unicode="&#xc1;" horiz-adv-x="611" 
d="M412 276h-238q9 37 24 72t31.5 66.5t33.5 57.5t30 44q13 -18 30 -44t33.5 -57.5t31.5 -66.5t24 -72v0zM283 680q-18 0 -33 -10.5t-24 -23.5q-30 -41 -64.5 -92.5t-63.5 -111t-48 -125.5t-19 -136v-130q0 -22 14.5 -36.5t36.5 -14.5h29q22 0 36.5 14.5t14.5 36.5v94h262
v-94q0 -22 14.5 -36.5t36.5 -14.5h29q22 0 36.5 14.5t14.5 36.5v130q0 70 -18.5 136.5t-47 126.5t-62.5 111t-66 91q-11 13 -25 23.5t-33 10.5h-20zM611 -244h-616v1169h616v-1169zM311 725q20 0 33.5 5.5t22.5 13.5l69 60q15 13 9 28.5t-32 15.5h-54q-36 0 -55 -21l-57 -61
q-13 -14 -8.5 -27.5t39.5 -13.5h33z" />
    <glyph glyph-name="Acircumflex" unicode="&#xc2;" horiz-adv-x="611" 
d="M412 276h-238q9 37 24 72t31.5 66.5t33.5 57.5t30 44q13 -18 30 -44t33.5 -57.5t31.5 -66.5t24 -72v0zM283 680q-18 0 -33 -10.5t-24 -23.5q-30 -41 -64.5 -92.5t-63.5 -111t-48 -125.5t-19 -136v-130q0 -22 14.5 -36.5t36.5 -14.5h29q22 0 36.5 14.5t14.5 36.5v94h262
v-94q0 -22 14.5 -36.5t36.5 -14.5h29q22 0 36.5 14.5t14.5 36.5v130q0 70 -18.5 136.5t-47 126.5t-62.5 111t-66 91q-11 13 -25 23.5t-33 10.5h-20zM611 -244h-616v1169h616v-1169zM189 754q-18 0 -27.5 5.5t-12.5 14.5t-0.5 19.5t9.5 20.5l64 91q11 14 23.5 21.5t29.5 7.5
h41q30 0 51 -29l66 -91q7 -10 9.5 -20.5t-0.5 -19.5t-13 -14.5t-27 -5.5h-33q-20 0 -32.5 8t-21.5 20l-20 27l-19 -27q-9 -13 -22 -20.5t-33 -7.5h-32z" />
    <glyph glyph-name="Atilde" unicode="&#xc3;" horiz-adv-x="611" 
d="M412 276h-238q9 37 24 72t31.5 66.5t33.5 57.5t30 44q13 -18 30 -44t33.5 -57.5t31.5 -66.5t24 -72v0zM283 680q-18 0 -33 -10.5t-24 -23.5q-30 -41 -64.5 -92.5t-63.5 -111t-48 -125.5t-19 -136v-130q0 -22 14.5 -36.5t36.5 -14.5h29q22 0 36.5 14.5t14.5 36.5v94h262
v-94q0 -22 14.5 -36.5t36.5 -14.5h29q22 0 36.5 14.5t14.5 36.5v130q0 70 -18.5 136.5t-47 126.5t-62.5 111t-66 91q-11 13 -25 23.5t-33 10.5h-20zM611 -244h-616v1169h616v-1169zM244 802q-9 0 -17.5 -4.5t-15.5 -11.5q-9 -8 -19 -11t-18.5 -0.5t-14 11t-5.5 23.5v35
q0 10 2.5 16.5t11.5 17.5q16 16 36 26.5t44 10.5q19 0 37 -7t32 -15q8 -5 17 -8.5t17 -3.5t16.5 4.5t16.5 12.5t18 11t18.5 0t14 -11.5t5.5 -23.5v-36q0 -10 -2 -17t-11 -18q-15 -15 -35 -25.5t-45 -10.5q-19 0 -36.5 7t-32.5 15q-9 5 -17.5 9t-16.5 4z" />
    <glyph glyph-name="Adieresis" unicode="&#xc4;" horiz-adv-x="611" 
d="M412 276h-238q9 37 24 72t31.5 66.5t33.5 57.5t30 44q13 -18 30 -44t33.5 -57.5t31.5 -66.5t24 -72v0zM283 680q-18 0 -33 -10.5t-24 -23.5q-30 -41 -64.5 -92.5t-63.5 -111t-48 -125.5t-19 -136v-130q0 -22 14.5 -36.5t36.5 -14.5h29q22 0 36.5 14.5t14.5 36.5v94h262
v-94q0 -22 14.5 -36.5t36.5 -14.5h29q22 0 36.5 14.5t14.5 36.5v130q0 70 -18.5 136.5t-47 126.5t-62.5 111t-66 91q-11 13 -25 23.5t-33 10.5h-20zM611 -244h-616v1169h616v-1169zM242 826q0 -21 -14 -35t-35 -14h-24q-22 0 -36 14t-14 35v37q0 21 14 35.5t36 14.5h24
q21 0 35 -14.5t14 -35.5v-37zM458 826q0 -21 -14.5 -35t-35.5 -14h-24q-22 0 -36 14t-14 35v37q0 21 14 35.5t36 14.5h24q21 0 35.5 -14.5t14.5 -35.5v-37z" />
    <glyph glyph-name="Aring" unicode="&#xc5;" horiz-adv-x="611" 
d="M295 729q-24 0 -45 8.5t-36.5 24t-24.5 36.5t-9 45t9 45t24.5 36.5t36.5 24t45 8.5t45 -8.5t36.5 -24t24.5 -36.5t9 -45t-9 -45t-24.5 -36.5t-36.5 -24t-45 -8.5zM295 810q-14 0 -22.5 9.5t-8.5 23.5t8.5 23.5t22.5 9.5t22.5 -9.5t8.5 -23.5t-8.5 -23.5t-22.5 -9.5z
M412 276h-238q9 37 24 72t31.5 66.5t33.5 57.5t30 44q13 -18 30 -44t33.5 -57.5t31.5 -66.5t24 -72v0zM283 680q-18 0 -33 -10.5t-24 -23.5q-30 -41 -64.5 -92.5t-63.5 -111t-48 -125.5t-19 -136v-130q0 -22 14.5 -36.5t36.5 -14.5h29q22 0 36.5 14.5t14.5 36.5v94h262v-94
q0 -22 14.5 -36.5t36.5 -14.5h29q22 0 36.5 14.5t14.5 36.5v130q0 70 -18.5 136.5t-47 126.5t-62.5 111t-66 91q-11 13 -25 23.5t-33 10.5h-20zM611 -244h-616v1169h616v-1169z" />
    <glyph glyph-name="Egrave" unicode="&#xc8;" horiz-adv-x="623" 
d="M516 0q22 0 36.5 14.5t14.5 36.5v29q0 22 -14.5 36.5t-36.5 14.5h-316v147h271q22 0 36.5 14.5t14.5 36.5v28q0 23 -14.5 37.5t-36.5 14.5h-271v140h316q22 0 36.5 14.5t14.5 36.5v29q0 22 -14.5 36.5t-36.5 14.5h-402q-22 0 -36.5 -14.5t-14.5 -36.5v-578
q0 -22 14.5 -36.5t36.5 -14.5h402zM623 -244h-628v1169h628v-1169zM285 762q-20 0 -32.5 8t-21.5 20l-66 88q-20 29 -7.5 46.5t37.5 17.5h46q19 0 31.5 -8t21.5 -22l55 -90q13 -21 8 -40.5t-39 -19.5h-33z" />
    <glyph glyph-name="Eacute" unicode="&#xc9;" horiz-adv-x="623" 
d="M288 726q20 0 33.5 5.5t22.5 13.5l69 60q15 13 9 28.5t-32 15.5h-54q-36 0 -55 -21l-57 -61q-13 -14 -8.5 -27.5t39.5 -13.5h33zM516 0q22 0 36.5 14.5t14.5 36.5v29q0 22 -14.5 36.5t-36.5 14.5h-316v147h271q22 0 36.5 14.5t14.5 36.5v28q0 23 -14.5 37.5t-36.5 14.5
h-271v140h316q22 0 36.5 14.5t14.5 36.5v29q0 22 -14.5 36.5t-36.5 14.5h-402q-22 0 -36.5 -14.5t-14.5 -36.5v-578q0 -22 14.5 -36.5t36.5 -14.5h402zM623 -244h-628v1169h628v-1169z" />
    <glyph glyph-name="Ecircumflex" unicode="&#xca;" horiz-adv-x="623" 
d="M198 754q-18 0 -27.5 5.5t-12.5 14.5t-0.5 19.5t9.5 20.5l64 91q11 14 23.5 21.5t29.5 7.5h41q30 0 51 -29l66 -91q7 -10 9.5 -20.5t-0.5 -19.5t-13 -14.5t-27 -5.5h-33q-20 0 -32.5 8t-21.5 20l-20 27l-19 -27q-9 -13 -22 -20.5t-33 -7.5h-32zM516 0q22 0 36.5 14.5
t14.5 36.5v29q0 22 -14.5 36.5t-36.5 14.5h-316v147h271q22 0 36.5 14.5t14.5 36.5v28q0 23 -14.5 37.5t-36.5 14.5h-271v140h316q22 0 36.5 14.5t14.5 36.5v29q0 22 -14.5 36.5t-36.5 14.5h-402q-22 0 -36.5 -14.5t-14.5 -36.5v-578q0 -22 14.5 -36.5t36.5 -14.5h402z
M623 -244h-628v1169h628v-1169z" />
    <glyph glyph-name="Edieresis" unicode="&#xcb;" horiz-adv-x="623" 
d="M516 0q22 0 36.5 14.5t14.5 36.5v29q0 22 -14.5 36.5t-36.5 14.5h-316v147h271q22 0 36.5 14.5t14.5 36.5v28q0 23 -14.5 37.5t-36.5 14.5h-271v140h316q22 0 36.5 14.5t14.5 36.5v29q0 22 -14.5 36.5t-36.5 14.5h-402q-22 0 -36.5 -14.5t-14.5 -36.5v-578
q0 -22 14.5 -36.5t36.5 -14.5h402zM623 -244h-628v1169h628v-1169zM248 826q0 -21 -14 -35t-35 -14h-24q-22 0 -36 14t-14 35v37q0 21 14 35.5t36 14.5h24q21 0 35 -14.5t14 -35.5v-37zM464 826q0 -21 -14.5 -35t-35.5 -14h-24q-22 0 -36 14t-14 35v37q0 21 14 35.5t36 14.5
h24q21 0 35.5 -14.5t14.5 -35.5v-37z" />
    <glyph glyph-name="Igrave" unicode="&#xcc;" horiz-adv-x="594" 
d="M503 0q22 0 36.5 14.5t14.5 36.5v29q0 22 -14.5 36.5t-36.5 14.5h-111v418h111q22 0 36.5 14.5t14.5 36.5v29q0 22 -14.5 36.5t-36.5 14.5h-159h-4h-196q-23 0 -37.5 -14.5t-14.5 -36.5v-29q0 -22 14.5 -36.5t37.5 -14.5h111v-418h-111q-23 0 -37.5 -14.5t-14.5 -36.5
v-29q0 -22 14.5 -36.5t37.5 -14.5h157h5h197zM594 -244h-547v1169h547v-1169zM307 762q-20 0 -32.5 8t-21.5 20l-66 88q-20 29 -7.5 46.5t37.5 17.5h46q19 0 31.5 -8t21.5 -22l55 -90q13 -21 8 -40.5t-39 -19.5h-33z" />
    <glyph glyph-name="Iacute" unicode="&#xcd;" horiz-adv-x="542" 
d="M274 726q20 0 33.5 5.5t22.5 13.5l69 60q15 13 9 28.5t-32 15.5h-54q-36 0 -55 -21l-57 -61q-13 -14 -8.5 -27.5t39.5 -13.5h33zM451 0q22 0 36.5 14.5t14.5 36.5v29q0 22 -14.5 36.5t-36.5 14.5h-111v418h111q22 0 36.5 14.5t14.5 36.5v29q0 22 -14.5 36.5t-36.5 14.5
h-159h-4h-196q-23 0 -37.5 -14.5t-14.5 -36.5v-29q0 -22 14.5 -36.5t37.5 -14.5h111v-418h-111q-23 0 -37.5 -14.5t-14.5 -36.5v-29q0 -22 14.5 -36.5t37.5 -14.5h157h5h197zM542 -244h-547v1169h547v-1169z" />
    <glyph glyph-name="Icircumflex" unicode="&#xce;" horiz-adv-x="594" 
d="M503 0q22 0 36.5 14.5t14.5 36.5v29q0 22 -14.5 36.5t-36.5 14.5h-111v418h111q22 0 36.5 14.5t14.5 36.5v29q0 22 -14.5 36.5t-36.5 14.5h-159h-4h-196q-23 0 -37.5 -14.5t-14.5 -36.5v-29q0 -22 14.5 -36.5t37.5 -14.5h111v-418h-111q-23 0 -37.5 -14.5t-14.5 -36.5
v-29q0 -22 14.5 -36.5t37.5 -14.5h157h5h197zM594 -244h-547v1169h547v-1169zM217 754q-18 0 -27.5 5.5t-12.5 14.5t-0.5 19.5t9.5 20.5l64 91q11 14 23.5 21.5t29.5 7.5h41q30 0 51 -29l66 -91q7 -10 9.5 -20.5t-0.5 -19.5t-13 -14.5t-27 -5.5h-33q-20 0 -32.5 8t-21.5 20
l-20 27l-19 -27q-9 -13 -22 -20.5t-33 -7.5h-32z" />
    <glyph glyph-name="Idieresis" unicode="&#xcf;" horiz-adv-x="615" 
d="M524 0q22 0 36.5 14.5t14.5 36.5v29q0 22 -14.5 36.5t-36.5 14.5h-111v418h111q22 0 36.5 14.5t14.5 36.5v29q0 22 -14.5 36.5t-36.5 14.5h-159h-4h-196q-23 0 -37.5 -14.5t-14.5 -36.5v-29q0 -22 14.5 -36.5t37.5 -14.5h111v-418h-111q-23 0 -37.5 -14.5t-14.5 -36.5
v-29q0 -22 14.5 -36.5t37.5 -14.5h157h5h197zM615 -244h-547v1169h547v-1169zM293 826q0 -21 -14 -35t-35 -14h-24q-22 0 -36 14t-14 35v37q0 21 14 35.5t36 14.5h24q21 0 35 -14.5t14 -35.5v-37zM509 826q0 -21 -14.5 -35t-35.5 -14h-24q-22 0 -36 14t-14 35v37
q0 21 14 35.5t36 14.5h24q21 0 35.5 -14.5t14.5 -35.5v-37z" />
    <glyph glyph-name="Ntilde" unicode="&#xd1;" horiz-adv-x="714" 
d="M286 743q8 0 16.5 -4t17.5 -9q15 -8 32.5 -15t36.5 -7q25 0 45 10.5t35 25.5q9 11 11 18t2 17v36q0 15 -5.5 23.5t-14 11.5t-18.5 0t-18 -11t-16.5 -12.5t-16.5 -4.5t-17 3.5t-17 8.5q-14 8 -32 15t-37 7q-24 0 -44 -10.5t-36 -26.5q-9 -11 -11.5 -17.5t-2.5 -16.5v-35
q0 -15 5.5 -23.5t14 -11t18.5 0.5t19 11q7 7 15.5 11.5t17.5 4.5zM490 337l-295 226v66q0 22 -14.5 36.5t-36.5 14.5h-28q-23 0 -37.5 -14.5t-14.5 -36.5v-578q0 -22 14.5 -36.5t37.5 -14.5h28q22 0 36.5 14.5t14.5 36.5v344l295 -224v-120q0 -22 14.5 -36.5t36.5 -14.5h28
q23 0 37.5 14.5t14.5 36.5v578q0 22 -14.5 36.5t-37.5 14.5h-28q-22 0 -36.5 -14.5t-14.5 -36.5v-292zM714 -244h-719v1169h719v-1169z" />
    <glyph glyph-name="Ograve" unicode="&#xd2;" 
d="M298 690q-88 0 -149.5 -41.5t-88.5 -123.5q-5 -15 -8.5 -31t-6 -37t-3.5 -49.5t-1 -67.5t1 -67.5t3.5 -49.5t6 -37t8.5 -31q27 -82 88.5 -123.5t149.5 -41.5h55q88 0 149.5 41.5t89.5 123.5q5 15 8.5 31t5.5 37t3 49.5t1 67.5t-1 67.5t-3 49.5t-5.5 37t-8.5 31
q-28 82 -89.5 123.5t-149.5 41.5h-55zM353 559q42 0 68.5 -19.5t37.5 -54.5q5 -16 9 -48.5t4 -96.5t-4 -96.5t-9 -48.5q-11 -35 -37.5 -54.5t-68.5 -19.5h-55q-42 0 -68 19.5t-38 54.5q-5 16 -9 48.5t-4 96.5t4 96.5t9 48.5q12 35 38 54.5t68 19.5h55zM679 -244h-684v1169
h684v-1169zM274 762q-20 0 -32.5 8t-21.5 20l-66 88q-20 29 -7.5 46.5t37.5 17.5h46q19 0 31.5 -8t21.5 -22l55 -90q13 -21 8 -40.5t-39 -19.5h-33z" />
    <glyph glyph-name="Oacute" unicode="&#xd3;" 
d="M339 726q20 0 33.5 5.5t22.5 13.5l69 60q15 13 9 28.5t-32 15.5h-54q-36 0 -55 -21l-57 -61q-13 -14 -8.5 -27.5t39.5 -13.5h33zM298 690q-88 0 -149.5 -41.5t-88.5 -123.5q-5 -15 -8.5 -31t-6 -37t-3.5 -49.5t-1 -67.5t1 -67.5t3.5 -49.5t6 -37t8.5 -31
q27 -82 88.5 -123.5t149.5 -41.5h55q88 0 149.5 41.5t89.5 123.5q5 15 8.5 31t5.5 37t3 49.5t1 67.5t-1 67.5t-3 49.5t-5.5 37t-8.5 31q-28 82 -89.5 123.5t-149.5 41.5h-55zM353 559q42 0 68.5 -19.5t37.5 -54.5q5 -16 9 -48.5t4 -96.5t-4 -96.5t-9 -48.5
q-11 -35 -37.5 -54.5t-68.5 -19.5h-55q-42 0 -68 19.5t-38 54.5q-5 16 -9 48.5t-4 96.5t4 96.5t9 48.5q12 35 38 54.5t68 19.5h55zM679 -244h-684v1169h684v-1169z" />
    <glyph glyph-name="Ocircumflex" unicode="&#xd4;" 
d="M298 690q-88 0 -149.5 -41.5t-88.5 -123.5q-5 -15 -8.5 -31t-6 -37t-3.5 -49.5t-1 -67.5t1 -67.5t3.5 -49.5t6 -37t8.5 -31q27 -82 88.5 -123.5t149.5 -41.5h55q88 0 149.5 41.5t89.5 123.5q5 15 8.5 31t5.5 37t3 49.5t1 67.5t-1 67.5t-3 49.5t-5.5 37t-8.5 31
q-28 82 -89.5 123.5t-149.5 41.5h-55zM353 559q42 0 68.5 -19.5t37.5 -54.5q5 -16 9 -48.5t4 -96.5t-4 -96.5t-9 -48.5q-11 -35 -37.5 -54.5t-68.5 -19.5h-55q-42 0 -68 19.5t-38 54.5q-5 16 -9 48.5t-4 96.5t4 96.5t9 48.5q12 35 38 54.5t68 19.5h55zM679 -244h-684v1169
h684v-1169zM221 754q-18 0 -27.5 5.5t-12.5 14.5t-0.5 19.5t9.5 20.5l64 91q11 14 23.5 21.5t29.5 7.5h41q30 0 51 -29l66 -91q7 -10 9.5 -20.5t-0.5 -19.5t-13 -14.5t-27 -5.5h-33q-20 0 -32.5 8t-21.5 20l-20 27l-19 -27q-9 -13 -22 -20.5t-33 -7.5h-32z" />
    <glyph glyph-name="Otilde" unicode="&#xd5;" 
d="M298 690q-88 0 -149.5 -41.5t-88.5 -123.5q-5 -15 -8.5 -31t-6 -37t-3.5 -49.5t-1 -67.5t1 -67.5t3.5 -49.5t6 -37t8.5 -31q27 -82 88.5 -123.5t149.5 -41.5h55q88 0 149.5 41.5t89.5 123.5q5 15 8.5 31t5.5 37t3 49.5t1 67.5t-1 67.5t-3 49.5t-5.5 37t-8.5 31
q-28 82 -89.5 123.5t-149.5 41.5h-55zM353 559q42 0 68.5 -19.5t37.5 -54.5q5 -16 9 -48.5t4 -96.5t-4 -96.5t-9 -48.5q-11 -35 -37.5 -54.5t-68.5 -19.5h-55q-42 0 -68 19.5t-38 54.5q-5 16 -9 48.5t-4 96.5t4 96.5t9 48.5q12 35 38 54.5t68 19.5h55zM679 -244h-684v1169
h684v-1169zM274 802q-9 0 -17.5 -4.5t-15.5 -11.5q-9 -8 -19 -11t-18.5 -0.5t-14 11t-5.5 23.5v35q0 10 2.5 16.5t11.5 17.5q16 16 36 26.5t44 10.5q19 0 37 -7t32 -15q8 -5 17 -8.5t17 -3.5t16.5 4.5t16.5 12.5t18 11t18.5 0t14 -11.5t5.5 -23.5v-36q0 -10 -2 -17t-11 -18
q-15 -15 -35 -25.5t-45 -10.5q-19 0 -36.5 7t-32.5 15q-9 5 -17.5 9t-16.5 4z" />
    <glyph glyph-name="Odieresis" unicode="&#xd6;" 
d="M298 690q-88 0 -149.5 -41.5t-88.5 -123.5q-5 -15 -8.5 -31t-6 -37t-3.5 -49.5t-1 -67.5t1 -67.5t3.5 -49.5t6 -37t8.5 -31q27 -82 88.5 -123.5t149.5 -41.5h55q88 0 149.5 41.5t89.5 123.5q5 15 8.5 31t5.5 37t3 49.5t1 67.5t-1 67.5t-3 49.5t-5.5 37t-8.5 31
q-28 82 -89.5 123.5t-149.5 41.5h-55zM353 559q42 0 68.5 -19.5t37.5 -54.5q5 -16 9 -48.5t4 -96.5t-4 -96.5t-9 -48.5q-11 -35 -37.5 -54.5t-68.5 -19.5h-55q-42 0 -68 19.5t-38 54.5q-5 16 -9 48.5t-4 96.5t4 96.5t9 48.5q12 35 38 54.5t68 19.5h55zM679 -244h-684v1169
h684v-1169zM281 826q0 -21 -14 -35t-35 -14h-24q-22 0 -36 14t-14 35v37q0 21 14 35.5t36 14.5h24q21 0 35 -14.5t14 -35.5v-37zM497 826q0 -21 -14.5 -35t-35.5 -14h-24q-22 0 -36 14t-14 35v37q0 21 14 35.5t36 14.5h24q21 0 35.5 -14.5t14.5 -35.5v-37z" />
    <glyph glyph-name="Scaron" unicode="&#x160;" horiz-adv-x="568" 
d="M219 931q20 0 33 -7.5t22 -20.5l19 -27l20 27q9 12 21.5 20t32.5 8h33q17 0 27 -5.5t13 -14.5t0.5 -19.5t-9.5 -20.5l-66 -91q-21 -29 -51 -29h-41q-17 0 -29.5 7.5t-23.5 21.5l-64 91q-7 10 -9.5 20.5t0.5 19.5t12.5 14.5t27.5 5.5h32zM344 -10q63 0 111 16t80.5 45
t48.5 68.5t16 86.5q0 85 -55.5 139t-154.5 63l-85 6q-59 4 -82.5 23.5t-23.5 47.5q0 32 23 52t68 20h55q64 0 125 -34q20 -11 40 -5.5t31 25.5v-1l16 26q10 20 5 40t-24 31q-38 23 -87.5 37t-102.5 14h-55q-53 0 -96 -15t-73 -42.5t-46.5 -66t-16.5 -86.5q0 -84 56 -138
t154 -63l86 -5q61 -4 83 -24.5t22 -49.5q0 -35 -29 -56t-81 -21h-55q-44 0 -82 14t-64 33q-17 12 -38 11t-34 -17l-22 -26q-15 -18 -13.5 -38t18.5 -35q40 -31 100.5 -53t126.5 -22h55zM671 -244h-676v1169h676v-1169z" />
    <glyph glyph-name="Ugrave" unicode="&#xd9;" horiz-adv-x="699" 
d="M308 121q-51 0 -81.5 31.5t-30.5 93.5v383q0 22 -14.5 36.5t-36.5 14.5h-34q-23 0 -37.5 -14.5t-14.5 -36.5v-384q0 -124 66 -189.5t183 -65.5h55q117 0 182.5 65.5t65.5 189.5v384q0 22 -14.5 36.5t-36.5 14.5h-34q-22 0 -36.5 -14.5t-14.5 -36.5v-383q0 -62 -31 -93.5
t-81 -31.5h-55zM699 -244h-704v1169h704v-1169zM299 762q-20 0 -32.5 8t-21.5 20l-66 88q-20 29 -7.5 46.5t37.5 17.5h46q19 0 31.5 -8t21.5 -22l55 -90q13 -21 8 -40.5t-39 -19.5h-33z" />
    <glyph glyph-name="Uacute" unicode="&#xda;" horiz-adv-x="699" 
d="M352 726q20 0 33.5 5.5t22.5 13.5l69 60q15 13 9 28.5t-32 15.5h-54q-36 0 -55 -21l-57 -61q-13 -14 -8.5 -27.5t39.5 -13.5h33zM308 121q-51 0 -81.5 31.5t-30.5 93.5v383q0 22 -14.5 36.5t-36.5 14.5h-34q-23 0 -37.5 -14.5t-14.5 -36.5v-384q0 -124 66 -189.5
t183 -65.5h55q117 0 182.5 65.5t65.5 189.5v384q0 22 -14.5 36.5t-36.5 14.5h-34q-22 0 -36.5 -14.5t-14.5 -36.5v-383q0 -62 -31 -93.5t-81 -31.5h-55zM699 -244h-704v1169h704v-1169z" />
    <glyph glyph-name="Ucircumflex" unicode="&#xdb;" horiz-adv-x="699" 
d="M308 121q-51 0 -81.5 31.5t-30.5 93.5v383q0 22 -14.5 36.5t-36.5 14.5h-34q-23 0 -37.5 -14.5t-14.5 -36.5v-384q0 -124 66 -189.5t183 -65.5h55q117 0 182.5 65.5t65.5 189.5v384q0 22 -14.5 36.5t-36.5 14.5h-34q-22 0 -36.5 -14.5t-14.5 -36.5v-383q0 -62 -31 -93.5
t-81 -31.5h-55zM699 -244h-704v1169h704v-1169zM231 754q-18 0 -27.5 5.5t-12.5 14.5t-0.5 19.5t9.5 20.5l64 91q11 14 23.5 21.5t29.5 7.5h41q30 0 51 -29l66 -91q7 -10 9.5 -20.5t-0.5 -19.5t-13 -14.5t-27 -5.5h-33q-20 0 -32.5 8t-21.5 20l-20 27l-19 -27
q-9 -13 -22 -20.5t-33 -7.5h-32z" />
    <glyph glyph-name="Udieresis" unicode="&#xdc;" horiz-adv-x="699" 
d="M308 121q-51 0 -81.5 31.5t-30.5 93.5v383q0 22 -14.5 36.5t-36.5 14.5h-34q-23 0 -37.5 -14.5t-14.5 -36.5v-384q0 -124 66 -189.5t183 -65.5h55q117 0 182.5 65.5t65.5 189.5v384q0 22 -14.5 36.5t-36.5 14.5h-34q-22 0 -36.5 -14.5t-14.5 -36.5v-383q0 -62 -31 -93.5
t-81 -31.5h-55zM699 -244h-704v1169h704v-1169zM291 826q0 -21 -14 -35t-35 -14h-24q-22 0 -36 14t-14 35v37q0 21 14 35.5t36 14.5h24q21 0 35 -14.5t14 -35.5v-37zM507 826q0 -21 -14.5 -35t-35.5 -14h-24q-22 0 -36 14t-14 35v37q0 21 14 35.5t36 14.5h24
q21 0 35.5 -14.5t14.5 -35.5v-37z" />
    <glyph glyph-name="Yacute" unicode="&#xdd;" horiz-adv-x="586" 
d="M151 636q-7 21 -22 32.5t-34 11.5h-45q-27 0 -36.5 -17.5t-4.5 -40.5q9 -33 27.5 -74.5t44.5 -87.5t59 -93.5t73 -93.5v-222q0 -22 14.5 -36.5t37.5 -14.5h33q22 0 36.5 14.5t14.5 36.5v222q40 45 73.5 93t59.5 94t44 87.5t27 74.5q5 23 -4 40.5t-37 17.5h-44
q-20 0 -35 -11.5t-21 -32.5q-14 -46 -47.5 -107.5t-83.5 -126.5q-51 65 -84 126.5t-46 107.5zM586 -244h-591v1169h591v-1169zM260 746q-35 0 -39.5 13.5t8.5 27.5l57 61q19 21 55 21h54q26 0 32 -15.5t-9 -28.5l-69 -60q-9 -8 -22.5 -13.5t-33.5 -5.5h-33z" />
    <glyph glyph-name="Ydieresis" unicode="&#x178;" horiz-adv-x="503" 
d="M151 636q-7 21 -22 32.5t-34 11.5h-45q-27 0 -36.5 -17.5t-4.5 -40.5q9 -33 27.5 -74.5t44.5 -87.5t59 -93.5t73 -93.5v-222q0 -22 14.5 -36.5t37.5 -14.5h33q22 0 36.5 14.5t14.5 36.5v222q40 45 73.5 93t59.5 94t44 87.5t27 74.5q5 23 -4 40.5t-37 17.5h-44
q-20 0 -35 -11.5t-21 -32.5q-14 -46 -47.5 -107.5t-83.5 -126.5q-51 65 -84 126.5t-46 107.5zM586 -244h-591v1169h591v-1169zM205 826q0 -21 -14 -35t-35 -14h-24q-22 0 -36 14t-14 35v37q0 21 14 35.5t36 14.5h24q21 0 35 -14.5t14 -35.5v-37zM421 826q0 -21 -14.5 -35
t-35.5 -14h-24q-22 0 -36 14t-14 35v37q0 21 14 35.5t36 14.5h24q21 0 35.5 -14.5t14.5 -35.5v-37z" />
    <glyph glyph-name="quoteleft" unicode="&#x2018;" horiz-adv-x="215" 
d="M77 473q-18 0 -29 11t-11 29v83q0 14 4 22t12 20l51 56q15 18 35 18t29.5 -11t9.5 -29v-159q0 -18 -11 -29t-29 -11h-61z" />
    <glyph glyph-name="quoteright" unicode="&#x2019;" horiz-adv-x="215" 
d="M76 471q-17 0 -28 11t-11 29v159q0 18 11 29t29 11h61q18 0 29 -11t11 -29v-83q0 -12 -2.5 -20t-12.5 -22l-50 -55q-16 -19 -37 -19z" />
    <glyph glyph-name="quotedblleft" unicode="&#x201c;" horiz-adv-x="472" 
d="M304 473q-18 0 -29 11t-11 29v83q0 12 2.5 20t12.5 22l50 55q16 19 37 19q17 0 28 -11t11 -29v-159q0 -18 -11 -29t-29 -11h-61zM107 473q-18 0 -29 11t-11 29v83q0 14 4 22t12 20l50 55q16 19 36 19t29.5 -11t9.5 -29v-159q0 -18 -11 -29t-29 -11h-61z" />
    <glyph glyph-name="quotedblright" unicode="&#x201d;" horiz-adv-x="472" 
d="M303 471q-20 0 -29.5 11t-9.5 29v159q0 18 11 29t29 11h61q18 0 29 -11t11 -29v-83q0 -14 -4 -22t-12 -20l-50 -55q-16 -19 -36 -19zM106 471q-17 0 -28 11t-11 29v159q0 18 11 29t29 11h61q18 0 29 -11t11 -29v-83q0 -13 -2.5 -21.5t-11.5 -19.5l-49 -54
q-8 -12 -18 -16.5t-21 -4.5z" />
    <glyph glyph-name="bullet" unicode="&#x2022;" horiz-adv-x="442" 
d="M221 150q-34 0 -63 11.5t-50 32.5t-32.5 50t-11.5 64t11.5 64t32.5 50t50 32.5t63 11.5t62.5 -11.5t49.5 -32.5t33 -50t12 -64t-12 -64t-33 -50t-49.5 -32.5t-62.5 -11.5z" />
    <glyph glyph-name="multiply" unicode="&#xd7;" horiz-adv-x="555" 
d="M421 94q-10 -10 -24.5 -9.5t-25.5 9.5q-21 21 -46 45.5t-48 47.5l-93 -93q-12 -11 -26 -11t-25 11l-34 36q-9 11 -9 24.5t10 24.5l93 93l-93 93q-10 11 -10 24.5t9 24.5q8 8 17 17.5t17 17.5q11 11 25.5 11.5t25.5 -10.5l93 -94l94 94q10 10 24.5 10t25.5 -11l34 -35
q9 -11 9 -24.5t-10 -24.5l-94 -93l94 -93q11 -11 11 -25t-11 -25h1z" />
    <glyph glyph-name="degree" unicode="&#xb0;" horiz-adv-x="456" 
d="M228 367q-38 0 -70 13.5t-55.5 37t-37 55.5t-13.5 70q0 37 13.5 69.5t37 56t55.5 37t70 13.5t70 -13.5t55.5 -37t37 -56t13.5 -69.5q0 -38 -13.5 -70t-37 -55.5t-55.5 -37t-70 -13.5zM228 479q27 0 44 18t17 46t-17 46t-44 18t-44 -18t-17 -46t17 -46t44 -18z" />
    <glyph glyph-name="A" unicode="A" horiz-adv-x="611" 
d="M412 276h-238q9 37 24 72t31.5 66.5t33.5 57.5t30 44q13 -18 30 -44t33.5 -57.5t31.5 -66.5t24 -72v0zM283 680q-18 0 -33 -10.5t-24 -23.5q-30 -41 -64.5 -92.5t-63.5 -111t-48 -125.5t-19 -136v-130q0 -22 14.5 -36.5t36.5 -14.5h29q22 0 36.5 14.5t14.5 36.5v94h262
v-94q0 -22 14.5 -36.5t36.5 -14.5h29q22 0 36.5 14.5t14.5 36.5v130q0 70 -18.5 136.5t-47 126.5t-62.5 111t-66 91q-11 13 -25 23.5t-33 10.5h-20zM611 -244h-616v1169h616v-1169z" />
    <glyph glyph-name="B" unicode="B" horiz-adv-x="664" 
d="M375 550q39 0 60.5 -19t21.5 -51t-21.5 -51t-60.5 -19h-174v140h174zM380 280q43 0 65 -20.5t22 -54.5q0 -35 -22 -55t-65 -20h-179v150h179zM372 0q112 0 172 52t60 154q0 51 -19.5 87.5t-46.5 58.5q23 22 39 57t16 79q0 88 -53.5 140t-162.5 52h-262q-22 0 -36.5 -14.5
t-14.5 -36.5v-578q0 -22 14.5 -36.5t36.5 -14.5h257zM664 -244h-669v1169h669v-1169z" />
    <glyph glyph-name="C" unicode="C" horiz-adv-x="626" 
d="M347 -10q75 0 130 33.5t87 93.5q11 19 4.5 39t-26.5 30l-28 14q-19 10 -38 4.5t-30 -25.5q-16 -25 -40 -41.5t-59 -16.5h-55q-41 0 -66.5 19t-36.5 54q-3 9 -5 19.5t-3.5 27t-2 40.5t-0.5 59t0.5 59t2 40t3 26.5t4.5 19.5q22 74 104 74h55q36 0 60 -15.5t38 -40.5
q11 -21 30.5 -27t39.5 5l-1 -1l28 13q20 11 26.5 31t-4.5 39q-32 61 -87 94t-130 33h-55q-87 0 -147.5 -41t-86.5 -125q-5 -15 -8 -30.5t-5.5 -36.5t-3.5 -49t-1 -68t1 -68t3.5 -49t5.5 -36.5t8 -30.5q27 -84 87 -125t147 -41h55zM626 -244h-631v1169h631v-1169z" />
    <glyph glyph-name="D" unicode="D" horiz-adv-x="683" 
d="M366 0q86 0 146.5 40.5t84.5 112.5q4 13 7 28.5t5.5 37t3.5 51t1 70.5q0 40 -1 69.5t-3.5 51.5t-5.5 37.5t-7 28.5q-24 72 -84.5 112.5t-146.5 40.5h-251q-22 0 -36.5 -14.5t-14.5 -36.5v-578q0 -22 14.5 -36.5t36.5 -14.5h251zM349 549q91 0 116 -67q3 -8 5 -17.5
t3.5 -25.5t2.5 -39.5t1 -59.5t-1 -60t-2.5 -39.5t-3.5 -25.5t-5 -17q-25 -67 -116 -67h-148v418h148zM683 -244h-688v1169h688v-1169z" />
    <glyph glyph-name="E" unicode="E" horiz-adv-x="623" 
d="M516 0q22 0 36.5 14.5t14.5 36.5v29q0 22 -14.5 36.5t-36.5 14.5h-316v147h271q22 0 36.5 14.5t14.5 36.5v28q0 23 -14.5 37.5t-36.5 14.5h-271v140h316q22 0 36.5 14.5t14.5 36.5v29q0 22 -14.5 36.5t-36.5 14.5h-402q-22 0 -36.5 -14.5t-14.5 -36.5v-578
q0 -22 14.5 -36.5t36.5 -14.5h402zM623 -244h-628v1169h628v-1169z" />
    <glyph glyph-name="F" unicode="F" horiz-adv-x="616" 
d="M148 0q23 0 37.5 14.5t14.5 36.5v220h262q22 0 36.5 14.5t14.5 37.5v28q0 22 -14.5 36.5t-36.5 14.5h-262v147h307q22 0 36.5 14.5t14.5 36.5v29q0 22 -14.5 36.5t-36.5 14.5h-393q-22 0 -36.5 -14.5t-14.5 -36.5v-578q0 -22 14.5 -36.5t36.5 -14.5h34zM616 -244h-621
v1169h621v-1169z" />
    <glyph glyph-name="G" unicode="G" 
d="M355 -10q88 0 150.5 43.5t88.5 123.5q8 24 12 62.5t4 83.5v32q0 23 -14.5 37.5t-36.5 14.5h-170q-23 0 -37.5 -14.5t-14.5 -37.5v-23q0 -23 14.5 -37.5t37.5 -14.5h83q-1 -23 -3.5 -39.5t-6.5 -28.5q-11 -34 -40 -52.5t-67 -18.5h-55q-44 0 -70.5 19.5t-39.5 54.5
q-3 7 -5 17.5t-3.5 27t-2 41t-0.5 59.5t0.5 59t2 40.5t3.5 27t5 17.5q13 36 39.5 55.5t70.5 19.5h55q71 0 106 -57q13 -22 31 -26.5t38 6.5l-1 -1l29 13q19 11 26 30.5t-4 39.5q-29 53 -84.5 89.5t-140.5 36.5h-55q-90 0 -152.5 -41.5t-88.5 -123.5q-5 -14 -8 -29.5
t-5.5 -36.5t-3.5 -50t-1 -69q0 -41 1 -69.5t3.5 -49.5t5.5 -36.5t8 -29.5q26 -82 88.5 -123.5t152.5 -41.5h55zM679 -244h-684v1169h684v-1169z" />
    <glyph glyph-name="H" unicode="H" horiz-adv-x="713" 
d="M64 51q0 -22 14.5 -36.5t37.5 -14.5h34q22 0 36.5 14.5t14.5 36.5v227h282v-227q0 -22 14.5 -36.5t37.5 -14.5h34q22 0 36.5 14.5t14.5 36.5v578q0 22 -14.5 36.5t-36.5 14.5h-34q-23 0 -37.5 -14.5t-14.5 -36.5v-220h-282v220q0 22 -14.5 36.5t-36.5 14.5h-34
q-23 0 -37.5 -14.5t-14.5 -36.5v-578zM713 -244h-718v1169h718v-1169z" />
    <glyph glyph-name="I" unicode="I" horiz-adv-x="542" 
d="M451 0q22 0 36.5 14.5t14.5 36.5v29q0 22 -14.5 36.5t-36.5 14.5h-111v418h111q22 0 36.5 14.5t14.5 36.5v29q0 22 -14.5 36.5t-36.5 14.5h-159h-4h-196q-23 0 -37.5 -14.5t-14.5 -36.5v-29q0 -22 14.5 -36.5t37.5 -14.5h111v-418h-111q-23 0 -37.5 -14.5t-14.5 -36.5
v-29q0 -22 14.5 -36.5t37.5 -14.5h157h5h197zM542 -244h-547v1169h547v-1169z" />
    <glyph glyph-name="J" unicode="J" horiz-adv-x="551" 
d="M244 -10q52 0 94 15t72 45t46 74.5t16 103.5v401q0 22 -14.5 36.5t-37.5 14.5h-34q-22 0 -36.5 -14.5t-14.5 -36.5v-401q0 -55 -23.5 -81t-65.5 -26h-55q-19 0 -35 7t-27 16q-33 29 -69 3l-25 -20h1q-18 -15 -19 -37.5t14 -38.5q28 -26 69 -43.5t89 -17.5h55zM551 -244
h-556v1169h556v-1169z" />
    <glyph glyph-name="K" unicode="K" horiz-adv-x="616" 
d="M287 355q32 30 61.5 57.5t58 54.5t58 54.5t61.5 58.5h-1q16 14 23.5 24.5t7.5 24.5q0 22 -14.5 36.5t-37.5 14.5h-44q-22 0 -37.5 -11t-25.5 -20l-197 -187v167q0 22 -14.5 36.5t-36.5 14.5h-34q-23 0 -37.5 -14.5t-14.5 -36.5v-578q0 -22 14.5 -36.5t37.5 -14.5h34
q22 0 36.5 14.5t14.5 36.5v192l225 -212q10 -9 25.5 -20t38.5 -11h44q22 0 36.5 14.5t14.5 36.5q0 15 -9 26.5t-23 25.5h1zM616 -244h-621v1169h621v-1169z" />
    <glyph glyph-name="L" unicode="L" horiz-adv-x="598" 
d="M63 51q0 -22 14.5 -36.5t36.5 -14.5h402q22 0 36.5 14.5t14.5 36.5v29q0 22 -14.5 36.5t-36.5 14.5h-316v498q0 22 -14.5 36.5t-37.5 14.5h-34q-22 0 -36.5 -14.5t-14.5 -36.5v-578zM598 -244h-603v1169h603v-1169z" />
    <glyph glyph-name="M" unicode="M" horiz-adv-x="755" 
d="M755 -244h-760v1169h760v-1169zM196 563v66q0 22 -14.5 36.5t-36.5 14.5h-29q-22 0 -36.5 -14.5t-14.5 -36.5v-578q0 -22 14.5 -36.5t36.5 -14.5h29q22 0 36.5 14.5t14.5 36.5v327l132 -119q15 -14 34.5 -13.5t35.5 13.5l130 119v-327q0 -22 14.5 -36.5t36.5 -14.5h29
q22 0 36.5 14.5t14.5 36.5v578q0 22 -14.5 36.5t-36.5 14.5h-29q-22 0 -36.5 -14.5t-14.5 -36.5v-66l-166 -152z" />
    <glyph glyph-name="N" unicode="N" horiz-adv-x="714" 
d="M490 337l-295 226v66q0 22 -14.5 36.5t-36.5 14.5h-28q-23 0 -37.5 -14.5t-14.5 -36.5v-578q0 -22 14.5 -36.5t37.5 -14.5h28q22 0 36.5 14.5t14.5 36.5v344l295 -224v-120q0 -22 14.5 -36.5t36.5 -14.5h28q23 0 37.5 14.5t14.5 36.5v578q0 22 -14.5 36.5t-37.5 14.5h-28
q-22 0 -36.5 -14.5t-14.5 -36.5v-292zM714 -244h-719v1169h719v-1169z" />
    <glyph glyph-name="O" unicode="O" 
d="M298 690q-88 0 -149.5 -41.5t-88.5 -123.5q-5 -15 -8.5 -31t-6 -37t-3.5 -49.5t-1 -67.5t1 -67.5t3.5 -49.5t6 -37t8.5 -31q27 -82 88.5 -123.5t149.5 -41.5h55q88 0 149.5 41.5t89.5 123.5q5 15 8.5 31t5.5 37t3 49.5t1 67.5t-1 67.5t-3 49.5t-5.5 37t-8.5 31
q-28 82 -89.5 123.5t-149.5 41.5h-55zM353 559q42 0 68.5 -19.5t37.5 -54.5q5 -16 9 -48.5t4 -96.5t-4 -96.5t-9 -48.5q-11 -35 -37.5 -54.5t-68.5 -19.5h-55q-42 0 -68 19.5t-38 54.5q-5 16 -9 48.5t-4 96.5t4 96.5t9 48.5q12 35 38 54.5t68 19.5h55zM679 -244h-684v1169
h684v-1169z" />
    <glyph glyph-name="P" unicode="P" horiz-adv-x="652" 
d="M468 466v-37q0 -38 -25 -60.5t-70 -22.5h-172v203h172q45 0 70 -22.5t25 -60.5zM604 429v37q0 48 -16 87.5t-45.5 67.5t-71.5 43.5t-93 15.5h-263q-22 0 -36.5 -14.5t-14.5 -36.5v-578q0 -22 14.5 -36.5t36.5 -14.5h34q23 0 37.5 14.5t14.5 36.5v164h177q51 0 93 15.5
t71.5 43.5t45.5 67.5t16 87.5v0zM652 -244h-657v1169h657v-1169z" />
    <glyph glyph-name="Q" unicode="Q" 
d="M353 -10q38 0 71.5 8t61.5 22l48 -48q14 -13 28.5 -12t24.5 12l41 45q24 25 -1 50l-50 50q4 8 7.5 17.5t7.5 20.5q5 15 8.5 31t6 37t3.5 49.5t1 67.5t-1 67.5t-3.5 49.5t-6 37t-8.5 31q-27 82 -88.5 123.5t-150.5 41.5h-55q-88 0 -149 -41.5t-89 -123.5q-5 -15 -8.5 -31
t-5.5 -37t-3 -49.5t-1 -67.5t1 -67.5t3 -49.5t5.5 -37t8.5 -31q28 -82 89 -123.5t149 -41.5h55zM298 121q-41 0 -67.5 19.5t-37.5 54.5q-5 16 -9 48.5t-4 96.5t4 96.5t9 48.5q11 35 37.5 54.5t67.5 19.5h55q42 0 68.5 -19.5t38.5 -54.5q5 -16 9 -48.5t4 -96.5q0 -40 -2 -67
t-5 -45l-29 30q-12 12 -26.5 12t-27.5 -14l-40 -44q-22 -25 2 -49h-1l39 -39q-14 -3 -30 -3h-55zM679 -244h-684v1169h684v-1169z" />
    <glyph glyph-name="R" unicode="R" horiz-adv-x="677" 
d="M468 472v-36q0 -36 -23 -56.5t-65 -20.5h-179v190h179q42 0 65 -20.5t23 -56.5zM508 258q47 26 72 71.5t25 106.5v36q0 47 -16 85.5t-45.5 65.5t-70.5 42t-91 15h-267q-22 0 -36.5 -14.5t-14.5 -36.5v-578q0 -22 14.5 -36.5t36.5 -14.5h34q23 0 37.5 14.5t14.5 36.5v177
h171l93 -189q8 -15 24 -27t34 -12h41q26 0 39.5 19.5t1.5 44.5zM677 -244h-682v1169h682v-1169z" />
    <glyph glyph-name="S" unicode="S" horiz-adv-x="671" 
d="M344 -10q63 0 111 16t80.5 45t48.5 68.5t16 86.5q0 85 -55.5 139t-154.5 63l-85 6q-59 4 -82.5 23.5t-23.5 47.5q0 32 23 52t68 20h55q64 0 125 -34q20 -11 40 -5.5t31 25.5v-1l16 26q10 20 5 40t-24 31q-38 23 -87.5 37t-102.5 14h-55q-53 0 -96 -15t-73 -42.5
t-46.5 -66t-16.5 -86.5q0 -84 56 -138t154 -63l86 -5q61 -4 83 -24.5t22 -49.5q0 -35 -29 -56t-81 -21h-55q-44 0 -82 14t-64 33q-17 12 -38 11t-34 -17l-22 -26q-15 -18 -13.5 -38t18.5 -35q40 -31 100.5 -53t126.5 -22h55zM671 -244h-676v1169h676v-1169z" />
    <glyph glyph-name="T" unicode="T" horiz-adv-x="597" 
d="M269 0h34q23 0 37.5 14.5t14.5 36.5v498h162q22 0 36.5 14.5t14.5 36.5v29q0 22 -14.5 36.5t-36.5 14.5h-461q-22 0 -36.5 -14.5t-14.5 -36.5v-29q0 -22 14.5 -36.5t36.5 -14.5h162v-498q0 -22 14.5 -36.5t36.5 -14.5zM597 -244h-602v1169h602v-1169z" />
    <glyph glyph-name="U" unicode="U" horiz-adv-x="699" 
d="M308 121q-51 0 -81.5 31.5t-30.5 93.5v383q0 22 -14.5 36.5t-36.5 14.5h-34q-23 0 -37.5 -14.5t-14.5 -36.5v-384q0 -124 66 -189.5t183 -65.5h55q117 0 182.5 65.5t65.5 189.5v384q0 22 -14.5 36.5t-36.5 14.5h-34q-22 0 -36.5 -14.5t-14.5 -36.5v-383q0 -62 -31 -93.5
t-81 -31.5h-55zM699 -244h-704v1169h704v-1169z" />
    <glyph glyph-name="V" unicode="V" horiz-adv-x="611" 
d="M424 498q0 -54 -14.5 -104.5t-34.5 -94.5t-42.5 -79t-38.5 -56q-17 21 -39.5 56t-43 78.5t-35 94.5t-14.5 105v131q0 22 -14.5 36.5t-36.5 14.5h-29q-22 0 -36.5 -14.5t-14.5 -36.5v-130q0 -70 19 -136t48 -125.5t63.5 -111t64.5 -92.5q9 -13 24 -23.5t33 -10.5h20
q19 0 33 10.5t25 23.5q32 40 66 91t62.5 111t47 126.5t18.5 136.5v130q0 22 -14.5 36.5t-36.5 14.5h-29q-22 0 -36.5 -14.5t-14.5 -36.5v-131zM611 -244h-616v1169h616v-1169z" />
    <glyph glyph-name="W" unicode="W" horiz-adv-x="823" 
d="M431 498q0 -54 -14.5 -104.5t-34.5 -94.5t-42.5 -79t-39.5 -56q-17 21 -39 56t-42.5 78.5t-35 94.5t-14.5 105v131q0 22 -14.5 36.5t-36.5 14.5h-29q-22 0 -36.5 -14.5t-14.5 -36.5v-130q0 -70 18.5 -136.5t47 -126t63 -111t65.5 -91.5q10 -13 25 -23.5t33 -10.5h20
q18 0 32.5 10.5t25.5 23.5q11 14 22.5 29t23.5 32q11 -17 22 -31.5t22 -28.5q10 -13 24.5 -24t32.5 -11h20q19 0 33 10.5t25 23.5q32 40 66 91t62.5 111t47 126.5t18.5 136.5v130q0 22 -14.5 36.5t-36.5 14.5h-28q-23 0 -37.5 -14.5t-14.5 -36.5v-131q0 -54 -14.5 -104.5
t-34.5 -94.5t-42.5 -78.5t-38.5 -56.5q-9 11 -18.5 24t-19.5 30q32 63 53 134t21 147v130q0 22 -14.5 36.5t-36.5 14.5h-29q-22 0 -36.5 -14.5t-14.5 -36.5v-131zM823 -244h-828v1169h828v-1169z" />
    <glyph glyph-name="X" unicode="X" horiz-adv-x="621" 
d="M297 234l139 -197q10 -14 24.5 -25.5t33.5 -11.5h46q29 0 39.5 20.5t-4.5 45.5q-48 71 -98 143.5t-100 143.5l182 260q16 25 5.5 46t-40.5 21h-46q-18 0 -32.5 -11.5t-24.5 -25.5l-123 -173l-122 173q-10 14 -24.5 25.5t-33.5 11.5h-46q-29 0 -40.5 -21t4.5 -46
q45 -66 91.5 -130t91.5 -130l-199 -287q-15 -25 -4.5 -45.5t40.5 -20.5h46q19 0 33.5 11.5t24.5 25.5zM621 -244h-626v1169h626v-1169z" />
    <glyph glyph-name="Y" unicode="Y" horiz-adv-x="586" 
d="M151 636q-7 21 -22 32.5t-34 11.5h-45q-27 0 -36.5 -17.5t-4.5 -40.5q9 -33 27.5 -74.5t44.5 -87.5t59 -93.5t73 -93.5v-222q0 -22 14.5 -36.5t37.5 -14.5h33q22 0 36.5 14.5t14.5 36.5v222q40 45 73.5 93t59.5 94t44 87.5t27 74.5q5 23 -4 40.5t-37 17.5h-44
q-20 0 -35 -11.5t-21 -32.5q-14 -46 -47.5 -107.5t-83.5 -126.5q-51 65 -84 126.5t-46 107.5zM586 -244h-591v1169h591v-1169z" />
    <glyph glyph-name="Z" unicode="Z" horiz-adv-x="596" 
d="M542 629q0 22 -14.5 36.5t-36.5 14.5h-399q-22 0 -36.5 -14.5t-14.5 -36.5v-29q0 -22 14.5 -36.5t36.5 -14.5h259l-312 -428q-5 -7 -7 -14.5t-2 -13.5v-42q0 -22 14.5 -36.5t36.5 -14.5h410q22 0 36.5 14.5t14.5 36.5v29q0 22 -14.5 36.5t-36.5 14.5h-271
q42 58 80.5 110.5t76 103.5t76 103.5t80.5 110.5q5 7 7 14.5t2 13.5v42zM596 -244h-601v1169h601v-1169z" />
    <glyph glyph-name="at" unicode="@" horiz-adv-x="947" 
d="M405 193q13 -41 62 -41q48 0 63 42v-1q3 10 4.5 25.5t1.5 44.5t-1.5 44t-4.5 26v-1q-15 42 -63 42q-49 0 -62 -41q-4 -11 -5.5 -26t-1.5 -44t1.5 -44t5.5 -26zM711 -107q-51 -23 -107.5 -35.5t-131.5 -12.5q-94 0 -172 31t-134.5 86.5t-87.5 133.5t-31 172q0 93 31 171
t87.5 133.5t134.5 86.5t172 31t172 -31t134 -87t87 -133.5t31 -170.5q0 -64 -15 -110t-41 -75.5t-60 -43.5t-73 -14q-79 0 -121 49q-23 -23 -57 -35.5t-77 -12.5q-65 0 -108.5 29.5t-63.5 89.5q-7 22 -10.5 48t-3.5 70t3.5 70t10.5 48q20 60 63 89.5t106 29.5
q31 0 56.5 -7.5t44.5 -20.5q16 18 42 18h18q24 0 40 -16t16 -40v-229q0 -29 12.5 -42t28.5 -13q12 0 22.5 6t18.5 19.5t12.5 36t4.5 56.5q0 66 -20.5 120.5t-59 93.5t-92.5 61t-121 22t-121.5 -21.5t-92.5 -60.5t-59 -94t-21 -121q0 -67 21 -122t59 -94t92.5 -60.5
t121.5 -21.5q64 0 108.5 10t82.5 27q23 10 43 4t28 -26l8 -21q7 -23 -1 -43t-30 -29v1z" />
    <glyph glyph-name="quotedbl" unicode="&#x22;" horiz-adv-x="442" 
d="M291 473q-18 0 -29 11t-11 29v157q0 18 11 29t29 11h44q18 0 29 -11t11 -29v-157q0 -18 -11 -29t-29 -11h-44zM107 473q-18 0 -29 11t-11 29v157q0 18 11 29t29 11h44q18 0 29 -11t11 -29v-157q0 -18 -11 -29t-29 -11h-44z" />
    <glyph glyph-name="exclam" unicode="!" horiz-adv-x="348" 
d="M96 56q0 -24 16 -40t40 -16h44q24 0 40 16t16 40v54q0 24 -16 40t-40 16h-44q-24 0 -40 -16t-16 -40v-54zM252 693q1 24 -16 40.5t-40 16.5h-44q-24 0 -41 -16.5t-15 -40.5l16 -445q2 -23 16.5 -38.5t39.5 -15.5h12q24 0 39 15.5t17 38.5zM348 -244h-353v1169h353v-1169z
" />
    <glyph glyph-name="exclamdown" unicode="&#xa1;" horiz-adv-x="348" 
d="M96 640q0 -24 16 -40t40 -16h44q24 0 40 16t16 40v54q0 24 -16 40t-40 16h-44q-24 0 -40 -16t-16 -40v-54zM236 502q-2 23 -17 38.5t-39 15.5h-12q-25 0 -39.5 -15.5t-16.5 -38.5l-16 -445q-2 -24 15 -40.5t41 -16.5h44q23 0 40 16.5t16 40.5zM348 -244h-353v1169h353
v-1169z" />
    <glyph glyph-name="plus" unicode="+" horiz-adv-x="542" 
d="M31 287q0 24 16 40t40 16h116v118q0 24 16 40t40 16h24q24 0 40 -16t16 -40v-118h116q24 0 40 -16t16 -40v-22q0 -24 -16 -40t-40 -16h-116v-118q0 -24 -16 -40t-40 -16h-24q-24 0 -40 16t-16 40v118h-116q-24 0 -40 16t-16 40v22v0z" />
    <glyph glyph-name="comma" unicode="," horiz-adv-x="230" 
d="M40 -99q0 -17 11 -28t28 -11q22 0 36 18q14 19 28.5 38t28.5 38q8 11 13 26t5 31v67q0 24 -16 40t-40 16h-38q-24 0 -40 -16t-16 -40v-179zM230 -244h-235v1169h235v-1169z" />
    <glyph glyph-name="hyphen" unicode="-" horiz-adv-x="161" 
d="M-5 925h166v-1169h-166v1169z" />
    <glyph glyph-name="period" unicode="." horiz-adv-x="236" 
d="M196 110q0 24 -16 40t-40 16h-44q-24 0 -40 -16t-16 -40v-54q0 -24 16 -40t40 -16h44q24 0 40 16t16 40v54zM236 -244h-241v1169h241v-1169z" />
    <glyph glyph-name="slash" unicode="/" horiz-adv-x="417" 
d="M247 650q10 27 38 27h48q20 0 29.5 -11.5t2.5 -31.5l-198 -606q-5 -13 -13.5 -20.5t-23.5 -7.5h-47q-21 0 -30 12t-2 32z" />
    <glyph glyph-name="zero" unicode="0" horiz-adv-x="620" 
d="M338 -10q75 0 125.5 35.5t72.5 103.5q3 9 5.5 22t4.5 36t3 60t1 94t-1 93.5t-3 59.5t-4.5 36t-5.5 23q-22 67 -72.5 102.5t-125.5 35.5h-55q-75 0 -125 -35.5t-72 -102.5q-3 -10 -6 -23t-5.5 -36t-3.5 -59.5t-1 -93.5t1 -94t3.5 -60t5.5 -36t6 -22q22 -68 72 -103.5
t125 -35.5h55zM283 117q-26 0 -43.5 11t-25.5 34v-1q-2 6 -3.5 15t-2.5 28t-1.5 51.5t-0.5 85.5q0 52 0.5 85t1.5 52t2.5 28t3.5 15v-1q8 23 25.5 34t43.5 11h55q53 0 70 -45v1q2 -6 3.5 -15t2.5 -28t1.5 -52t0.5 -85q0 -53 -0.5 -85.5t-1.5 -51.5t-2.5 -28t-3.5 -15v1
q-17 -45 -70 -45h-55zM620 -244h-625v1169h625v-1169z" />
    <glyph glyph-name="one" unicode="1" horiz-adv-x="618" 
d="M329 680q-20 0 -36 -6.5t-38 -23.5l-121 -85q-19 -13 -26.5 -29t-7.5 -37v-28q0 -17 6.5 -28t16.5 -16t23 -3.5t25 10.5v-1q25 18 49 35t49 34l3 -450q0 -23 14 -37.5t36 -14.5h30q22 0 37 14.5t15 37.5v576q0 22 -15 37t-37 15h-23zM618 -244h-623v1169h623v-1169z" />
    <glyph glyph-name="two" unicode="2" horiz-adv-x="623" 
d="M339 565q33 0 51.5 -21t18.5 -51q0 -24 -10.5 -48.5t-30.5 -44.5q-65 -66 -133 -135.5t-134 -135.5q-11 -11 -16 -28t-5 -24v-25q0 -23 14.5 -37.5t37.5 -14.5h361q22 0 36.5 14.5t14.5 37.5v23q0 23 -14.5 37.5t-36.5 14.5h-210l179 184q35 37 58.5 85.5t23.5 96.5
q0 42 -14 78.5t-40.5 63t-64 41.5t-84.5 15h-56q-44 0 -79 -13t-60 -34.5t-40.5 -49.5t-21.5 -58q-5 -22 6 -39t33 -21q6 -2 12.5 -3.5t12.5 -3.5q23 -5 39.5 5t22.5 33q8 26 26 42t48 16h55zM623 -244h-628v1169h628v-1169z" />
    <glyph glyph-name="three" unicode="3" horiz-adv-x="620" 
d="M335 -10q47 0 86.5 15.5t68 43.5t44.5 67.5t16 86.5q0 54 -21 94t-47 64q26 23 41.5 57t15.5 76q0 43 -14 79t-40.5 62t-65 41t-86.5 15h-53q-41 0 -74 -11t-58.5 -29.5t-42.5 -43t-24 -52.5q-6 -21 3 -39t28 -24q6 -1 15.5 -3.5t16.5 -4.5q22 -5 40.5 4.5t23.5 30.5
q8 16 25 30.5t43 14.5h55q35 0 54 -20.5t19 -51.5q0 -35 -20.5 -56t-56.5 -21h-67q-21 0 -36 -15t-15 -36v-25q0 -23 15 -37t36 -14h68q41 0 64 -24.5t23 -63.5q0 -35 -21 -59t-59 -24h-53q-35 0 -55 13t-26 32q-7 20 -22.5 31t-36.5 6l-30 -8q-22 -5 -33.5 -22t-6.5 -40
q9 -30 27.5 -55.5t45.5 -44t61.5 -29t75.5 -10.5h53zM620 -244h-625v1169h625v-1169z" />
    <glyph glyph-name="four" unicode="4" horiz-adv-x="617" 
d="M384 617q11 26 -3 44.5t-40 18.5h-33q-19 0 -33.5 -11.5t-21.5 -28.5h1q-48 -103 -97 -209t-97 -210q-7 -11 -7 -29v-31q0 -23 15 -37t37 -14h252v-58q0 -23 14.5 -37.5t36.5 -14.5h30q22 0 36.5 14.5t14.5 37.5v58h29q22 0 37 14t15 37v23q0 22 -15 37t-37 15h-29v172
q0 22 -14.5 36.5t-36.5 14.5h-30q-22 0 -36.5 -14.5t-14.5 -36.5v-172h-148zM617 -244h-622v1169h622v-1169z" />
    <glyph glyph-name="five" unicode="5" horiz-adv-x="621" 
d="M344 -10q69 0 121 33.5t72 96.5h-1q7 21 11 48t4 60q0 40 -4.5 67.5t-10.5 49.5q-20 60 -67.5 91.5t-114.5 31.5h-54q-23 0 -41.5 -4t-35.5 -12q-1 30 -1 53.5t-1 47.5h264q23 0 38 14.5t15 37.5v22q0 23 -15 38t-38 15h-337q-23 0 -38 -15t-15 -38v-301q0 -23 15 -37.5
t38 -14.5h29q16 0 28.5 9t17.5 23q7 14 23.5 24.5t42.5 10.5h55q24 0 41 -10t24 -32q4 -11 6 -28t2 -43q0 -25 -1 -41t-5 -27q-7 -22 -25 -32.5t-42 -10.5h-55q-29 0 -46.5 12t-25.5 32v-1q-7 21 -22.5 31t-37.5 6l-28 -7q-22 -5 -33.5 -23t-5.5 -40v1q15 -62 68 -100
t131 -38h55zM621 -244h-626v1169h626v-1169z" />
    <glyph glyph-name="six" unicode="6" horiz-adv-x="618" 
d="M282 117q-39 0 -62 25t-23 66q0 40 23 65t62 25h55q39 0 62.5 -25t23.5 -65q0 -41 -23.5 -66t-62.5 -25h-55zM337 -10q46 0 86.5 15t69.5 43.5t46 69.5t17 93q0 49 -16 88.5t-44 67.5t-65 43t-80 15h-37h-9.5t-9.5 -1l31.5 52.5t26.5 43t26 42.5t31 52q15 25 2.5 45.5
t-39.5 20.5h-41q-25 0 -36.5 -11.5t-19.5 -25.5l-164 -267q-20 -36 -34.5 -81t-14.5 -86q0 -51 16.5 -92t46 -69t69.5 -43t87 -15h55zM618 -244h-623v1169h623v-1169z" />
    <glyph glyph-name="seven" unicode="7" horiz-adv-x="620" 
d="M541 561q2 6 4 13t2 16v38q0 23 -14.5 37.5t-36.5 14.5h-369q-23 0 -37 -14.5t-14 -37.5v-116q0 -23 14 -37.5t37 -14.5h25q23 0 37.5 14.5t14.5 37.5v41h191l-219 -491q-11 -25 -0.5 -43.5t40.5 -18.5h42q23 0 37 12.5t22 28.5zM620 -244h-625v1169h625v-1169z" />
    <glyph glyph-name="eight" unicode="8" horiz-adv-x="619" 
d="M337 -10q49 0 89.5 15.5t70 43.5t45.5 67t16 86q0 46 -21 87.5t-47 68.5q23 23 38.5 56.5t15.5 76.5q0 41 -14 77.5t-40.5 63.5t-65 43t-87.5 16h-54q-49 0 -87 -16t-64.5 -43t-40.5 -63.5t-14 -77.5q0 -43 14.5 -76t38.5 -56q-13 -14 -25.5 -31.5t-22 -37.5t-15.5 -42.5
t-6 -45.5q0 -47 16 -86t45.5 -67t70 -43.5t90.5 -15.5h54zM283 420q-34 0 -53.5 21.5t-19.5 50.5q0 31 20 52t53 21h54q33 0 52.5 -21t19.5 -52q0 -29 -19 -50.5t-53 -21.5h-54zM283 117q-39 0 -63 25t-24 63t23.5 63t63.5 25h54q40 0 63 -25t23 -63t-23 -63t-63 -25h-54z
M619 -244h-624v1169h624v-1169z" />
    <glyph glyph-name="nine" unicode="9" horiz-adv-x="619" 
d="M337 564q39 0 62 -25.5t23 -65.5q0 -41 -23 -65.5t-62 -24.5h-54q-39 0 -62.5 24.5t-23.5 65.5q0 40 23.5 65.5t62.5 25.5h54zM283 691q-47 0 -87.5 -15t-70 -43.5t-46.5 -70t-17 -93.5q0 -49 16 -88.5t43.5 -67t65 -42.5t80.5 -15h57l-120 -190q-16 -25 -3.5 -45.5
t40.5 -20.5h46q25 0 36 11.5t20 25.5l164 267q21 35 35 80.5t14 87.5q0 51 -16.5 92t-46 69t-69.5 43t-87 15h-54zM619 -244h-624v1169h624v-1169z" />
    <glyph glyph-name="colon" unicode=":" horiz-adv-x="244" 
d="M200 423q0 24 -16 40t-40 16h-44q-24 0 -40 -16t-16 -40v-54q0 -24 16 -40t40 -16h44q24 0 40 16t16 40v54zM200 110q0 24 -16 40t-40 16h-44q-24 0 -40 -16t-16 -40v-54q0 -24 16 -40t40 -16h44q24 0 40 16t16 40v54zM244 -244h-249v1169h249v-1169z" />
    <glyph glyph-name="semicolon" unicode=";" horiz-adv-x="244" 
d="M47 -99q0 -17 11 -28t28 -11q22 0 36 18q14 19 28.5 38t28.5 38q8 11 13 26t5 31v67q0 24 -16 40t-40 16h-38q-24 0 -40 -16t-16 -40v-179zM200 423q0 24 -16 40t-40 16h-44q-24 0 -40 -16t-16 -40v-54q0 -24 16 -40t40 -16h44q24 0 40 16t16 40v54zM244 -244h-249v1169
h249v-1169z" />
    <glyph glyph-name="question" unicode="?" horiz-adv-x="483" 
d="M164 52q0 -23 15 -37.5t37 -14.5h41q23 0 37 14.5t14 37.5v50q0 22 -14 36.5t-37 14.5h-41q-22 0 -37 -14.5t-15 -36.5v-50zM45 559q-5 -23 7 -39.5t34 -21.5l29 -6q23 -5 39.5 7t20.5 34q6 24 23.5 38t41.5 14q27 0 44.5 -16t17.5 -42q0 -17 -9 -35.5t-29 -45.5l-61 -84
q-17 -24 -25 -46t-8 -54v-22q0 -23 14 -37.5t37 -14.5h31q22 0 37 14.5t15 37.5v14q0 17 3.5 27.5t14.5 24.5l62 85q26 36 39.5 67t13.5 70q0 40 -14 73.5t-40 58t-62 38t-79 13.5q-78 0 -130.5 -41t-66.5 -111zM483 -244h-488v1169h488v-1169z" />
    <glyph glyph-name="questiondown" unicode="&#xbf;" horiz-adv-x="483" 
d="M319 628q0 23 -15 37.5t-37 14.5h-41q-23 0 -37 -14.5t-14 -37.5v-50q0 -22 14 -36.5t37 -14.5h41q22 0 37 14.5t15 36.5v50zM438 121q5 23 -7 39.5t-34 21.5l-29 6q-23 5 -39.5 -7t-20.5 -34q-6 -24 -23.5 -38t-41.5 -14q-27 0 -44.5 16t-17.5 42q0 17 9 35.5t29 45.5
l61 84q17 24 25 46t8 54v22q0 23 -14 37.5t-37 14.5h-31q-22 0 -37 -14.5t-15 -37.5v-14q0 -17 -3.5 -27.5t-14.5 -24.5l-62 -85q-26 -36 -39.5 -67t-13.5 -70q0 -40 14 -73.5t40 -58t61.5 -38t79.5 -13.5q78 0 130.5 41t66.5 111zM483 -244h-488v1169h488v-1169z" />
    <glyph glyph-name="tilde" unicode="&#x2dc;" horiz-adv-x="421" 
d="M156 611q-9 0 -17.5 -4.5t-15.5 -11.5q-9 -8 -19 -11t-18.5 -0.5t-14 11t-5.5 23.5v35q0 10 2.5 16.5t11.5 17.5q16 16 36 26.5t44 10.5q19 0 37 -7t32 -15q8 -5 17 -8.5t17 -3.5t16.5 4.5t16.5 12.5t18 11t18.5 0t14 -11.5t5.5 -23.5v-36q0 -10 -2 -17t-11 -18
q-15 -15 -35 -25.5t-45 -10.5q-19 0 -36.5 7t-32.5 15q-9 5 -17.5 9t-16.5 4z" />
    <glyph glyph-name="circumflex" unicode="&#x2c6;" horiz-adv-x="421" 
d="M105 557q-18 0 -27.5 5.5t-12.5 14.5t-0.5 19.5t9.5 20.5l64 91q11 14 23.5 21.5t29.5 7.5h41q30 0 51 -29l66 -91q7 -10 9.5 -20.5t-0.5 -19.5t-13 -14.5t-27 -5.5h-33q-20 0 -32.5 8t-21.5 20l-20 27l-19 -27q-9 -13 -22 -20.5t-33 -7.5h-32z" />
    <glyph glyph-name="dieresis" unicode="&#xa8;" horiz-adv-x="444" 
d="M176 571q0 -21 -14 -35t-35 -14h-24q-22 0 -36 14t-14 35v37q0 21 14 35.5t36 14.5h24q21 0 35 -14.5t14 -35.5v-37zM392 571q0 -21 -14.5 -35t-35.5 -14h-24q-22 0 -36 14t-14 35v37q0 21 14 35.5t36 14.5h24q21 0 35.5 -14.5t14.5 -35.5v-37z" />
    <glyph glyph-name="acute" unicode="&#xb4;" horiz-adv-x="421" 
d="M150 541q-35 0 -39.5 13.5t8.5 27.5l57 61q19 21 55 21h54q26 0 32 -15.5t-9 -28.5l-69 -60q-9 -8 -22.5 -13.5t-33.5 -5.5h-33z" />
    <glyph glyph-name="underscore" unicode="_" horiz-adv-x="4292" 
d="M2190 925h1007v-1169h-1007v1169v0zM2426 668l-8 -7v-104l8 -7h205v-419h-205l-8 -7v-103l8 -8h536l7 8v103l-7 7h-198v419h198l7 7v104l-7 7h-536v0zM3286 925h1006v-1169h-1006v1169v0zM3521 668l-8 -7v-104l8 -7h198v-419h-198l-8 -7v-103l8 -8h536l7 8v103l-7 7h-198
v419h198l7 7v104l-7 7h-536v0zM1095 925h1015v-1169h-1015v1169v0zM1867 668h-110l-15 -7v-317l-287 213v104l-7 7h-110l-15 -7v-640l15 -8h110l7 8v368l287 -206v-162l15 -8h110l7 8v640l-7 7v0zM655 249l-140 257h-15l-140 -257v-7h295v7v0zM0 925v-1169h1014v1169h-1014
v0zM787 21l-15 -8h-111l-6 8v103h-295v-103l-7 -8h-111l-14 8v257l206 383l15 7h117l15 -7l206 -383v-257v0z" />
    <glyph glyph-name="percent" unicode="%" horiz-adv-x="821" 
d="M532 655q7 11 15 16.5t22 5.5h43q22 0 29 -15.5t-1 -32.5l-351 -607q-7 -11 -15 -16.5t-22 -5.5h-42q-21 0 -29 16t0 33zM211 293q-48 0 -81 23.5t-47 62.5q-3 7 -4.5 13.5t-2 17t-1 27t-0.5 42.5q0 25 0.5 41t1 26.5t2 17t4.5 14.5q13 40 46.5 63.5t81.5 23.5
q47 0 80 -23.5t47 -63.5q3 -8 4.5 -15.5t2.5 -17.5t1.5 -25.5t0.5 -40.5t-0.5 -40.5t-1.5 -26t-2.5 -18t-4.5 -15.5q-14 -39 -47 -62.5t-80 -23.5zM211 398q8 0 14.5 3.5t8.5 9.5q2 5 2 17v51v51t-2 17q-2 6 -8.5 9.5t-14.5 3.5q-20 0 -23 -13q-1 -5 -2 -17t-1 -51t1 -51
t2 -17q3 -13 23 -13zM482 79q-2 7 -3.5 13.5t-2.5 17t-1.5 26.5t-0.5 42q0 25 0.5 41t1.5 26.5t2.5 17t3.5 13.5q14 41 47 64t81 23q47 0 80 -23t47 -64q3 -8 4.5 -15t2.5 -17.5t1.5 -26t0.5 -39.5q0 -25 -0.5 -40.5t-1.5 -26t-2.5 -18t-4.5 -15.5q-14 -39 -47 -62.5
t-80 -23.5t-80 23.5t-47 62.5zM587 110q2 -7 8.5 -10t14.5 -3q20 0 23 13q1 4 2 16.5t1 51.5q0 19 -0.5 31t-1 19.5t-1 11t-0.5 5.5q-3 14 -23 14q-8 0 -14.5 -3.5t-8.5 -10.5q0 -2 -0.5 -5.5t-1 -11t-1 -19.5t-0.5 -31q0 -39 1 -51.5t2 -16.5z" />
    <glyph glyph-name="numbersign" unicode="#" horiz-adv-x="577" 
d="M103 214h-39q-18 0 -29 11t-11 29v43q0 18 11 29t29 11h54q3 21 5.5 37t6.5 43h-41q-18 0 -29 11t-11 29v42q0 18 11 29t29 11h57q5 42 11.5 82.5t11.5 82.5q3 16 12 26t29 10h45q22 0 32 -12.5t7 -32.5v1q-3 -24 -5.5 -42.5t-5.5 -36t-5.5 -36t-5.5 -42.5h72
q5 42 11.5 82.5t11.5 82.5q3 16 12 26t29 10h45q22 0 32 -12.5t7 -32.5v1q-3 -24 -5.5 -42.5t-5.5 -36t-5.5 -36t-5.5 -42.5h43q18 0 29 -11t11 -29v-42q0 -18 -11 -29t-29 -11h-59q-3 -21 -5.5 -37t-6.5 -43h45q18 0 29 -11t11 -29v-43q0 -18 -11 -29t-29 -11h-60
q-6 -42 -13 -89.5t-12 -89.5q-3 -16 -12 -25.5t-29 -9.5h-45q-23 0 -33 12.5t-6 32.5v-1q3 25 6 45.5t6 39.5t6 39t6 46h-72q-6 -42 -13 -89.5t-12 -89.5q-3 -16 -12 -25.5t-29 -9.5h-45q-22 0 -32 12.5t-7 32.5zM316 337q3 21 5.5 37t6.5 43h-72q-3 -21 -5.5 -37t-6.5 -43
h72z" />
    <glyph glyph-name="dollar" unicode="$" horiz-adv-x="560" 
d="M71 59q-11 8 -13 24t6 27l34 45q12 16 26 16t26 -8q16 -12 37 -23t47 -18v165q-83 20 -124 70t-41 124q0 81 46 134.5t119 69.5v22q0 17 10.5 27t26.5 10h27q17 0 26.5 -10t9.5 -27v-21q35 -7 67.5 -20t59.5 -30q14 -11 16 -22t-9 -27l-30 -46q-8 -14 -22.5 -14.5
t-25.5 4.5q-14 8 -28 14t-28 11v-156q85 -18 126 -67.5t41 -124.5q0 -81 -44.5 -136.5t-122.5 -72.5v-26q0 -17 -9.5 -26.5t-26.5 -9.5h-27q-16 0 -26.5 9.5t-10.5 26.5v21q-50 5 -90 22.5t-73 42.5zM234 551q-16 -10 -25 -26t-9 -38q0 -21 7.5 -36t26.5 -26v126zM334 132
q17 11 27 28.5t10 43.5q0 18 -9 33.5t-28 25.5v-131z" />
    <glyph glyph-name="parenleft" unicode="(" horiz-adv-x="320" 
d="M173 -53q-55 85 -82.5 180.5t-27.5 190.5q0 96 27.5 192t82.5 180q8 11 16 16t20 5h32q21 0 30.5 -13t-1.5 -34q-39 -78 -60.5 -168t-21.5 -178t22 -178.5t60 -167.5q11 -21 1.5 -34t-30.5 -13h-32q-12 0 -19.5 5t-15.5 16z" />
    <glyph glyph-name="ampersand" unicode="&#x26;" horiz-adv-x="646" 
d="M70 181q0 53 28.5 101.5t85.5 99.5q-18 24 -31.5 43t-21.5 36t-12 33t-4 34q0 35 13 64.5t35.5 51.5t54 34t68.5 12q39 0 70.5 -13t54 -35t34.5 -51.5t12 -62.5q0 -23 -5 -42.5t-17 -39t-31 -40t-47 -44.5q11 -14 20 -26t18.5 -24t19.5 -25t23 -29l41 51q11 13 24.5 15
t27.5 -9l36 -31q28 -23 6 -51l-58 -75l16 -21q5 -7 10 -9.5t8 -2.5h11q37 0 37 -37v-50q0 -17 -10 -27.5t-27 -10.5h-25q-18 0 -31 2.5t-24.5 9t-22 17t-23.5 25.5l-6 7q-38 -35 -78.5 -53t-88.5 -18q-46 0 -81.5 14.5t-60 40t-37 60.5t-12.5 76zM245 529q0 -11 7.5 -25.5
t30.5 -43.5q30 26 38.5 41t8.5 29q0 17 -12 28.5t-32 11.5t-30.5 -12t-10.5 -29zM197 186q0 -34 18 -53.5t52 -19.5q41 0 86 46q-26 33 -46.5 60.5t-47.5 63.5q-29 -26 -45.5 -50t-16.5 -47z" />
    <glyph glyph-name="quotesingle" unicode="'" horiz-adv-x="198" 
d="M77 473q-18 0 -29 11t-11 29v157q0 18 11 29t29 11h44q18 0 29 -11t11 -29v-157q0 -18 -11 -29t-29 -11h-44v0z" />
    <glyph glyph-name="less" unicode="&#x3c;" horiz-adv-x="542" 
d="M62 181q-31 10 -31 41v47q0 31 28 42l402 164q22 9 36 0.5t14 -34.5v-62q0 -17 -6.5 -25.5t-22.5 -15.5q-33 -14 -60 -24.5t-53 -21t-54 -22t-64 -25.5q58 -23 115.5 -45.5t115.5 -45.5q16 -7 22.5 -15.5t6.5 -25.5v-62q0 -26 -14 -34.5t-36 0.5l-401 164h2z" />
    <glyph glyph-name="parenright" unicode=")" horiz-adv-x="320" 
d="M50 -28q38 77 60 167.5t22 178.5t-21.5 178t-60.5 168q-11 21 -2 34t32 13h31q12 0 19.5 -5t15.5 -16q56 -85 83.5 -181.5t27.5 -190.5q0 -95 -27.5 -191t-83.5 -181q-8 -11 -15 -16t-20 -5h-31q-23 0 -32 13t2 34z" />
    <glyph glyph-name="asterisk" unicode="*" horiz-adv-x="342" 
d="M156 352q-16 0 -25.5 9.5t-9.5 25.5v33q-8 -4 -14.5 -8t-13.5 -9q-13 -6 -27 -2.5t-22 15.5l-13 25q-6 13 -3 28t18 22q7 4 9 4.5t2.5 1t3 2t10.5 6.5l-27 15q-14 8 -17.5 21.5t4.5 27.5q3 6 6.5 12.5t6.5 12.5q8 12 21.5 17t27.5 -5q6 -3 8 -4.5t4 -2t5 -2.5t11 -7v32
q0 16 9.5 26t25.5 10h27q16 0 25.5 -10t9.5 -26v-33q8 5 14 8.5t14 8.5q13 7 27 3t22 -15q3 -6 6.5 -12.5t6.5 -12.5q6 -13 3 -28t-18 -22q-8 -4 -9.5 -5t-2.5 -2t-3 -2l-10 -5l13.5 -7.5l13.5 -7.5q14 -8 17.5 -21.5t-4.5 -27.5q-3 -6 -6.5 -12.5t-6.5 -12.5
q-8 -13 -21.5 -18t-27.5 5q-6 3 -8 4.5t-4 2.5l-5 2.5t-11 6.5v-32q0 -16 -9.5 -25.5t-25.5 -9.5h-27v0z" />
    </font>
</defs>
</svg>
